%TF.GenerationSoftware,KiCad,Pcbnew,7.0.2-0*%
%TF.CreationDate,2023-07-09T23:01:50-07:00*%
%TF.ProjectId,thumbs-down-hw,7468756d-6273-42d6-946f-776e2d68772e,rev?*%
%TF.SameCoordinates,PX80fd3d8PY8977a68*%
%TF.FileFunction,Soldermask,Bot*%
%TF.FilePolarity,Negative*%
%FSLAX46Y46*%
G04 Gerber Fmt 4.6, Leading zero omitted, Abs format (unit mm)*
G04 Created by KiCad (PCBNEW 7.0.2-0) date 2023-07-09 23:01:50*
%MOMM*%
%LPD*%
G01*
G04 APERTURE LIST*
G04 Aperture macros list*
%AMRoundRect*
0 Rectangle with rounded corners*
0 $1 Rounding radius*
0 $2 $3 $4 $5 $6 $7 $8 $9 X,Y pos of 4 corners*
0 Add a 4 corners polygon primitive as box body*
4,1,4,$2,$3,$4,$5,$6,$7,$8,$9,$2,$3,0*
0 Add four circle primitives for the rounded corners*
1,1,$1+$1,$2,$3*
1,1,$1+$1,$4,$5*
1,1,$1+$1,$6,$7*
1,1,$1+$1,$8,$9*
0 Add four rect primitives between the rounded corners*
20,1,$1+$1,$2,$3,$4,$5,0*
20,1,$1+$1,$4,$5,$6,$7,0*
20,1,$1+$1,$6,$7,$8,$9,0*
20,1,$1+$1,$8,$9,$2,$3,0*%
G04 Aperture macros list end*
%ADD10C,2.700000*%
%ADD11C,0.700000*%
%ADD12RoundRect,0.082000X0.328000X0.718000X-0.328000X0.718000X-0.328000X-0.718000X0.328000X-0.718000X0*%
%ADD13C,1.600000*%
%ADD14C,1.750000*%
%ADD15C,3.000000*%
%ADD16C,4.000000*%
%ADD17RoundRect,0.625000X0.625000X-0.650000X0.625000X0.650000X-0.625000X0.650000X-0.625000X-0.650000X0*%
%ADD18C,1.204800*%
%ADD19RoundRect,0.304800X-0.905200X2.235200X-0.905200X-2.235200X0.905200X-2.235200X0.905200X2.235200X0*%
%ADD20C,1.524000*%
%ADD21RoundRect,0.800000X-0.880000X0.000000X0.880000X0.000000X0.880000X0.000000X-0.880000X0.000000X0*%
%ADD22RoundRect,0.200000X-1.480000X-0.600000X1.480000X-0.600000X1.480000X0.600000X-1.480000X0.600000X0*%
G04 APERTURE END LIST*
D10*
%TO.C,H1*%
X3175000Y3175000D03*
%TD*%
D11*
%TO.C,SW10*%
X3440000Y68580000D03*
X1640000Y68580000D03*
%TD*%
D10*
%TO.C,H4*%
X12065000Y78740000D03*
%TD*%
D12*
%TO.C,D1*%
X22340000Y70545000D03*
X20840000Y70545000D03*
X20840000Y65345000D03*
X22340000Y65345000D03*
%TD*%
D13*
%TO.C,A1*%
X4445000Y45085000D03*
X4445000Y42545000D03*
X4699000Y40005000D03*
X4699000Y37465000D03*
X4445000Y34925000D03*
X4445000Y32385000D03*
X4445000Y29845000D03*
X4699000Y27305000D03*
X4699000Y24765000D03*
X4445000Y22225000D03*
X4445000Y19685000D03*
X4445000Y17145000D03*
X4699000Y14605000D03*
X4699000Y12065000D03*
X4445000Y9525000D03*
X4445000Y6985000D03*
X19685000Y6985000D03*
X19685000Y9525000D03*
X19431000Y12065000D03*
X19431000Y14605000D03*
X19685000Y17145000D03*
X19685000Y19685000D03*
X19685000Y22225000D03*
X19431000Y24765000D03*
X19431000Y27305000D03*
X19685000Y29845000D03*
X19685000Y32385000D03*
X19685000Y34925000D03*
%TD*%
D10*
%TO.C,H3*%
X3175000Y61595000D03*
%TD*%
D14*
%TO.C,SW1*%
X16510000Y62865000D03*
D15*
X13970000Y64135000D03*
D16*
X16510000Y67945000D03*
D15*
X11430000Y70485000D03*
D14*
X16510000Y73025000D03*
D17*
X13970000Y60860000D03*
X11430000Y73787000D03*
%TD*%
D12*
%TO.C,D3*%
X13450000Y91500000D03*
X11950000Y91500000D03*
X11950000Y86300000D03*
X13450000Y86300000D03*
%TD*%
D18*
%TO.C,AE1*%
X22225000Y80195000D03*
D19*
X26605000Y81915000D03*
X17845000Y81915000D03*
%TD*%
D10*
%TO.C,H2*%
X20955000Y3175000D03*
%TD*%
D14*
%TO.C,SW3*%
X7620000Y83820000D03*
D15*
X5080000Y85090000D03*
D16*
X7620000Y88900000D03*
D15*
X2540000Y91440000D03*
D14*
X7620000Y93980000D03*
D17*
X5080000Y81815000D03*
X2540000Y94742000D03*
%TD*%
D11*
%TO.C,SW9*%
X3440000Y75565000D03*
X1640000Y75565000D03*
%TD*%
D20*
%TO.C,U1*%
X1397000Y8255000D03*
D21*
X2275000Y8255000D03*
D20*
X1397000Y10795000D03*
D21*
X2275000Y10795000D03*
D20*
X1397000Y13335000D03*
D22*
X2275000Y13335000D03*
D20*
X1397000Y15875000D03*
D21*
X2275000Y15875000D03*
D20*
X1397000Y18415000D03*
D21*
X2275000Y18415000D03*
D20*
X1397000Y20955000D03*
D21*
X2275000Y20955000D03*
D20*
X1397000Y23495000D03*
D21*
X2275000Y23495000D03*
D20*
X1397000Y26035000D03*
D22*
X2275000Y26035000D03*
D20*
X1397000Y28575000D03*
D21*
X2275000Y28575000D03*
D20*
X1397000Y31115000D03*
D21*
X2275000Y31115000D03*
D20*
X1397000Y33655000D03*
D21*
X2275000Y33655000D03*
D20*
X1397000Y36195000D03*
D21*
X2275000Y36195000D03*
D20*
X1397000Y38735000D03*
D22*
X2275000Y38735000D03*
D20*
X1397000Y41275000D03*
D21*
X2275000Y41275000D03*
D20*
X1397000Y43815000D03*
D21*
X2275000Y43815000D03*
D20*
X1397000Y46355000D03*
D21*
X2275000Y46355000D03*
D20*
X1397000Y48895000D03*
D21*
X2275000Y48895000D03*
D20*
X1397000Y51435000D03*
D22*
X2275000Y51435000D03*
D20*
X1397000Y53975000D03*
D21*
X2275000Y53975000D03*
D20*
X1270000Y56515000D03*
D21*
X2275000Y56515000D03*
X21855000Y56515000D03*
D20*
X22733000Y56515000D03*
D21*
X21855000Y53975000D03*
D20*
X22733000Y53975000D03*
D22*
X21855000Y51435000D03*
D20*
X22733000Y51435000D03*
D21*
X21855000Y48895000D03*
D20*
X22733000Y48895000D03*
D21*
X21855000Y46355000D03*
D20*
X22733000Y46355000D03*
D21*
X21855000Y43815000D03*
D20*
X22733000Y43815000D03*
D21*
X21855000Y41275000D03*
D20*
X22733000Y41275000D03*
D22*
X21855000Y38735000D03*
D20*
X22733000Y38735000D03*
D21*
X21855000Y36195000D03*
D20*
X22733000Y36195000D03*
D21*
X21855000Y33655000D03*
D20*
X22733000Y33655000D03*
D21*
X21855000Y31115000D03*
D20*
X22733000Y31115000D03*
D21*
X21855000Y28575000D03*
D20*
X22733000Y28575000D03*
D22*
X21855000Y26035000D03*
D20*
X22733000Y26035000D03*
D21*
X21855000Y23495000D03*
D20*
X22733000Y23495000D03*
D21*
X21855000Y20955000D03*
D20*
X22733000Y20955000D03*
D21*
X21855000Y18415000D03*
D20*
X22733000Y18415000D03*
D21*
X21855000Y15875000D03*
D20*
X22733000Y15875000D03*
D22*
X21855000Y13335000D03*
D20*
X22733000Y13335000D03*
D21*
X21855000Y10795000D03*
D20*
X22733000Y10795000D03*
D21*
X21855000Y8255000D03*
D20*
X22733000Y8255000D03*
%TD*%
M02*
