%TF.GenerationSoftware,KiCad,Pcbnew,7.0.2-0*%
%TF.CreationDate,2023-07-09T23:01:49-07:00*%
%TF.ProjectId,thumbs-down-hw,7468756d-6273-42d6-946f-776e2d68772e,rev?*%
%TF.SameCoordinates,PX80fd3d8PY8977a68*%
%TF.FileFunction,Copper,L2,Bot*%
%TF.FilePolarity,Positive*%
%FSLAX46Y46*%
G04 Gerber Fmt 4.6, Leading zero omitted, Abs format (unit mm)*
G04 Created by KiCad (PCBNEW 7.0.2-0) date 2023-07-09 23:01:49*
%MOMM*%
%LPD*%
G01*
G04 APERTURE LIST*
G04 Aperture macros list*
%AMRoundRect*
0 Rectangle with rounded corners*
0 $1 Rounding radius*
0 $2 $3 $4 $5 $6 $7 $8 $9 X,Y pos of 4 corners*
0 Add a 4 corners polygon primitive as box body*
4,1,4,$2,$3,$4,$5,$6,$7,$8,$9,$2,$3,0*
0 Add four circle primitives for the rounded corners*
1,1,$1+$1,$2,$3*
1,1,$1+$1,$4,$5*
1,1,$1+$1,$6,$7*
1,1,$1+$1,$8,$9*
0 Add four rect primitives between the rounded corners*
20,1,$1+$1,$2,$3,$4,$5,0*
20,1,$1+$1,$4,$5,$6,$7,0*
20,1,$1+$1,$6,$7,$8,$9,0*
20,1,$1+$1,$8,$9,$2,$3,0*%
G04 Aperture macros list end*
%ADD10C,0.152400*%
%TA.AperFunction,NonConductor*%
%ADD11C,0.152400*%
%TD*%
%TA.AperFunction,SMDPad,CuDef*%
%ADD12RoundRect,0.082000X0.328000X0.718000X-0.328000X0.718000X-0.328000X-0.718000X0.328000X-0.718000X0*%
%TD*%
%TA.AperFunction,ComponentPad*%
%ADD13C,1.600000*%
%TD*%
%TA.AperFunction,SMDPad,CuDef*%
%ADD14RoundRect,0.625000X0.625000X-0.650000X0.625000X0.650000X-0.625000X0.650000X-0.625000X-0.650000X0*%
%TD*%
%TA.AperFunction,ComponentPad*%
%ADD15C,1.204800*%
%TD*%
%TA.AperFunction,SMDPad,CuDef*%
%ADD16RoundRect,0.304800X-0.905200X2.235200X-0.905200X-2.235200X0.905200X-2.235200X0.905200X2.235200X0*%
%TD*%
%TA.AperFunction,SMDPad,CuDef*%
%ADD17RoundRect,0.304800X-0.905200X0.330200X-0.905200X-0.330200X0.905200X-0.330200X0.905200X0.330200X0*%
%TD*%
%TA.AperFunction,ComponentPad*%
%ADD18C,0.609600*%
%TD*%
%TA.AperFunction,ComponentPad*%
%ADD19C,1.524000*%
%TD*%
%TA.AperFunction,SMDPad,CuDef*%
%ADD20RoundRect,0.800000X-0.880000X0.000000X0.880000X0.000000X0.880000X0.000000X-0.880000X0.000000X0*%
%TD*%
%TA.AperFunction,SMDPad,CuDef*%
%ADD21RoundRect,0.200000X-1.480000X-0.600000X1.480000X-0.600000X1.480000X0.600000X-1.480000X0.600000X0*%
%TD*%
%TA.AperFunction,ViaPad*%
%ADD22C,0.609600*%
%TD*%
%TA.AperFunction,Conductor*%
%ADD23C,0.203200*%
%TD*%
%TA.AperFunction,Conductor*%
%ADD24C,0.609600*%
%TD*%
%TA.AperFunction,Conductor*%
%ADD25C,0.304800*%
%TD*%
G04 APERTURE END LIST*
D10*
D11*
X2512952Y81067286D02*
X2512952Y80724429D01*
X2179619Y80938715D02*
X3036761Y80938715D01*
X3036761Y80938715D02*
X3132000Y80895858D01*
X3132000Y80895858D02*
X3179619Y80810143D01*
X3179619Y80810143D02*
X3179619Y80724429D01*
X3179619Y80424429D02*
X2179619Y80424429D01*
X3179619Y80038714D02*
X2655809Y80038714D01*
X2655809Y80038714D02*
X2560571Y80081572D01*
X2560571Y80081572D02*
X2512952Y80167286D01*
X2512952Y80167286D02*
X2512952Y80295857D01*
X2512952Y80295857D02*
X2560571Y80381572D01*
X2560571Y80381572D02*
X2608190Y80424429D01*
X2512952Y79224428D02*
X3179619Y79224428D01*
X2512952Y79610143D02*
X3036761Y79610143D01*
X3036761Y79610143D02*
X3132000Y79567286D01*
X3132000Y79567286D02*
X3179619Y79481571D01*
X3179619Y79481571D02*
X3179619Y79353000D01*
X3179619Y79353000D02*
X3132000Y79267286D01*
X3132000Y79267286D02*
X3084380Y79224428D01*
X3179619Y78795857D02*
X2512952Y78795857D01*
X2608190Y78795857D02*
X2560571Y78753000D01*
X2560571Y78753000D02*
X2512952Y78667285D01*
X2512952Y78667285D02*
X2512952Y78538714D01*
X2512952Y78538714D02*
X2560571Y78453000D01*
X2560571Y78453000D02*
X2655809Y78410142D01*
X2655809Y78410142D02*
X3179619Y78410142D01*
X2655809Y78410142D02*
X2560571Y78367285D01*
X2560571Y78367285D02*
X2512952Y78281571D01*
X2512952Y78281571D02*
X2512952Y78153000D01*
X2512952Y78153000D02*
X2560571Y78067285D01*
X2560571Y78067285D02*
X2655809Y78024428D01*
X2655809Y78024428D02*
X3179619Y78024428D01*
X3179619Y77595857D02*
X2179619Y77595857D01*
X2560571Y77595857D02*
X2512952Y77510142D01*
X2512952Y77510142D02*
X2512952Y77338714D01*
X2512952Y77338714D02*
X2560571Y77253000D01*
X2560571Y77253000D02*
X2608190Y77210142D01*
X2608190Y77210142D02*
X2703428Y77167285D01*
X2703428Y77167285D02*
X2989142Y77167285D01*
X2989142Y77167285D02*
X3084380Y77210142D01*
X3084380Y77210142D02*
X3132000Y77253000D01*
X3132000Y77253000D02*
X3179619Y77338714D01*
X3179619Y77338714D02*
X3179619Y77510142D01*
X3179619Y77510142D02*
X3132000Y77595857D01*
X3132000Y76824428D02*
X3179619Y76738714D01*
X3179619Y76738714D02*
X3179619Y76567285D01*
X3179619Y76567285D02*
X3132000Y76481571D01*
X3132000Y76481571D02*
X3036761Y76438714D01*
X3036761Y76438714D02*
X2989142Y76438714D01*
X2989142Y76438714D02*
X2893904Y76481571D01*
X2893904Y76481571D02*
X2846285Y76567285D01*
X2846285Y76567285D02*
X2846285Y76695856D01*
X2846285Y76695856D02*
X2798666Y76781571D01*
X2798666Y76781571D02*
X2703428Y76824428D01*
X2703428Y76824428D02*
X2655809Y76824428D01*
X2655809Y76824428D02*
X2560571Y76781571D01*
X2560571Y76781571D02*
X2512952Y76695856D01*
X2512952Y76695856D02*
X2512952Y76567285D01*
X2512952Y76567285D02*
X2560571Y76481571D01*
X2798666Y76053000D02*
X2798666Y75367285D01*
X3179619Y74552999D02*
X2179619Y74552999D01*
X3132000Y74552999D02*
X3179619Y74638714D01*
X3179619Y74638714D02*
X3179619Y74810142D01*
X3179619Y74810142D02*
X3132000Y74895857D01*
X3132000Y74895857D02*
X3084380Y74938714D01*
X3084380Y74938714D02*
X2989142Y74981571D01*
X2989142Y74981571D02*
X2703428Y74981571D01*
X2703428Y74981571D02*
X2608190Y74938714D01*
X2608190Y74938714D02*
X2560571Y74895857D01*
X2560571Y74895857D02*
X2512952Y74810142D01*
X2512952Y74810142D02*
X2512952Y74638714D01*
X2512952Y74638714D02*
X2560571Y74552999D01*
X3179619Y73995856D02*
X3132000Y74081571D01*
X3132000Y74081571D02*
X3084380Y74124428D01*
X3084380Y74124428D02*
X2989142Y74167285D01*
X2989142Y74167285D02*
X2703428Y74167285D01*
X2703428Y74167285D02*
X2608190Y74124428D01*
X2608190Y74124428D02*
X2560571Y74081571D01*
X2560571Y74081571D02*
X2512952Y73995856D01*
X2512952Y73995856D02*
X2512952Y73867285D01*
X2512952Y73867285D02*
X2560571Y73781571D01*
X2560571Y73781571D02*
X2608190Y73738713D01*
X2608190Y73738713D02*
X2703428Y73695856D01*
X2703428Y73695856D02*
X2989142Y73695856D01*
X2989142Y73695856D02*
X3084380Y73738713D01*
X3084380Y73738713D02*
X3132000Y73781571D01*
X3132000Y73781571D02*
X3179619Y73867285D01*
X3179619Y73867285D02*
X3179619Y73995856D01*
X2512952Y73395856D02*
X3179619Y73224427D01*
X3179619Y73224427D02*
X2703428Y73052999D01*
X2703428Y73052999D02*
X3179619Y72881570D01*
X3179619Y72881570D02*
X2512952Y72710142D01*
X2512952Y72367285D02*
X3179619Y72367285D01*
X2608190Y72367285D02*
X2560571Y72324428D01*
X2560571Y72324428D02*
X2512952Y72238713D01*
X2512952Y72238713D02*
X2512952Y72110142D01*
X2512952Y72110142D02*
X2560571Y72024428D01*
X2560571Y72024428D02*
X2655809Y71981570D01*
X2655809Y71981570D02*
X3179619Y71981570D01*
X3179619Y70481570D02*
X2179619Y70481570D01*
X3132000Y70481570D02*
X3179619Y70567285D01*
X3179619Y70567285D02*
X3179619Y70738713D01*
X3179619Y70738713D02*
X3132000Y70824428D01*
X3132000Y70824428D02*
X3084380Y70867285D01*
X3084380Y70867285D02*
X2989142Y70910142D01*
X2989142Y70910142D02*
X2703428Y70910142D01*
X2703428Y70910142D02*
X2608190Y70867285D01*
X2608190Y70867285D02*
X2560571Y70824428D01*
X2560571Y70824428D02*
X2512952Y70738713D01*
X2512952Y70738713D02*
X2512952Y70567285D01*
X2512952Y70567285D02*
X2560571Y70481570D01*
X3132000Y69710142D02*
X3179619Y69795856D01*
X3179619Y69795856D02*
X3179619Y69967284D01*
X3179619Y69967284D02*
X3132000Y70052999D01*
X3132000Y70052999D02*
X3036761Y70095856D01*
X3036761Y70095856D02*
X2655809Y70095856D01*
X2655809Y70095856D02*
X2560571Y70052999D01*
X2560571Y70052999D02*
X2512952Y69967284D01*
X2512952Y69967284D02*
X2512952Y69795856D01*
X2512952Y69795856D02*
X2560571Y69710142D01*
X2560571Y69710142D02*
X2655809Y69667284D01*
X2655809Y69667284D02*
X2751047Y69667284D01*
X2751047Y69667284D02*
X2846285Y70095856D01*
X2512952Y69367284D02*
X3179619Y69152998D01*
X3179619Y69152998D02*
X2512952Y68938713D01*
X3179619Y67910142D02*
X2179619Y67910142D01*
X2798666Y67824427D02*
X3179619Y67567285D01*
X2512952Y67567285D02*
X2893904Y67910142D01*
X3179619Y67181571D02*
X2512952Y67181571D01*
X2179619Y67181571D02*
X2227238Y67224428D01*
X2227238Y67224428D02*
X2274857Y67181571D01*
X2274857Y67181571D02*
X2227238Y67138714D01*
X2227238Y67138714D02*
X2179619Y67181571D01*
X2179619Y67181571D02*
X2274857Y67181571D01*
X2512952Y66881571D02*
X2512952Y66538714D01*
X2179619Y66753000D02*
X3036761Y66753000D01*
X3036761Y66753000D02*
X3132000Y66710143D01*
X3132000Y66710143D02*
X3179619Y66624428D01*
X3179619Y66624428D02*
X3179619Y66538714D01*
D10*
D11*
X1655619Y82057905D02*
X988952Y82057905D01*
X655619Y82057905D02*
X703238Y82105524D01*
X703238Y82105524D02*
X750857Y82057905D01*
X750857Y82057905D02*
X703238Y82010286D01*
X703238Y82010286D02*
X655619Y82057905D01*
X655619Y82057905D02*
X750857Y82057905D01*
X1655619Y81581715D02*
X655619Y81581715D01*
X1655619Y81153144D02*
X1131809Y81153144D01*
X1131809Y81153144D02*
X1036571Y81200763D01*
X1036571Y81200763D02*
X988952Y81296001D01*
X988952Y81296001D02*
X988952Y81438858D01*
X988952Y81438858D02*
X1036571Y81534096D01*
X1036571Y81534096D02*
X1084190Y81581715D01*
X1655619Y80248382D02*
X1131809Y80248382D01*
X1131809Y80248382D02*
X1036571Y80296001D01*
X1036571Y80296001D02*
X988952Y80391239D01*
X988952Y80391239D02*
X988952Y80581715D01*
X988952Y80581715D02*
X1036571Y80676953D01*
X1608000Y80248382D02*
X1655619Y80343620D01*
X1655619Y80343620D02*
X1655619Y80581715D01*
X1655619Y80581715D02*
X1608000Y80676953D01*
X1608000Y80676953D02*
X1512761Y80724572D01*
X1512761Y80724572D02*
X1417523Y80724572D01*
X1417523Y80724572D02*
X1322285Y80676953D01*
X1322285Y80676953D02*
X1274666Y80581715D01*
X1274666Y80581715D02*
X1274666Y80343620D01*
X1274666Y80343620D02*
X1227047Y80248382D01*
X1655619Y79772191D02*
X988952Y79772191D01*
X1179428Y79772191D02*
X1084190Y79724572D01*
X1084190Y79724572D02*
X1036571Y79676953D01*
X1036571Y79676953D02*
X988952Y79581715D01*
X988952Y79581715D02*
X988952Y79486477D01*
X988952Y79296000D02*
X988952Y78915048D01*
X655619Y79153143D02*
X1512761Y79153143D01*
X1512761Y79153143D02*
X1608000Y79105524D01*
X1608000Y79105524D02*
X1655619Y79010286D01*
X1655619Y79010286D02*
X1655619Y78915048D01*
X988952Y78676952D02*
X1655619Y78486476D01*
X1655619Y78486476D02*
X1179428Y78296000D01*
X1179428Y78296000D02*
X1655619Y78105524D01*
X1655619Y78105524D02*
X988952Y77915048D01*
X1655619Y77534095D02*
X988952Y77534095D01*
X655619Y77534095D02*
X703238Y77581714D01*
X703238Y77581714D02*
X750857Y77534095D01*
X750857Y77534095D02*
X703238Y77486476D01*
X703238Y77486476D02*
X655619Y77534095D01*
X655619Y77534095D02*
X750857Y77534095D01*
X988952Y76629334D02*
X1798476Y76629334D01*
X1798476Y76629334D02*
X1893714Y76676953D01*
X1893714Y76676953D02*
X1941333Y76724572D01*
X1941333Y76724572D02*
X1988952Y76819810D01*
X1988952Y76819810D02*
X1988952Y76962667D01*
X1988952Y76962667D02*
X1941333Y77057905D01*
X1608000Y76629334D02*
X1655619Y76724572D01*
X1655619Y76724572D02*
X1655619Y76915048D01*
X1655619Y76915048D02*
X1608000Y77010286D01*
X1608000Y77010286D02*
X1560380Y77057905D01*
X1560380Y77057905D02*
X1465142Y77105524D01*
X1465142Y77105524D02*
X1179428Y77105524D01*
X1179428Y77105524D02*
X1084190Y77057905D01*
X1084190Y77057905D02*
X1036571Y77010286D01*
X1036571Y77010286D02*
X988952Y76915048D01*
X988952Y76915048D02*
X988952Y76724572D01*
X988952Y76724572D02*
X1036571Y76629334D01*
X893714Y73819809D02*
X846095Y73915048D01*
X846095Y73915048D02*
X846095Y74105524D01*
X846095Y74105524D02*
X893714Y74200762D01*
X893714Y74200762D02*
X988952Y74296000D01*
X988952Y74296000D02*
X1084190Y74343619D01*
X1084190Y74343619D02*
X1274666Y74343619D01*
X1274666Y74343619D02*
X1369904Y74296000D01*
X1369904Y74296000D02*
X1465142Y74200762D01*
X1465142Y74200762D02*
X1512761Y74105524D01*
X1512761Y74105524D02*
X1512761Y73915048D01*
X1512761Y73915048D02*
X1465142Y73819809D01*
X512761Y74010286D02*
X560380Y74248381D01*
X560380Y74248381D02*
X703238Y74486476D01*
X703238Y74486476D02*
X941333Y74629333D01*
X941333Y74629333D02*
X1179428Y74676952D01*
X1179428Y74676952D02*
X1417523Y74629333D01*
X1417523Y74629333D02*
X1655619Y74486476D01*
X1655619Y74486476D02*
X1798476Y74248381D01*
X1798476Y74248381D02*
X1846095Y74010286D01*
X1846095Y74010286D02*
X1798476Y73772190D01*
X1798476Y73772190D02*
X1655619Y73534095D01*
X1655619Y73534095D02*
X1417523Y73391238D01*
X1417523Y73391238D02*
X1179428Y73343619D01*
X1179428Y73343619D02*
X941333Y73391238D01*
X941333Y73391238D02*
X703238Y73534095D01*
X703238Y73534095D02*
X560380Y73772190D01*
X560380Y73772190D02*
X512761Y74010286D01*
X750857Y72962666D02*
X703238Y72915047D01*
X703238Y72915047D02*
X655619Y72819809D01*
X655619Y72819809D02*
X655619Y72581714D01*
X655619Y72581714D02*
X703238Y72486476D01*
X703238Y72486476D02*
X750857Y72438857D01*
X750857Y72438857D02*
X846095Y72391238D01*
X846095Y72391238D02*
X941333Y72391238D01*
X941333Y72391238D02*
X1084190Y72438857D01*
X1084190Y72438857D02*
X1655619Y73010285D01*
X1655619Y73010285D02*
X1655619Y72391238D01*
X655619Y71772190D02*
X655619Y71676952D01*
X655619Y71676952D02*
X703238Y71581714D01*
X703238Y71581714D02*
X750857Y71534095D01*
X750857Y71534095D02*
X846095Y71486476D01*
X846095Y71486476D02*
X1036571Y71438857D01*
X1036571Y71438857D02*
X1274666Y71438857D01*
X1274666Y71438857D02*
X1465142Y71486476D01*
X1465142Y71486476D02*
X1560380Y71534095D01*
X1560380Y71534095D02*
X1608000Y71581714D01*
X1608000Y71581714D02*
X1655619Y71676952D01*
X1655619Y71676952D02*
X1655619Y71772190D01*
X1655619Y71772190D02*
X1608000Y71867428D01*
X1608000Y71867428D02*
X1560380Y71915047D01*
X1560380Y71915047D02*
X1465142Y71962666D01*
X1465142Y71962666D02*
X1274666Y72010285D01*
X1274666Y72010285D02*
X1036571Y72010285D01*
X1036571Y72010285D02*
X846095Y71962666D01*
X846095Y71962666D02*
X750857Y71915047D01*
X750857Y71915047D02*
X703238Y71867428D01*
X703238Y71867428D02*
X655619Y71772190D01*
X750857Y71057904D02*
X703238Y71010285D01*
X703238Y71010285D02*
X655619Y70915047D01*
X655619Y70915047D02*
X655619Y70676952D01*
X655619Y70676952D02*
X703238Y70581714D01*
X703238Y70581714D02*
X750857Y70534095D01*
X750857Y70534095D02*
X846095Y70486476D01*
X846095Y70486476D02*
X941333Y70486476D01*
X941333Y70486476D02*
X1084190Y70534095D01*
X1084190Y70534095D02*
X1655619Y71105523D01*
X1655619Y71105523D02*
X1655619Y70486476D01*
X655619Y70153142D02*
X655619Y69534095D01*
X655619Y69534095D02*
X1036571Y69867428D01*
X1036571Y69867428D02*
X1036571Y69724571D01*
X1036571Y69724571D02*
X1084190Y69629333D01*
X1084190Y69629333D02*
X1131809Y69581714D01*
X1131809Y69581714D02*
X1227047Y69534095D01*
X1227047Y69534095D02*
X1465142Y69534095D01*
X1465142Y69534095D02*
X1560380Y69581714D01*
X1560380Y69581714D02*
X1608000Y69629333D01*
X1608000Y69629333D02*
X1655619Y69724571D01*
X1655619Y69724571D02*
X1655619Y70010285D01*
X1655619Y70010285D02*
X1608000Y70105523D01*
X1608000Y70105523D02*
X1560380Y70153142D01*
X1655619Y67581713D02*
X988952Y67581713D01*
X1179428Y67581713D02*
X1084190Y67534094D01*
X1084190Y67534094D02*
X1036571Y67486475D01*
X1036571Y67486475D02*
X988952Y67391237D01*
X988952Y67391237D02*
X988952Y67295999D01*
X1655619Y66438856D02*
X1655619Y67010284D01*
X1655619Y66724570D02*
X655619Y66724570D01*
X655619Y66724570D02*
X798476Y66819808D01*
X798476Y66819808D02*
X893714Y66915046D01*
X893714Y66915046D02*
X941333Y67010284D01*
D12*
%TO.P,D1,1,VDD*%
%TO.N,+5V*%
X22340000Y70545000D03*
%TO.P,D1,2,DOUT*%
%TO.N,/LED_DI_3*%
X20840000Y70545000D03*
%TO.P,D1,3,VSS*%
%TO.N,GND*%
X20840000Y65345000D03*
%TO.P,D1,4,DIN*%
%TO.N,/LED_DI_1*%
X22340000Y65345000D03*
%TD*%
D13*
%TO.P,A1,1,~{RESET}*%
%TO.N,/GPIO11*%
X4445000Y45085000D03*
%TO.P,A1,2,3V3*%
%TO.N,+3V3*%
X4445000Y42545000D03*
%TO.P,A1,3,AREF*%
%TO.N,unconnected-(A1-AREF-Pad3)*%
X4699000Y40005000D03*
%TO.P,A1,4,GND*%
%TO.N,GND*%
X4699000Y37465000D03*
%TO.P,A1,5,A0*%
%TO.N,unconnected-(A1-A0-Pad5)*%
X4445000Y34925000D03*
%TO.P,A1,6,A1*%
%TO.N,unconnected-(A1-A1-Pad6)*%
X4445000Y32385000D03*
%TO.P,A1,7,A2*%
%TO.N,unconnected-(A1-A2-Pad7)*%
X4445000Y29845000D03*
%TO.P,A1,8,A3*%
%TO.N,unconnected-(A1-A3-Pad8)*%
X4699000Y27305000D03*
%TO.P,A1,9,A4*%
%TO.N,unconnected-(A1-A4-Pad9)*%
X4699000Y24765000D03*
%TO.P,A1,10,A5*%
%TO.N,unconnected-(A1-A5-Pad10)*%
X4445000Y22225000D03*
%TO.P,A1,11,SCK*%
%TO.N,unconnected-(A1-SCK-Pad11)*%
X4445000Y19685000D03*
%TO.P,A1,12,MOSI*%
%TO.N,unconnected-(A1-MOSI-Pad12)*%
X4445000Y17145000D03*
%TO.P,A1,13,MISO*%
%TO.N,unconnected-(A1-MISO-Pad13)*%
X4699000Y14605000D03*
%TO.P,A1,14,RX*%
%TO.N,unconnected-(A1-RX-Pad14)*%
X4699000Y12065000D03*
%TO.P,A1,15,TX*%
%TO.N,unconnected-(A1-TX-Pad15)*%
X4445000Y9525000D03*
%TO.P,A1,16,SPARE*%
%TO.N,unconnected-(A1-SPARE-Pad16)*%
X4445000Y6985000D03*
%TO.P,A1,17,SDA*%
%TO.N,/DISP_SDA*%
X19685000Y6985000D03*
%TO.P,A1,18,SCL*%
%TO.N,/DISP_SCL*%
X19685000Y9525000D03*
%TO.P,A1,19,D0*%
%TO.N,/GPIO3*%
X19431000Y12065000D03*
%TO.P,A1,20,D1*%
%TO.N,/GPIO2*%
X19431000Y14605000D03*
%TO.P,A1,21,D2*%
%TO.N,/GPIO6*%
X19685000Y17145000D03*
%TO.P,A1,22,D3*%
%TO.N,unconnected-(A1-D3-Pad22)*%
X19685000Y19685000D03*
%TO.P,A1,23,D4*%
%TO.N,unconnected-(A1-D4-Pad23)*%
X19685000Y22225000D03*
%TO.P,A1,24,D5*%
%TO.N,unconnected-(A1-D5-Pad24)*%
X19431000Y24765000D03*
%TO.P,A1,25,D6*%
%TO.N,unconnected-(A1-D6-Pad25)*%
X19431000Y27305000D03*
%TO.P,A1,26,USB*%
%TO.N,+5V*%
X19685000Y29845000D03*
%TO.P,A1,27,EN*%
%TO.N,unconnected-(A1-EN-Pad27)*%
X19685000Y32385000D03*
%TO.P,A1,28,VBAT*%
%TO.N,unconnected-(A1-VBAT-Pad28)*%
X19685000Y34925000D03*
%TD*%
D14*
%TO.P,SW1,1,1*%
%TO.N,/SW_V*%
X13970000Y60860000D03*
%TO.P,SW1,2,2*%
%TO.N,/GPIO10*%
X11430000Y73787000D03*
%TD*%
D12*
%TO.P,D3,1,VDD*%
%TO.N,+5V*%
X13450000Y91500000D03*
%TO.P,D3,2,DOUT*%
%TO.N,unconnected-(D3-DOUT-Pad2)*%
X11950000Y91500000D03*
%TO.P,D3,3,VSS*%
%TO.N,GND*%
X11950000Y86300000D03*
%TO.P,D3,4,DIN*%
%TO.N,/LED_DI_3*%
X13450000Y86300000D03*
%TD*%
D15*
%TO.P,AE1,1,A*%
%TO.N,/RFM_ANT*%
X22225000Y80195000D03*
D16*
%TO.P,AE1,2,Shield*%
%TO.N,GND*%
X26605000Y81915000D03*
X17845000Y81915000D03*
D17*
X26605000Y79382200D03*
X17845000Y79382200D03*
D18*
X27508200Y79052000D03*
X26593800Y79052000D03*
X25704800Y79052000D03*
X18745200Y79052000D03*
X17856200Y79052000D03*
X16941800Y79052000D03*
%TD*%
D14*
%TO.P,SW3,1,1*%
%TO.N,/SW_V*%
X5080000Y81815000D03*
%TO.P,SW3,2,2*%
%TO.N,/GPIO7*%
X2540000Y94742000D03*
%TD*%
D19*
%TO.P,U1,1,GPIO0*%
%TO.N,/DISP_SDA*%
X1397000Y8255000D03*
D20*
X2275000Y8255000D03*
D19*
%TO.P,U1,2,GPIO1*%
%TO.N,/DISP_SCL*%
X1397000Y10795000D03*
D20*
X2275000Y10795000D03*
D19*
%TO.P,U1,3,GND*%
%TO.N,GND*%
X1397000Y13335000D03*
D21*
X2275000Y13335000D03*
D19*
%TO.P,U1,4,GPIO2*%
%TO.N,/GPIO2*%
X1397000Y15875000D03*
D20*
X2275000Y15875000D03*
D19*
%TO.P,U1,5,GPIO3*%
%TO.N,/GPIO3*%
X1397000Y18415000D03*
D20*
X2275000Y18415000D03*
D19*
%TO.P,U1,6,GPIO4*%
%TO.N,/GPIO4*%
X1397000Y20955000D03*
D20*
X2275000Y20955000D03*
D19*
%TO.P,U1,7,GPIO5*%
%TO.N,/GPIO5*%
X1397000Y23495000D03*
D20*
X2275000Y23495000D03*
D19*
%TO.P,U1,8,GND*%
%TO.N,GND*%
X1397000Y26035000D03*
D21*
X2275000Y26035000D03*
D19*
%TO.P,U1,9,GPIO6*%
%TO.N,/GPIO6*%
X1397000Y28575000D03*
D20*
X2275000Y28575000D03*
D19*
%TO.P,U1,10,GPIO7*%
%TO.N,/GPIO7*%
X1397000Y31115000D03*
D20*
X2275000Y31115000D03*
D19*
%TO.P,U1,11,GPIO8*%
%TO.N,/GPIO8*%
X1397000Y33655000D03*
D20*
X2275000Y33655000D03*
D19*
%TO.P,U1,12,GPIO9*%
%TO.N,/GPIO9*%
X1397000Y36195000D03*
D20*
X2275000Y36195000D03*
D19*
%TO.P,U1,13,GND*%
%TO.N,GND*%
X1397000Y38735000D03*
D21*
X2275000Y38735000D03*
D19*
%TO.P,U1,14,GPIO10*%
%TO.N,/GPIO10*%
X1397000Y41275000D03*
D20*
X2275000Y41275000D03*
D19*
%TO.P,U1,15,GPIO11*%
%TO.N,/GPIO11*%
X1397000Y43815000D03*
D20*
X2275000Y43815000D03*
D19*
%TO.P,U1,16,GPIO12*%
%TO.N,/RFM_MISO*%
X1397000Y46355000D03*
D20*
X2275000Y46355000D03*
D19*
%TO.P,U1,17,GPIO13*%
%TO.N,/RFM_CSn*%
X1397000Y48895000D03*
D20*
X2275000Y48895000D03*
D19*
%TO.P,U1,18,GND*%
%TO.N,GND*%
X1397000Y51435000D03*
D21*
X2275000Y51435000D03*
D19*
%TO.P,U1,19,GPIO14*%
%TO.N,/RFM_SCK*%
X1397000Y53975000D03*
D20*
X2275000Y53975000D03*
D19*
%TO.P,U1,20,GPIO15*%
%TO.N,/RFM_MOSI*%
X1270000Y56515000D03*
D20*
X2275000Y56515000D03*
%TO.P,U1,21,GPIO16*%
%TO.N,/GPIO16*%
X21855000Y56515000D03*
D19*
X22733000Y56515000D03*
D20*
%TO.P,U1,22,GPIO17*%
%TO.N,/GPIO17*%
X21855000Y53975000D03*
D19*
X22733000Y53975000D03*
D21*
%TO.P,U1,23,GND*%
%TO.N,GND*%
X21855000Y51435000D03*
D19*
X22733000Y51435000D03*
D20*
%TO.P,U1,24,GPIO18*%
%TO.N,/GPIO18*%
X21855000Y48895000D03*
D19*
X22733000Y48895000D03*
D20*
%TO.P,U1,25,GPIO19*%
%TO.N,/GPIO19*%
X21855000Y46355000D03*
D19*
X22733000Y46355000D03*
D20*
%TO.P,U1,26,GPIO20*%
%TO.N,/GPIO20*%
X21855000Y43815000D03*
D19*
X22733000Y43815000D03*
D20*
%TO.P,U1,27,GPIO21*%
%TO.N,/GPIO21*%
X21855000Y41275000D03*
D19*
X22733000Y41275000D03*
D21*
%TO.P,U1,28,GND*%
%TO.N,GND*%
X21855000Y38735000D03*
D19*
X22733000Y38735000D03*
D20*
%TO.P,U1,29,GPIO22*%
%TO.N,/RFM_RESET*%
X21855000Y36195000D03*
D19*
X22733000Y36195000D03*
D20*
%TO.P,U1,30,RUN*%
%TO.N,/PICO_RESET*%
X21855000Y33655000D03*
D19*
X22733000Y33655000D03*
D20*
%TO.P,U1,31,GPIO26_ADC0*%
%TO.N,/GPIO26*%
X21855000Y31115000D03*
D19*
X22733000Y31115000D03*
D20*
%TO.P,U1,32,GPIO27_ADC1*%
%TO.N,/GPIO27*%
X21855000Y28575000D03*
D19*
X22733000Y28575000D03*
D21*
%TO.P,U1,33,AGND*%
%TO.N,GND*%
X21855000Y26035000D03*
D19*
X22733000Y26035000D03*
D20*
%TO.P,U1,34,GPIO28_ADC2*%
%TO.N,/LED_DI_1*%
X21855000Y23495000D03*
D19*
X22733000Y23495000D03*
D20*
%TO.P,U1,35,ADC_VREF*%
%TO.N,unconnected-(U1-ADC_VREF-Pad35)*%
X21855000Y20955000D03*
D19*
X22733000Y20955000D03*
D20*
%TO.P,U1,36,3V3*%
%TO.N,+3V3*%
X21855000Y18415000D03*
D19*
X22733000Y18415000D03*
D20*
%TO.P,U1,37,3V3_EN*%
%TO.N,unconnected-(U1-3V3_EN-Pad37)*%
X21855000Y15875000D03*
D19*
X22733000Y15875000D03*
D21*
%TO.P,U1,38,GND*%
%TO.N,GND*%
X21855000Y13335000D03*
D19*
X22733000Y13335000D03*
D20*
%TO.P,U1,39,VSYS*%
%TO.N,/VSYS*%
X21855000Y10795000D03*
D19*
X22733000Y10795000D03*
D20*
%TO.P,U1,40,VBUS*%
%TO.N,+5V*%
X21855000Y8255000D03*
D19*
X22733000Y8255000D03*
%TD*%
D22*
%TO.N,GND*%
X9271000Y34290000D03*
%TO.N,/GPIO10*%
X6413500Y38163500D03*
%TO.N,GND*%
X9906000Y62611000D03*
X27305000Y73025000D03*
X9271000Y15240000D03*
X7112000Y39624000D03*
X27305000Y65405000D03*
X11811000Y59309000D03*
X19939000Y44577000D03*
X19685000Y75565000D03*
X19685000Y59055000D03*
X27305000Y66675000D03*
X19939000Y64770000D03*
X24130000Y55880000D03*
X20955000Y74295000D03*
X27305000Y64135000D03*
X27305000Y71755000D03*
X27305000Y67945000D03*
X19913600Y38709600D03*
X22225000Y62865000D03*
X20955000Y60325000D03*
X20320000Y74930000D03*
X19050000Y76200000D03*
X17780000Y24511000D03*
X9271000Y27940000D03*
X21590000Y60960000D03*
X19939000Y65659000D03*
X27305000Y75565000D03*
X27305000Y69215000D03*
X27305000Y61595000D03*
X22225000Y73025000D03*
X27305000Y70485000D03*
X24765000Y56515000D03*
X27305000Y62865000D03*
X9271000Y19050000D03*
X9271000Y30480000D03*
X20320000Y59690000D03*
X27305000Y60325000D03*
X27305000Y74295000D03*
X19939000Y71120000D03*
X9906000Y68326000D03*
X22225000Y61595000D03*
X11811000Y60071000D03*
X6985000Y36576000D03*
X7112000Y43180000D03*
X18415000Y54737000D03*
X21590000Y73660000D03*
X9271000Y46101000D03*
X26035000Y57785000D03*
X27305000Y59055000D03*
X27305000Y76835000D03*
X26670000Y58420000D03*
X19939000Y70231000D03*
X25400000Y57150000D03*
%TO.N,/GPIO11*%
X11557000Y34163000D03*
X15748000Y32512000D03*
%TO.N,+5V*%
X19812000Y73660000D03*
X12065000Y31623000D03*
X15367000Y31623000D03*
X8382000Y38481000D03*
X9652000Y54737000D03*
X14605000Y91440000D03*
%TO.N,/LED_DI_1*%
X15748000Y54737000D03*
X22098000Y64262000D03*
X17272000Y53213000D03*
%TO.N,+3V3*%
X7033598Y44142730D03*
X9652000Y58420000D03*
%TO.N,/SW_V*%
X10160000Y37846000D03*
X12573000Y61976000D03*
X5080000Y77343000D03*
X5080000Y73787000D03*
X7747000Y61214000D03*
X9906000Y61214000D03*
X5080000Y66802000D03*
X5080000Y70358000D03*
%TD*%
D23*
%TO.N,/LED_DI_3*%
X15875000Y83566000D02*
X15875000Y76835000D01*
X13450000Y86300000D02*
X13450000Y85991000D01*
X13450000Y85991000D02*
X15875000Y83566000D01*
%TO.N,GND*%
X15367000Y76581000D02*
X15748000Y76200000D01*
X15367000Y82550000D02*
X15367000Y76581000D01*
X11950000Y86300000D02*
X11950000Y85967000D01*
X11950000Y85967000D02*
X15367000Y82550000D01*
%TO.N,/GPIO10*%
X9144000Y71501000D02*
X9144000Y60960000D01*
X9144000Y60960000D02*
X6223000Y58039000D01*
X11430000Y73787000D02*
X9144000Y71501000D01*
X6223000Y38354000D02*
X6413500Y38163500D01*
X6223000Y58039000D02*
X6223000Y38354000D01*
D24*
%TO.N,GND*%
X20955000Y60325000D02*
X21590000Y60960000D01*
X27305000Y59055000D02*
X26670000Y58420000D01*
X27305000Y69215000D02*
X27305000Y67945000D01*
X27305000Y74295000D02*
X27305000Y73025000D01*
X27305000Y64135000D02*
X27305000Y62865000D01*
X19939000Y38735000D02*
X19913600Y38709600D01*
X19939000Y71120000D02*
X19939000Y70231000D01*
X22225000Y61595000D02*
X22225000Y62865000D01*
X26035000Y57785000D02*
X25400000Y57150000D01*
X19685000Y59055000D02*
X20320000Y59690000D01*
X27305000Y61595000D02*
X27305000Y60325000D01*
X20955000Y74295000D02*
X21590000Y73660000D01*
D23*
X11950000Y86300000D02*
X11950000Y85840000D01*
D24*
X19685000Y75565000D02*
X20320000Y74930000D01*
X27305000Y66675000D02*
X27305000Y65405000D01*
X27305000Y76835000D02*
X27305000Y75565000D01*
X20955000Y38735000D02*
X19939000Y38735000D01*
X27305000Y71755000D02*
X27305000Y70485000D01*
D23*
%TO.N,/GPIO7*%
X5753000Y42385812D02*
X5753000Y31788000D01*
X10185899Y90142701D02*
X10185899Y82067899D01*
X5740899Y42397913D02*
X5753000Y42385812D01*
X8636000Y61214000D02*
X5740899Y58318899D01*
X5080000Y31115000D02*
X3175000Y31115000D01*
X8761600Y91567000D02*
X10185899Y90142701D01*
X5753000Y31788000D02*
X5080000Y31115000D01*
X10185899Y82067899D02*
X8636000Y80518000D01*
X5715000Y91567000D02*
X8761600Y91567000D01*
X2540000Y94742000D02*
X5715000Y91567000D01*
X5740899Y58318899D02*
X5740899Y42397913D01*
X8636000Y80518000D02*
X8636000Y61214000D01*
%TO.N,/GPIO11*%
X13208000Y32512000D02*
X15748000Y32512000D01*
X11557000Y34163000D02*
X13208000Y32512000D01*
%TO.N,/GPIO16*%
X22733000Y56515000D02*
X21457622Y56515000D01*
D24*
%TO.N,+5V*%
X8382000Y53467000D02*
X9652000Y54737000D01*
D25*
X14545000Y91500000D02*
X14605000Y91440000D01*
X13450000Y91500000D02*
X14545000Y91500000D01*
D23*
X22340000Y70545000D02*
X22340000Y71132000D01*
X22340000Y71132000D02*
X19812000Y73660000D01*
D24*
X8382000Y38481000D02*
X8382000Y53467000D01*
D25*
X15367000Y31623000D02*
X12065000Y31623000D01*
D23*
%TO.N,/LED_DI_3*%
X19050000Y73660000D02*
X15875000Y76835000D01*
X20840000Y71108000D02*
X19050000Y72898000D01*
X19050000Y72898000D02*
X19050000Y73660000D01*
X20840000Y70545000D02*
X20840000Y71108000D01*
%TO.N,/LED_DI_1*%
X22340000Y65345000D02*
X22340000Y64504000D01*
X22340000Y64504000D02*
X22098000Y64262000D01*
X15748000Y54737000D02*
X17272000Y53213000D01*
D24*
%TO.N,+3V3*%
X6985000Y55753000D02*
X6985000Y44191328D01*
X6985000Y44191328D02*
X7033598Y44142730D01*
X9652000Y58420000D02*
X6985000Y55753000D01*
D23*
%TO.N,/SW_V*%
X8255000Y37719000D02*
X10033000Y37719000D01*
X10287000Y58039000D02*
X10287000Y60833000D01*
X5080000Y70358000D02*
X5080000Y66802000D01*
X5080000Y73787000D02*
X5080000Y70358000D01*
X13689000Y60860000D02*
X12573000Y61976000D01*
X5080000Y66802000D02*
X5080000Y64135000D01*
X7747000Y44323000D02*
X7620000Y44450000D01*
X7747000Y61214000D02*
X5080000Y63881000D01*
X7620000Y55372000D02*
X10287000Y58039000D01*
X5080000Y77343000D02*
X5080000Y73787000D01*
X5080000Y81815000D02*
X5080000Y80010000D01*
X8255000Y37719000D02*
X7747000Y38227000D01*
X5080000Y80010000D02*
X5080000Y77343000D01*
X5080000Y63881000D02*
X5080000Y64135000D01*
X13970000Y60860000D02*
X13689000Y60860000D01*
X7620000Y44450000D02*
X7620000Y55372000D01*
X10287000Y60833000D02*
X9906000Y61214000D01*
X10033000Y37719000D02*
X10160000Y37846000D01*
X7747000Y38227000D02*
X7747000Y44323000D01*
%TD*%
%TA.AperFunction,Conductor*%
%TO.N,GND*%
G36*
X26705138Y82024407D02*
G01*
X26730858Y81979858D01*
X26732000Y81966800D01*
X26732000Y81863200D01*
X26714407Y81814862D01*
X26669858Y81789142D01*
X26656800Y81788000D01*
X25242600Y81788000D01*
X25242600Y79509200D01*
X26656800Y79509200D01*
X26705138Y79491607D01*
X26730858Y79447058D01*
X26732000Y79434000D01*
X26732000Y79125059D01*
X26730438Y79130888D01*
X26672688Y79188638D01*
X26613863Y79204400D01*
X26573737Y79204400D01*
X26514912Y79188638D01*
X26478000Y79151726D01*
X26478000Y79255200D01*
X25242601Y79255200D01*
X25242601Y78998690D01*
X25242764Y78995192D01*
X25245497Y78966040D01*
X25291017Y78835951D01*
X25298713Y78825522D01*
X25298716Y78825522D01*
X25555014Y79081820D01*
X25547024Y79052000D01*
X25568162Y78973112D01*
X25625912Y78915362D01*
X25684737Y78899600D01*
X25724863Y78899600D01*
X25734616Y78902214D01*
X25479073Y78646671D01*
X25483754Y78643216D01*
X25500555Y78637337D01*
X25510165Y78632649D01*
X25531890Y78626270D01*
X25535540Y78625096D01*
X25613838Y78597698D01*
X25629193Y78596258D01*
X25636788Y78594800D01*
X25801662Y78594800D01*
X25801685Y78594801D01*
X26478000Y78594801D01*
X26478000Y78952274D01*
X26514912Y78915362D01*
X26573737Y78899600D01*
X26613863Y78899600D01*
X26672688Y78915362D01*
X26730438Y78973112D01*
X26732000Y78978942D01*
X26732000Y78594801D01*
X27433203Y78594801D01*
X27433211Y78594800D01*
X27575469Y78594800D01*
X27585230Y78596673D01*
X27596156Y78597697D01*
X27658812Y78619622D01*
X27662465Y78620796D01*
X27700079Y78631840D01*
X27700204Y78631920D01*
X27716040Y78639647D01*
X27726248Y78643219D01*
X27768844Y78674655D01*
X27818184Y78689203D01*
X27865332Y78668633D01*
X27888227Y78622569D01*
X27888700Y78614149D01*
X27888700Y58297931D01*
X27888057Y58288115D01*
X27878758Y58217483D01*
X27873677Y58198521D01*
X27848317Y58137296D01*
X27838501Y58120296D01*
X27795100Y58063734D01*
X27788679Y58056415D01*
X27757941Y58025675D01*
X27757939Y58025673D01*
X27752089Y58019823D01*
X27749008Y58015517D01*
X24098562Y54257349D01*
X24047776Y54206563D01*
X23960784Y54086828D01*
X23893589Y53954952D01*
X23847852Y53814184D01*
X23824700Y53668004D01*
X23824700Y52613666D01*
X23807107Y52565328D01*
X23803668Y52561504D01*
X23603751Y52353897D01*
X23557549Y52331282D01*
X23516556Y52338500D01*
X23436942Y52377421D01*
X23368449Y52387400D01*
X21982000Y52387400D01*
X21982000Y50482600D01*
X22276800Y50482600D01*
X22325138Y50465007D01*
X22350858Y50420458D01*
X22352000Y50407400D01*
X22352000Y49923100D01*
X22334407Y49874762D01*
X22289858Y49849042D01*
X22276800Y49847900D01*
X20919728Y49847900D01*
X20918088Y49847755D01*
X20918083Y49847754D01*
X20806023Y49837791D01*
X20619695Y49784476D01*
X20447923Y49694750D01*
X20297722Y49572278D01*
X20175250Y49422077D01*
X20085524Y49250305D01*
X20085522Y49250301D01*
X20085523Y49250301D01*
X20032209Y49063977D01*
X20022100Y48950272D01*
X20022100Y48839728D01*
X20022245Y48838088D01*
X20022246Y48838084D01*
X20032209Y48726024D01*
X20085524Y48539696D01*
X20175250Y48367924D01*
X20297722Y48217723D01*
X20447923Y48095251D01*
X20619695Y48005525D01*
X20619699Y48005523D01*
X20806023Y47952209D01*
X20919728Y47942100D01*
X20921386Y47942100D01*
X22276800Y47942100D01*
X22325138Y47924507D01*
X22350858Y47879958D01*
X22352000Y47866900D01*
X22352000Y47383100D01*
X22334407Y47334762D01*
X22289858Y47309042D01*
X22276800Y47307900D01*
X20919728Y47307900D01*
X20918088Y47307755D01*
X20918083Y47307754D01*
X20806023Y47297791D01*
X20619695Y47244476D01*
X20447923Y47154750D01*
X20297722Y47032278D01*
X20175250Y46882077D01*
X20085524Y46710305D01*
X20085522Y46710301D01*
X20085523Y46710301D01*
X20032209Y46523977D01*
X20022100Y46410272D01*
X20022100Y46299728D01*
X20022245Y46298088D01*
X20022246Y46298084D01*
X20032209Y46186024D01*
X20085524Y45999696D01*
X20175250Y45827924D01*
X20297722Y45677723D01*
X20447923Y45555251D01*
X20619695Y45465525D01*
X20619699Y45465523D01*
X20806023Y45412209D01*
X20919728Y45402100D01*
X20921386Y45402100D01*
X22276800Y45402100D01*
X22325138Y45384507D01*
X22350858Y45339958D01*
X22352000Y45326900D01*
X22352000Y44843100D01*
X22334407Y44794762D01*
X22289858Y44769042D01*
X22276800Y44767900D01*
X20919728Y44767900D01*
X20918088Y44767755D01*
X20918083Y44767754D01*
X20806023Y44757791D01*
X20619695Y44704476D01*
X20447923Y44614750D01*
X20297722Y44492278D01*
X20175250Y44342077D01*
X20085524Y44170305D01*
X20052501Y44054895D01*
X20032209Y43983977D01*
X20022100Y43870272D01*
X20022100Y43759728D01*
X20022245Y43758088D01*
X20022246Y43758084D01*
X20032209Y43646024D01*
X20085524Y43459696D01*
X20175250Y43287924D01*
X20297722Y43137723D01*
X20447923Y43015251D01*
X20619695Y42925525D01*
X20619699Y42925523D01*
X20806023Y42872209D01*
X20919728Y42862100D01*
X20921386Y42862100D01*
X22276800Y42862100D01*
X22325138Y42844507D01*
X22350858Y42799958D01*
X22352000Y42786900D01*
X22352000Y42303100D01*
X22334407Y42254762D01*
X22289858Y42229042D01*
X22276800Y42227900D01*
X20919728Y42227900D01*
X20918088Y42227755D01*
X20918083Y42227754D01*
X20806023Y42217791D01*
X20619695Y42164476D01*
X20447923Y42074750D01*
X20297722Y41952278D01*
X20175250Y41802077D01*
X20085524Y41630305D01*
X20032208Y41443977D01*
X20032209Y41443977D01*
X20022100Y41330272D01*
X20022100Y41219728D01*
X20022245Y41218088D01*
X20022246Y41218084D01*
X20032209Y41106024D01*
X20085524Y40919696D01*
X20175250Y40747924D01*
X20297722Y40597723D01*
X20447923Y40475251D01*
X20619695Y40385525D01*
X20619699Y40385523D01*
X20806023Y40332209D01*
X20919728Y40322100D01*
X20921386Y40322100D01*
X22276800Y40322100D01*
X22325138Y40304507D01*
X22350858Y40259958D01*
X22352000Y40246900D01*
X22352000Y39762600D01*
X22334407Y39714262D01*
X22289858Y39688542D01*
X22276800Y39687400D01*
X21982000Y39687400D01*
X21982000Y37782600D01*
X22276800Y37782600D01*
X22325138Y37765007D01*
X22350858Y37720458D01*
X22352000Y37707400D01*
X22352000Y37223100D01*
X22334407Y37174762D01*
X22289858Y37149042D01*
X22276800Y37147900D01*
X20919728Y37147900D01*
X20918088Y37147755D01*
X20918083Y37147754D01*
X20806023Y37137791D01*
X20619695Y37084476D01*
X20447923Y36994750D01*
X20297722Y36872278D01*
X20175250Y36722077D01*
X20085524Y36550305D01*
X20085522Y36550301D01*
X20085523Y36550301D01*
X20032209Y36363977D01*
X20022100Y36250272D01*
X20022100Y36139728D01*
X20022245Y36138088D01*
X20022246Y36138084D01*
X20032209Y36026023D01*
X20060210Y35928163D01*
X20056592Y35876850D01*
X20020838Y35839868D01*
X19969677Y35834520D01*
X19966082Y35835514D01*
X19871802Y35864113D01*
X19684999Y35882512D01*
X19498197Y35864113D01*
X19318574Y35809625D01*
X19153037Y35721143D01*
X19007936Y35602064D01*
X18888857Y35456963D01*
X18800375Y35291426D01*
X18745887Y35111803D01*
X18727488Y34925000D01*
X18745887Y34738198D01*
X18800375Y34558575D01*
X18888857Y34393038D01*
X19007936Y34247937D01*
X19088187Y34182078D01*
X19153035Y34128859D01*
X19318576Y34040375D01*
X19498199Y33985887D01*
X19664590Y33969500D01*
X19684999Y33967489D01*
X19684999Y33967490D01*
X19685000Y33967489D01*
X19871801Y33985887D01*
X19966082Y34014487D01*
X20017445Y34011683D01*
X20054989Y33976519D01*
X20061147Y33925449D01*
X20060210Y33921838D01*
X20032209Y33823978D01*
X20024955Y33742380D01*
X20022100Y33710272D01*
X20022100Y33599728D01*
X20022245Y33598088D01*
X20022246Y33598084D01*
X20032209Y33486023D01*
X20060210Y33388163D01*
X20056592Y33336850D01*
X20020838Y33299868D01*
X19969677Y33294520D01*
X19966082Y33295514D01*
X19871802Y33324113D01*
X19684999Y33342512D01*
X19498197Y33324113D01*
X19318574Y33269625D01*
X19153037Y33181143D01*
X19007936Y33062064D01*
X18888857Y32916963D01*
X18800375Y32751426D01*
X18745887Y32571803D01*
X18727488Y32385000D01*
X18745887Y32198198D01*
X18800375Y32018575D01*
X18888857Y31853038D01*
X19007936Y31707937D01*
X19088187Y31642078D01*
X19153035Y31588859D01*
X19318576Y31500375D01*
X19498199Y31445887D01*
X19664590Y31429500D01*
X19684999Y31427489D01*
X19684999Y31427490D01*
X19685000Y31427489D01*
X19871801Y31445887D01*
X19966082Y31474487D01*
X20017445Y31471683D01*
X20054989Y31436519D01*
X20061147Y31385449D01*
X20060210Y31381838D01*
X20032209Y31283978D01*
X20024955Y31202380D01*
X20022100Y31170272D01*
X20022100Y31059728D01*
X20022245Y31058088D01*
X20022246Y31058084D01*
X20032209Y30946023D01*
X20060210Y30848163D01*
X20056592Y30796850D01*
X20020838Y30759868D01*
X19969677Y30754520D01*
X19966082Y30755514D01*
X19871802Y30784113D01*
X19684999Y30802512D01*
X19498197Y30784113D01*
X19318574Y30729625D01*
X19153037Y30641143D01*
X19007936Y30522064D01*
X18888857Y30376963D01*
X18800375Y30211426D01*
X18745887Y30031803D01*
X18727488Y29845001D01*
X18745887Y29658198D01*
X18800375Y29478575D01*
X18888857Y29313038D01*
X19007936Y29167937D01*
X19088187Y29102078D01*
X19153035Y29048859D01*
X19318576Y28960375D01*
X19498199Y28905887D01*
X19664590Y28889500D01*
X19684999Y28887489D01*
X19684999Y28887490D01*
X19685000Y28887489D01*
X19871801Y28905887D01*
X19966082Y28934487D01*
X20017445Y28931683D01*
X20054989Y28896519D01*
X20061147Y28845449D01*
X20060210Y28841838D01*
X20032209Y28743978D01*
X20032209Y28743977D01*
X20022100Y28630272D01*
X20022100Y28519728D01*
X20022245Y28518088D01*
X20022246Y28518084D01*
X20032209Y28406024D01*
X20085524Y28219696D01*
X20115089Y28163097D01*
X20121875Y28112107D01*
X20094298Y28068684D01*
X20045261Y28053147D01*
X20000729Y28070149D01*
X19999442Y28071205D01*
X19962965Y28101141D01*
X19962963Y28101142D01*
X19962962Y28101143D01*
X19797425Y28189625D01*
X19617802Y28244113D01*
X19431000Y28262512D01*
X19244197Y28244113D01*
X19064574Y28189625D01*
X18899037Y28101143D01*
X18753936Y27982064D01*
X18634857Y27836963D01*
X18546375Y27671426D01*
X18491887Y27491803D01*
X18473488Y27305001D01*
X18491887Y27118198D01*
X18546375Y26938575D01*
X18634857Y26773038D01*
X18753936Y26627937D01*
X18835385Y26561095D01*
X18899035Y26508859D01*
X19064576Y26420375D01*
X19244199Y26365887D01*
X19431000Y26347489D01*
X19617801Y26365887D01*
X19797424Y26420375D01*
X19867315Y26457734D01*
X19911951Y26481591D01*
X19962874Y26488862D01*
X20006557Y26461698D01*
X20022600Y26415271D01*
X20022600Y26162000D01*
X21728000Y26162000D01*
X21728000Y26987400D01*
X20431831Y26987400D01*
X20383493Y27004993D01*
X20357773Y27049542D01*
X20359869Y27084430D01*
X20370113Y27118199D01*
X20388511Y27305000D01*
X20370113Y27491801D01*
X20315625Y27671424D01*
X20291801Y27715996D01*
X20284530Y27766919D01*
X20311694Y27810602D01*
X20360581Y27826605D01*
X20405643Y27809726D01*
X20447923Y27775251D01*
X20619695Y27685525D01*
X20619699Y27685523D01*
X20806023Y27632209D01*
X20919728Y27622100D01*
X20921386Y27622100D01*
X22276800Y27622100D01*
X22325138Y27604507D01*
X22350858Y27559958D01*
X22352000Y27546900D01*
X22352000Y27062600D01*
X22334407Y27014262D01*
X22289858Y26988542D01*
X22276800Y26987400D01*
X21982000Y26987400D01*
X21982000Y25082600D01*
X22276800Y25082600D01*
X22325138Y25065007D01*
X22350858Y25020458D01*
X22352000Y25007400D01*
X22352000Y24523100D01*
X22334407Y24474762D01*
X22289858Y24449042D01*
X22276800Y24447900D01*
X20919728Y24447900D01*
X20918088Y24447755D01*
X20918083Y24447754D01*
X20806023Y24437791D01*
X20619695Y24384476D01*
X20447923Y24294750D01*
X20405642Y24260274D01*
X20357062Y24243363D01*
X20308977Y24261636D01*
X20283887Y24306542D01*
X20291800Y24354005D01*
X20315625Y24398576D01*
X20370113Y24578199D01*
X20388511Y24765000D01*
X20370113Y24951801D01*
X20359869Y24985571D01*
X20362673Y25036934D01*
X20397837Y25074478D01*
X20431831Y25082600D01*
X21728000Y25082600D01*
X21728000Y25908000D01*
X20022600Y25908000D01*
X20022600Y25654730D01*
X20005007Y25606392D01*
X19960458Y25580672D01*
X19911951Y25588409D01*
X19874155Y25608612D01*
X19797424Y25649625D01*
X19780595Y25654730D01*
X19617802Y25704113D01*
X19431000Y25722512D01*
X19244197Y25704113D01*
X19064574Y25649625D01*
X18899037Y25561143D01*
X18753936Y25442064D01*
X18634857Y25296963D01*
X18546375Y25131426D01*
X18491887Y24951803D01*
X18473488Y24765001D01*
X18491887Y24578198D01*
X18546375Y24398575D01*
X18634857Y24233038D01*
X18753936Y24087937D01*
X18834187Y24022078D01*
X18899035Y23968859D01*
X19064576Y23880375D01*
X19244199Y23825887D01*
X19431000Y23807489D01*
X19617801Y23825887D01*
X19797424Y23880375D01*
X19962965Y23968859D01*
X20000729Y23999852D01*
X20049255Y24016917D01*
X20097398Y23998797D01*
X20122630Y23953971D01*
X20115089Y23906904D01*
X20085523Y23850301D01*
X20032209Y23663977D01*
X20022100Y23550272D01*
X20022100Y23439728D01*
X20022245Y23438088D01*
X20022246Y23438084D01*
X20032209Y23326023D01*
X20060210Y23228163D01*
X20056592Y23176850D01*
X20020838Y23139868D01*
X19969677Y23134520D01*
X19966082Y23135514D01*
X19871802Y23164113D01*
X19684999Y23182512D01*
X19498197Y23164113D01*
X19318574Y23109625D01*
X19153037Y23021143D01*
X19007936Y22902064D01*
X18888857Y22756963D01*
X18800375Y22591426D01*
X18745887Y22411803D01*
X18727488Y22225000D01*
X18745887Y22038198D01*
X18800375Y21858575D01*
X18888857Y21693038D01*
X19007936Y21547937D01*
X19088187Y21482078D01*
X19153035Y21428859D01*
X19318576Y21340375D01*
X19498199Y21285887D01*
X19664590Y21269500D01*
X19684999Y21267489D01*
X19684999Y21267490D01*
X19685000Y21267489D01*
X19871801Y21285887D01*
X19966082Y21314487D01*
X20017445Y21311683D01*
X20054989Y21276519D01*
X20061147Y21225449D01*
X20060210Y21221838D01*
X20032209Y21123978D01*
X20032209Y21123977D01*
X20022100Y21010272D01*
X20022100Y20899728D01*
X20022245Y20898088D01*
X20022246Y20898084D01*
X20032209Y20786023D01*
X20060210Y20688163D01*
X20056592Y20636850D01*
X20020838Y20599868D01*
X19969677Y20594520D01*
X19966082Y20595514D01*
X19871802Y20624113D01*
X19684999Y20642512D01*
X19498197Y20624113D01*
X19318574Y20569625D01*
X19153037Y20481143D01*
X19007936Y20362064D01*
X18888857Y20216963D01*
X18800375Y20051426D01*
X18745887Y19871803D01*
X18727488Y19685000D01*
X18745887Y19498198D01*
X18800375Y19318575D01*
X18888857Y19153038D01*
X19007936Y19007937D01*
X19088187Y18942078D01*
X19153035Y18888859D01*
X19318576Y18800375D01*
X19498199Y18745887D01*
X19664590Y18729500D01*
X19684999Y18727489D01*
X19684999Y18727490D01*
X19685000Y18727489D01*
X19871801Y18745887D01*
X19966082Y18774487D01*
X20017445Y18771683D01*
X20054989Y18736519D01*
X20061147Y18685449D01*
X20060210Y18681838D01*
X20032209Y18583978D01*
X20032209Y18583977D01*
X20022100Y18470272D01*
X20022100Y18359728D01*
X20022245Y18358088D01*
X20022246Y18358084D01*
X20032209Y18246023D01*
X20060210Y18148163D01*
X20056592Y18096850D01*
X20020838Y18059868D01*
X19969677Y18054520D01*
X19966082Y18055514D01*
X19871802Y18084113D01*
X19684999Y18102512D01*
X19498197Y18084113D01*
X19318574Y18029625D01*
X19153037Y17941143D01*
X19007936Y17822064D01*
X18888857Y17676963D01*
X18800375Y17511426D01*
X18745887Y17331803D01*
X18727488Y17145001D01*
X18745887Y16958198D01*
X18800375Y16778575D01*
X18888857Y16613038D01*
X19007936Y16467937D01*
X19088187Y16402078D01*
X19153035Y16348859D01*
X19318576Y16260375D01*
X19498199Y16205887D01*
X19664590Y16189500D01*
X19684999Y16187489D01*
X19684999Y16187490D01*
X19685000Y16187489D01*
X19871801Y16205887D01*
X19966082Y16234487D01*
X20017445Y16231683D01*
X20054989Y16196519D01*
X20061147Y16145449D01*
X20060210Y16141838D01*
X20032209Y16043978D01*
X20032209Y16043977D01*
X20022100Y15930272D01*
X20022100Y15819728D01*
X20022245Y15818088D01*
X20022246Y15818084D01*
X20032209Y15706024D01*
X20085524Y15519696D01*
X20115089Y15463097D01*
X20121875Y15412107D01*
X20094298Y15368684D01*
X20045261Y15353147D01*
X20000729Y15370149D01*
X19999442Y15371205D01*
X19962965Y15401141D01*
X19962963Y15401142D01*
X19962962Y15401143D01*
X19797425Y15489625D01*
X19617802Y15544113D01*
X19431000Y15562512D01*
X19244197Y15544113D01*
X19064574Y15489625D01*
X18899037Y15401143D01*
X18753936Y15282064D01*
X18634857Y15136963D01*
X18546375Y14971426D01*
X18491887Y14791803D01*
X18473488Y14605000D01*
X18491887Y14418198D01*
X18546375Y14238575D01*
X18634857Y14073038D01*
X18753936Y13927937D01*
X18835385Y13861095D01*
X18899035Y13808859D01*
X19064576Y13720375D01*
X19244199Y13665887D01*
X19431000Y13647489D01*
X19617801Y13665887D01*
X19797424Y13720375D01*
X19867315Y13757734D01*
X19911951Y13781591D01*
X19962874Y13788862D01*
X20006557Y13761698D01*
X20022600Y13715271D01*
X20022600Y13462000D01*
X21728000Y13462000D01*
X21728000Y14287400D01*
X20431831Y14287400D01*
X20383493Y14304993D01*
X20357773Y14349542D01*
X20359869Y14384430D01*
X20370113Y14418199D01*
X20388511Y14605000D01*
X20370113Y14791801D01*
X20315625Y14971424D01*
X20291801Y15015996D01*
X20284530Y15066919D01*
X20311694Y15110602D01*
X20360581Y15126605D01*
X20405643Y15109726D01*
X20447923Y15075251D01*
X20619695Y14985525D01*
X20619699Y14985523D01*
X20806023Y14932209D01*
X20919728Y14922100D01*
X20921386Y14922100D01*
X22276800Y14922100D01*
X22325138Y14904507D01*
X22350858Y14859958D01*
X22352000Y14846900D01*
X22352000Y14362600D01*
X22334407Y14314262D01*
X22289858Y14288542D01*
X22276800Y14287400D01*
X21982000Y14287400D01*
X21982000Y12382600D01*
X22276800Y12382600D01*
X22325138Y12365007D01*
X22350858Y12320458D01*
X22352000Y12307400D01*
X22352000Y11823100D01*
X22334407Y11774762D01*
X22289858Y11749042D01*
X22276800Y11747900D01*
X20919728Y11747900D01*
X20918088Y11747755D01*
X20918083Y11747754D01*
X20806023Y11737791D01*
X20619695Y11684476D01*
X20447923Y11594750D01*
X20405642Y11560274D01*
X20357062Y11543363D01*
X20308977Y11561636D01*
X20283887Y11606542D01*
X20291800Y11654005D01*
X20315625Y11698576D01*
X20370113Y11878199D01*
X20388511Y12065000D01*
X20370113Y12251801D01*
X20359869Y12285571D01*
X20362673Y12336934D01*
X20397837Y12374478D01*
X20431831Y12382600D01*
X21728000Y12382600D01*
X21728000Y13208000D01*
X20022600Y13208000D01*
X20022600Y12954730D01*
X20005007Y12906392D01*
X19960458Y12880672D01*
X19911951Y12888409D01*
X19874155Y12908612D01*
X19797424Y12949625D01*
X19780595Y12954730D01*
X19617802Y13004113D01*
X19431000Y13022512D01*
X19244197Y13004113D01*
X19064574Y12949625D01*
X18899037Y12861143D01*
X18753936Y12742064D01*
X18634857Y12596963D01*
X18546375Y12431426D01*
X18491887Y12251803D01*
X18473488Y12065001D01*
X18491887Y11878198D01*
X18546375Y11698575D01*
X18634857Y11533038D01*
X18753936Y11387937D01*
X18834187Y11322078D01*
X18899035Y11268859D01*
X19064576Y11180375D01*
X19244199Y11125887D01*
X19431000Y11107489D01*
X19617801Y11125887D01*
X19797424Y11180375D01*
X19962965Y11268859D01*
X20000729Y11299852D01*
X20049255Y11316917D01*
X20097398Y11298797D01*
X20122630Y11253971D01*
X20115089Y11206904D01*
X20085523Y11150301D01*
X20032209Y10963977D01*
X20022100Y10850272D01*
X20022100Y10739728D01*
X20022245Y10738088D01*
X20022246Y10738084D01*
X20032209Y10626023D01*
X20060210Y10528163D01*
X20056592Y10476850D01*
X20020838Y10439868D01*
X19969677Y10434520D01*
X19966082Y10435514D01*
X19871802Y10464113D01*
X19684999Y10482512D01*
X19498197Y10464113D01*
X19318574Y10409625D01*
X19153037Y10321143D01*
X19007936Y10202064D01*
X18888857Y10056963D01*
X18800375Y9891426D01*
X18745887Y9711803D01*
X18727488Y9525001D01*
X18745887Y9338198D01*
X18800375Y9158575D01*
X18888857Y8993038D01*
X19007936Y8847937D01*
X19088187Y8782078D01*
X19153035Y8728859D01*
X19318576Y8640375D01*
X19498199Y8585887D01*
X19664590Y8569500D01*
X19684999Y8567489D01*
X19684999Y8567490D01*
X19685000Y8567489D01*
X19871801Y8585887D01*
X19966082Y8614487D01*
X20017445Y8611683D01*
X20054989Y8576519D01*
X20061147Y8525449D01*
X20060210Y8521838D01*
X20032209Y8423978D01*
X20032209Y8423977D01*
X20022100Y8310272D01*
X20022100Y8199728D01*
X20022245Y8198088D01*
X20022246Y8198084D01*
X20032209Y8086023D01*
X20060210Y7988163D01*
X20056592Y7936850D01*
X20020838Y7899868D01*
X19969677Y7894520D01*
X19966082Y7895514D01*
X19871802Y7924113D01*
X19684999Y7942512D01*
X19498197Y7924113D01*
X19318574Y7869625D01*
X19153037Y7781143D01*
X19007936Y7662064D01*
X18888857Y7516963D01*
X18800375Y7351426D01*
X18745887Y7171803D01*
X18727488Y6985000D01*
X18745887Y6798198D01*
X18800375Y6618575D01*
X18884789Y6460649D01*
X18892060Y6409726D01*
X18864896Y6366043D01*
X18818469Y6350000D01*
X17018035Y6350000D01*
X16969697Y6367593D01*
X16964861Y6372026D01*
X16946360Y6390527D01*
X16945045Y6391842D01*
X16680712Y6608774D01*
X16396389Y6798753D01*
X16394773Y6799617D01*
X16394761Y6799624D01*
X16096450Y6959074D01*
X16096442Y6959078D01*
X16094814Y6959948D01*
X16093114Y6960652D01*
X16093106Y6960656D01*
X15780589Y7090105D01*
X15780572Y7090111D01*
X15778892Y7090807D01*
X15777140Y7091339D01*
X15777133Y7091341D01*
X15453429Y7189536D01*
X15453421Y7189538D01*
X15451664Y7190071D01*
X15449863Y7190430D01*
X15449852Y7190432D01*
X15118096Y7256423D01*
X15118079Y7256426D01*
X15116282Y7256783D01*
X15114457Y7256963D01*
X15114442Y7256965D01*
X14777802Y7290121D01*
X14777784Y7290122D01*
X14775976Y7290300D01*
X14662070Y7290300D01*
X9573355Y7290300D01*
X9525000Y7290300D01*
X9354024Y7290300D01*
X9352215Y7290122D01*
X9352197Y7290121D01*
X9015557Y7256965D01*
X9015539Y7256963D01*
X9013718Y7256783D01*
X9011923Y7256427D01*
X9011903Y7256423D01*
X8680147Y7190432D01*
X8680132Y7190429D01*
X8678336Y7190071D01*
X8676583Y7189540D01*
X8676570Y7189536D01*
X8352866Y7091341D01*
X8352852Y7091337D01*
X8351108Y7090807D01*
X8349433Y7090114D01*
X8349410Y7090105D01*
X8036893Y6960656D01*
X8036877Y6960649D01*
X8035186Y6959948D01*
X8033565Y6959082D01*
X8033549Y6959074D01*
X7735238Y6799624D01*
X7735217Y6799612D01*
X7733611Y6798753D01*
X7732085Y6797734D01*
X7732076Y6797728D01*
X7450827Y6609803D01*
X7450817Y6609797D01*
X7449288Y6608774D01*
X7447868Y6607609D01*
X7447855Y6607599D01*
X7186392Y6393022D01*
X7186383Y6393015D01*
X7184955Y6391842D01*
X7183649Y6390537D01*
X7183639Y6390527D01*
X7165139Y6372026D01*
X7118519Y6350286D01*
X7111965Y6350000D01*
X5311531Y6350000D01*
X5263193Y6367593D01*
X5237473Y6412142D01*
X5245211Y6460649D01*
X5276220Y6518662D01*
X5329625Y6618576D01*
X5384113Y6798199D01*
X5402511Y6985000D01*
X5384113Y7171801D01*
X5329625Y7351424D01*
X5241141Y7516965D01*
X5188905Y7580615D01*
X5122063Y7662064D01*
X5022815Y7743513D01*
X4976965Y7781141D01*
X4976963Y7781142D01*
X4976962Y7781143D01*
X4811425Y7869625D01*
X4631802Y7924113D01*
X4444999Y7942512D01*
X4258197Y7924113D01*
X4163917Y7895514D01*
X4112553Y7898319D01*
X4075010Y7933483D01*
X4068853Y7984553D01*
X4069790Y7988163D01*
X4097790Y8086019D01*
X4097790Y8086020D01*
X4097791Y8086023D01*
X4107900Y8199728D01*
X4107900Y8310272D01*
X4097791Y8423977D01*
X4069789Y8521840D01*
X4073407Y8573150D01*
X4109161Y8610133D01*
X4160322Y8615481D01*
X4163917Y8614487D01*
X4184569Y8608223D01*
X4258199Y8585887D01*
X4424590Y8569500D01*
X4444999Y8567489D01*
X4444999Y8567490D01*
X4445000Y8567489D01*
X4631801Y8585887D01*
X4811424Y8640375D01*
X4976965Y8728859D01*
X5122063Y8847937D01*
X5241141Y8993035D01*
X5329625Y9158576D01*
X5384113Y9338199D01*
X5402511Y9525000D01*
X5384113Y9711801D01*
X5329625Y9891424D01*
X5241141Y10056965D01*
X5188905Y10120615D01*
X5122063Y10202064D01*
X5022815Y10283513D01*
X4976965Y10321141D01*
X4976963Y10321142D01*
X4976962Y10321143D01*
X4811425Y10409625D01*
X4631802Y10464113D01*
X4444999Y10482512D01*
X4258197Y10464113D01*
X4163917Y10435514D01*
X4112553Y10438319D01*
X4075010Y10473483D01*
X4068853Y10524553D01*
X4069790Y10528163D01*
X4097790Y10626019D01*
X4097790Y10626020D01*
X4097791Y10626023D01*
X4107900Y10739728D01*
X4107900Y10850272D01*
X4097791Y10963977D01*
X4044477Y11150301D01*
X4014909Y11206905D01*
X4008124Y11257893D01*
X4035701Y11301316D01*
X4084738Y11316854D01*
X4129269Y11299853D01*
X4167035Y11268859D01*
X4332576Y11180375D01*
X4512199Y11125887D01*
X4699000Y11107489D01*
X4885801Y11125887D01*
X5065424Y11180375D01*
X5230965Y11268859D01*
X5376063Y11387937D01*
X5495141Y11533035D01*
X5583625Y11698576D01*
X5638113Y11878199D01*
X5656511Y12065000D01*
X5638113Y12251801D01*
X5583625Y12431424D01*
X5495141Y12596965D01*
X5442905Y12660615D01*
X5376063Y12742064D01*
X5276815Y12823513D01*
X5230965Y12861141D01*
X5230963Y12861142D01*
X5230962Y12861143D01*
X5065425Y12949625D01*
X4885802Y13004113D01*
X4698999Y13022512D01*
X4512197Y13004113D01*
X4332578Y12949626D01*
X4218049Y12888409D01*
X4167125Y12881139D01*
X4123443Y12908303D01*
X4107400Y12954730D01*
X4107400Y13208000D01*
X2402000Y13208000D01*
X2402000Y12382600D01*
X3698169Y12382600D01*
X3746507Y12365007D01*
X3772227Y12320458D01*
X3770131Y12285570D01*
X3759886Y12251801D01*
X3741488Y12065000D01*
X3759887Y11878198D01*
X3780562Y11810042D01*
X3814375Y11698576D01*
X3821912Y11684476D01*
X3838199Y11654005D01*
X3845469Y11603081D01*
X3818305Y11559399D01*
X3769417Y11543396D01*
X3724356Y11560275D01*
X3682076Y11594750D01*
X3510304Y11684476D01*
X3510301Y11684477D01*
X3323977Y11737791D01*
X3284053Y11741341D01*
X3211916Y11747754D01*
X3211912Y11747755D01*
X3210272Y11747900D01*
X1839851Y11747900D01*
X1791513Y11765493D01*
X1765793Y11810042D01*
X1764651Y11822917D01*
X1764516Y11878198D01*
X1763470Y12307218D01*
X1780946Y12355597D01*
X1825431Y12381425D01*
X1838670Y12382600D01*
X2148000Y12382600D01*
X2148000Y14287400D01*
X1833657Y14287400D01*
X1785319Y14304993D01*
X1759599Y14349542D01*
X1758457Y14362411D01*
X1757276Y14846718D01*
X1774752Y14895097D01*
X1819237Y14920925D01*
X1832476Y14922100D01*
X3208614Y14922100D01*
X3210272Y14922100D01*
X3323977Y14932209D01*
X3510301Y14985523D01*
X3682078Y15075252D01*
X3724358Y15109728D01*
X3772935Y15126638D01*
X3821021Y15108366D01*
X3846112Y15063461D01*
X3838199Y15015997D01*
X3814374Y14971425D01*
X3759887Y14791803D01*
X3741488Y14605000D01*
X3759886Y14418200D01*
X3770131Y14384430D01*
X3767327Y14333066D01*
X3732163Y14295522D01*
X3698169Y14287400D01*
X2402000Y14287400D01*
X2402000Y13462000D01*
X4107400Y13462000D01*
X4107400Y13715271D01*
X4124993Y13763609D01*
X4169542Y13789329D01*
X4218049Y13781591D01*
X4332574Y13720376D01*
X4332576Y13720375D01*
X4512199Y13665887D01*
X4699000Y13647489D01*
X4885801Y13665887D01*
X5065424Y13720375D01*
X5230965Y13808859D01*
X5376063Y13927937D01*
X5495141Y14073035D01*
X5583625Y14238576D01*
X5638113Y14418199D01*
X5656511Y14605000D01*
X5638113Y14791801D01*
X5583625Y14971424D01*
X5495141Y15136965D01*
X5442905Y15200615D01*
X5376063Y15282064D01*
X5267442Y15371205D01*
X5230965Y15401141D01*
X5230963Y15401142D01*
X5230962Y15401143D01*
X5065425Y15489625D01*
X4885802Y15544113D01*
X4698999Y15562512D01*
X4512197Y15544113D01*
X4332574Y15489625D01*
X4167034Y15401142D01*
X4129269Y15370149D01*
X4080742Y15353084D01*
X4032600Y15371205D01*
X4007368Y15416032D01*
X4014909Y15463096D01*
X4044477Y15519699D01*
X4097791Y15706023D01*
X4107900Y15819728D01*
X4107900Y15930272D01*
X4097791Y16043977D01*
X4069789Y16141840D01*
X4073407Y16193150D01*
X4109161Y16230133D01*
X4160322Y16235481D01*
X4163917Y16234487D01*
X4184569Y16228223D01*
X4258199Y16205887D01*
X4424590Y16189500D01*
X4444999Y16187489D01*
X4444999Y16187490D01*
X4445000Y16187489D01*
X4631801Y16205887D01*
X4811424Y16260375D01*
X4976965Y16348859D01*
X5122063Y16467937D01*
X5241141Y16613035D01*
X5329625Y16778576D01*
X5384113Y16958199D01*
X5402511Y17145000D01*
X5384113Y17331801D01*
X5329625Y17511424D01*
X5241141Y17676965D01*
X5188905Y17740615D01*
X5122063Y17822064D01*
X5022815Y17903513D01*
X4976965Y17941141D01*
X4976963Y17941142D01*
X4976962Y17941143D01*
X4811425Y18029625D01*
X4631802Y18084113D01*
X4444999Y18102512D01*
X4258197Y18084113D01*
X4163917Y18055514D01*
X4112553Y18058319D01*
X4075010Y18093483D01*
X4068853Y18144553D01*
X4069790Y18148163D01*
X4097790Y18246019D01*
X4097790Y18246020D01*
X4097791Y18246023D01*
X4107900Y18359728D01*
X4107900Y18470272D01*
X4097791Y18583977D01*
X4069789Y18681840D01*
X4073407Y18733150D01*
X4109161Y18770133D01*
X4160322Y18775481D01*
X4163917Y18774487D01*
X4184569Y18768223D01*
X4258199Y18745887D01*
X4445000Y18727489D01*
X4631801Y18745887D01*
X4811424Y18800375D01*
X4976965Y18888859D01*
X5122063Y19007937D01*
X5241141Y19153035D01*
X5329625Y19318576D01*
X5384113Y19498199D01*
X5402511Y19685000D01*
X5384113Y19871801D01*
X5329625Y20051424D01*
X5241141Y20216965D01*
X5188905Y20280615D01*
X5122063Y20362064D01*
X5022815Y20443513D01*
X4976965Y20481141D01*
X4976963Y20481142D01*
X4976962Y20481143D01*
X4811425Y20569625D01*
X4631802Y20624113D01*
X4444999Y20642512D01*
X4258197Y20624113D01*
X4163917Y20595514D01*
X4112553Y20598319D01*
X4075010Y20633483D01*
X4068853Y20684553D01*
X4069790Y20688163D01*
X4097790Y20786019D01*
X4097790Y20786020D01*
X4097791Y20786023D01*
X4107900Y20899728D01*
X4107900Y21010272D01*
X4097791Y21123977D01*
X4069789Y21221840D01*
X4073407Y21273150D01*
X4109161Y21310133D01*
X4160322Y21315481D01*
X4163917Y21314487D01*
X4184569Y21308223D01*
X4258199Y21285887D01*
X4445000Y21267489D01*
X4631801Y21285887D01*
X4811424Y21340375D01*
X4976965Y21428859D01*
X5122063Y21547937D01*
X5241141Y21693035D01*
X5329625Y21858576D01*
X5384113Y22038199D01*
X5402511Y22225000D01*
X5384113Y22411801D01*
X5329625Y22591424D01*
X5241141Y22756965D01*
X5188905Y22820615D01*
X5122063Y22902064D01*
X5022815Y22983513D01*
X4976965Y23021141D01*
X4976963Y23021142D01*
X4976962Y23021143D01*
X4811425Y23109625D01*
X4631802Y23164113D01*
X4444999Y23182512D01*
X4258197Y23164113D01*
X4163917Y23135514D01*
X4112553Y23138319D01*
X4075010Y23173483D01*
X4068853Y23224553D01*
X4069790Y23228163D01*
X4097790Y23326019D01*
X4097790Y23326020D01*
X4097791Y23326023D01*
X4107900Y23439728D01*
X4107900Y23550272D01*
X4097791Y23663977D01*
X4044477Y23850301D01*
X4014909Y23906905D01*
X4008124Y23957893D01*
X4035701Y24001316D01*
X4084738Y24016854D01*
X4129269Y23999853D01*
X4167035Y23968859D01*
X4332576Y23880375D01*
X4512199Y23825887D01*
X4678590Y23809500D01*
X4698999Y23807489D01*
X4698999Y23807490D01*
X4699000Y23807489D01*
X4885801Y23825887D01*
X5065424Y23880375D01*
X5230965Y23968859D01*
X5376063Y24087937D01*
X5495141Y24233035D01*
X5583625Y24398576D01*
X5638113Y24578199D01*
X5656511Y24765000D01*
X5638113Y24951801D01*
X5583625Y25131424D01*
X5495141Y25296965D01*
X5442905Y25360615D01*
X5376063Y25442064D01*
X5276815Y25523513D01*
X5230965Y25561141D01*
X5230963Y25561142D01*
X5230962Y25561143D01*
X5065425Y25649625D01*
X4885802Y25704113D01*
X4699000Y25722512D01*
X4512197Y25704113D01*
X4332578Y25649626D01*
X4218049Y25588409D01*
X4167125Y25581139D01*
X4123443Y25608303D01*
X4107400Y25654730D01*
X4107400Y25908000D01*
X2402000Y25908000D01*
X2402000Y25082600D01*
X3698169Y25082600D01*
X3746507Y25065007D01*
X3772227Y25020458D01*
X3770131Y24985570D01*
X3759886Y24951801D01*
X3741488Y24765001D01*
X3759887Y24578198D01*
X3780562Y24510042D01*
X3814375Y24398576D01*
X3821912Y24384476D01*
X3838199Y24354005D01*
X3845469Y24303081D01*
X3818305Y24259399D01*
X3769417Y24243396D01*
X3724356Y24260275D01*
X3682076Y24294750D01*
X3510304Y24384476D01*
X3510301Y24384477D01*
X3323977Y24437791D01*
X3284053Y24441341D01*
X3211916Y24447754D01*
X3211912Y24447755D01*
X3210272Y24447900D01*
X1808876Y24447900D01*
X1760538Y24465493D01*
X1734818Y24510042D01*
X1733676Y24522917D01*
X1732495Y25007217D01*
X1749971Y25055597D01*
X1794456Y25081425D01*
X1807695Y25082600D01*
X2148000Y25082600D01*
X2148000Y26987400D01*
X1802682Y26987400D01*
X1754344Y27004993D01*
X1728624Y27049542D01*
X1727482Y27062417D01*
X1726301Y27546717D01*
X1743777Y27595097D01*
X1788262Y27620925D01*
X1801501Y27622100D01*
X3208614Y27622100D01*
X3210272Y27622100D01*
X3323977Y27632209D01*
X3510301Y27685523D01*
X3682078Y27775252D01*
X3724358Y27809728D01*
X3772935Y27826638D01*
X3821021Y27808366D01*
X3846112Y27763461D01*
X3838199Y27715997D01*
X3814374Y27671425D01*
X3759887Y27491803D01*
X3741488Y27305000D01*
X3759886Y27118200D01*
X3770131Y27084430D01*
X3767327Y27033066D01*
X3732163Y26995522D01*
X3698169Y26987400D01*
X2402000Y26987400D01*
X2402000Y26162000D01*
X4107400Y26162000D01*
X4107400Y26415271D01*
X4124993Y26463609D01*
X4169542Y26489329D01*
X4218049Y26481591D01*
X4332574Y26420376D01*
X4332576Y26420375D01*
X4512199Y26365887D01*
X4678590Y26349500D01*
X4698999Y26347489D01*
X4698999Y26347490D01*
X4699000Y26347489D01*
X4885801Y26365887D01*
X5065424Y26420375D01*
X5230965Y26508859D01*
X5376063Y26627937D01*
X5495141Y26773035D01*
X5583625Y26938576D01*
X5638113Y27118199D01*
X5656511Y27305000D01*
X5638113Y27491801D01*
X5583625Y27671424D01*
X5495141Y27836965D01*
X5442905Y27900615D01*
X5376063Y27982064D01*
X5267442Y28071205D01*
X5230965Y28101141D01*
X5230963Y28101142D01*
X5230962Y28101143D01*
X5065425Y28189625D01*
X4885802Y28244113D01*
X4699000Y28262512D01*
X4512197Y28244113D01*
X4332574Y28189625D01*
X4167034Y28101142D01*
X4129269Y28070149D01*
X4080742Y28053084D01*
X4032600Y28071205D01*
X4007368Y28116032D01*
X4014909Y28163096D01*
X4044477Y28219699D01*
X4097791Y28406023D01*
X4107900Y28519728D01*
X4107900Y28630272D01*
X4097791Y28743977D01*
X4069789Y28841840D01*
X4073407Y28893150D01*
X4109161Y28930133D01*
X4160322Y28935481D01*
X4163917Y28934487D01*
X4184569Y28928223D01*
X4258199Y28905887D01*
X4424590Y28889500D01*
X4444999Y28887489D01*
X4444999Y28887490D01*
X4445000Y28887489D01*
X4631801Y28905887D01*
X4811424Y28960375D01*
X4976965Y29048859D01*
X5122063Y29167937D01*
X5241141Y29313035D01*
X5329625Y29478576D01*
X5384113Y29658199D01*
X5402511Y29845000D01*
X5384113Y30031801D01*
X5329625Y30211424D01*
X5241141Y30376965D01*
X5188905Y30440615D01*
X5122063Y30522064D01*
X5022815Y30603513D01*
X4976965Y30641141D01*
X4976963Y30641142D01*
X4976962Y30641143D01*
X4831340Y30718980D01*
X4797003Y30757282D01*
X4795320Y30808694D01*
X4827078Y30849160D01*
X4866789Y30860500D01*
X5047528Y30860500D01*
X5062196Y30859056D01*
X5080000Y30855514D01*
X5138057Y30867062D01*
X5179301Y30875266D01*
X5179300Y30875266D01*
X5179300Y30875267D01*
X5196069Y30878602D01*
X5196489Y30880240D01*
X5216775Y30900306D01*
X5242234Y30917316D01*
X5242235Y30917318D01*
X5252909Y30924449D01*
X5252914Y30924454D01*
X5263484Y30931516D01*
X5273568Y30946610D01*
X5282915Y30957999D01*
X5909998Y31585083D01*
X5921383Y31594428D01*
X5936484Y31604516D01*
X5956142Y31633935D01*
X5992734Y31688699D01*
X6012486Y31788000D01*
X6008945Y31805803D01*
X6007500Y31820473D01*
X6007500Y34163000D01*
X11094593Y34163000D01*
X11113324Y34032723D01*
X11167996Y33913006D01*
X11254188Y33813535D01*
X11335759Y33761114D01*
X11364909Y33742380D01*
X11491193Y33705300D01*
X11623634Y33705300D01*
X11671972Y33687707D01*
X11676808Y33683274D01*
X13005078Y32355005D01*
X13014430Y32343610D01*
X13024515Y32328516D01*
X13039607Y32318432D01*
X13039609Y32318430D01*
X13108698Y32272266D01*
X13128449Y32268338D01*
X13208000Y32252514D01*
X13225803Y32256056D01*
X13240472Y32257500D01*
X15328558Y32257500D01*
X15376896Y32239907D01*
X15385390Y32231546D01*
X15408266Y32205146D01*
X15426625Y32157094D01*
X15409800Y32108483D01*
X15365666Y32082059D01*
X15351434Y32080700D01*
X15301193Y32080700D01*
X15174908Y32043620D01*
X15064188Y31972465D01*
X15048408Y31954254D01*
X15003457Y31929244D01*
X14991576Y31928300D01*
X12440424Y31928300D01*
X12392086Y31945893D01*
X12383592Y31954254D01*
X12367811Y31972465D01*
X12257091Y32043620D01*
X12130807Y32080700D01*
X11999193Y32080700D01*
X11872908Y32043620D01*
X11762188Y31972466D01*
X11675996Y31872995D01*
X11621324Y31753278D01*
X11602593Y31623000D01*
X11621324Y31492723D01*
X11675996Y31373006D01*
X11762188Y31273535D01*
X11843759Y31221114D01*
X11872909Y31202380D01*
X11999193Y31165300D01*
X12130807Y31165300D01*
X12257091Y31202380D01*
X12367812Y31273536D01*
X12377281Y31284464D01*
X12383592Y31291746D01*
X12428543Y31316756D01*
X12440424Y31317700D01*
X14991576Y31317700D01*
X15039914Y31300107D01*
X15048408Y31291746D01*
X15064188Y31273536D01*
X15174909Y31202380D01*
X15301193Y31165300D01*
X15432807Y31165300D01*
X15559091Y31202380D01*
X15640662Y31254803D01*
X15669811Y31273535D01*
X15692836Y31300107D01*
X15756002Y31373004D01*
X15810676Y31492725D01*
X15829407Y31623000D01*
X15810676Y31753275D01*
X15810675Y31753278D01*
X15756003Y31872995D01*
X15706734Y31929854D01*
X15688375Y31977907D01*
X15705200Y32026517D01*
X15749334Y32052941D01*
X15763566Y32054300D01*
X15813807Y32054300D01*
X15940091Y32091380D01*
X16042344Y32157094D01*
X16050811Y32162535D01*
X16087734Y32205146D01*
X16137002Y32262004D01*
X16141689Y32272266D01*
X16191675Y32381723D01*
X16191674Y32381723D01*
X16191676Y32381725D01*
X16210407Y32512000D01*
X16191676Y32642275D01*
X16176295Y32675956D01*
X16137003Y32761995D01*
X16050811Y32861466D01*
X15940091Y32932620D01*
X15813807Y32969700D01*
X15682193Y32969700D01*
X15555908Y32932620D01*
X15445188Y32861466D01*
X15385390Y32792454D01*
X15340440Y32767445D01*
X15328558Y32766500D01*
X13344565Y32766500D01*
X13296227Y32784093D01*
X13291391Y32788526D01*
X12033140Y34046778D01*
X12011400Y34093398D01*
X12011880Y34110655D01*
X12019407Y34163000D01*
X12000676Y34293275D01*
X11955118Y34393035D01*
X11946003Y34412995D01*
X11859811Y34512466D01*
X11749091Y34583620D01*
X11622807Y34620700D01*
X11491193Y34620700D01*
X11364908Y34583620D01*
X11254188Y34512466D01*
X11167996Y34412995D01*
X11113324Y34293278D01*
X11094593Y34163000D01*
X6007500Y34163000D01*
X6007500Y37742633D01*
X6025093Y37790971D01*
X6069642Y37816691D01*
X6120300Y37807758D01*
X6123349Y37805900D01*
X6221409Y37742880D01*
X6347693Y37705800D01*
X6479307Y37705800D01*
X6605591Y37742880D01*
X6687162Y37795303D01*
X6716311Y37814035D01*
X6716312Y37814036D01*
X6802502Y37913504D01*
X6857176Y38033225D01*
X6875907Y38163500D01*
X6857176Y38293775D01*
X6857175Y38293778D01*
X6802503Y38413495D01*
X6716311Y38512966D01*
X6605591Y38584120D01*
X6531514Y38605871D01*
X6490091Y38636370D01*
X6477500Y38678025D01*
X6477500Y43869994D01*
X6495093Y43918332D01*
X6539642Y43944052D01*
X6590300Y43935119D01*
X6605874Y43923168D01*
X6654304Y43874738D01*
X6656256Y43872713D01*
X6701214Y43824259D01*
X6710755Y43816383D01*
X6730786Y43793266D01*
X6771661Y43766997D01*
X6775653Y43764246D01*
X6817310Y43733502D01*
X6817313Y43733500D01*
X6823155Y43731456D01*
X6838971Y43723740D01*
X6841507Y43722110D01*
X6841509Y43722110D01*
X6841510Y43722109D01*
X6891599Y43707402D01*
X6895250Y43706228D01*
X6924582Y43695965D01*
X6947545Y43687929D01*
X6950058Y43687836D01*
X6967270Y43685030D01*
X6967791Y43685030D01*
X7023627Y43685030D01*
X7026439Y43684977D01*
X7086332Y43682736D01*
X7095864Y43683991D01*
X7099402Y43685030D01*
X7099405Y43685030D01*
X7156495Y43701794D01*
X7158126Y43702252D01*
X7218697Y43718481D01*
X7218698Y43718482D01*
X7221005Y43719100D01*
X7235679Y43728530D01*
X7279084Y43756425D01*
X7335523Y43791888D01*
X7360302Y43820683D01*
X7405164Y43845844D01*
X7455708Y43836282D01*
X7488279Y43796469D01*
X7492500Y43771630D01*
X7492500Y38259473D01*
X7491055Y38244803D01*
X7487514Y38227001D01*
X7491055Y38209199D01*
X7491055Y38209197D01*
X7506503Y38131536D01*
X7507265Y38127700D01*
X7553431Y38058608D01*
X7553434Y38058604D01*
X7563515Y38043517D01*
X7578606Y38033433D01*
X7590001Y38024081D01*
X8052078Y37562005D01*
X8061430Y37550610D01*
X8071515Y37535516D01*
X8086607Y37525432D01*
X8092766Y37521317D01*
X8129853Y37496536D01*
X8155699Y37479266D01*
X8237192Y37463056D01*
X8237202Y37463055D01*
X8255000Y37459515D01*
X8272798Y37463055D01*
X8287468Y37464500D01*
X9884957Y37464500D01*
X9925612Y37452563D01*
X9967909Y37425380D01*
X10094193Y37388300D01*
X10225807Y37388300D01*
X10352091Y37425380D01*
X10435939Y37479266D01*
X10462811Y37496535D01*
X10484286Y37521318D01*
X10549002Y37596004D01*
X10571198Y37644606D01*
X10603675Y37715723D01*
X10603674Y37715723D01*
X10603676Y37715725D01*
X10622407Y37846000D01*
X10603676Y37976275D01*
X10596909Y37991093D01*
X10549003Y38095995D01*
X10462811Y38195466D01*
X10352091Y38266620D01*
X10225807Y38303700D01*
X10094193Y38303700D01*
X9967908Y38266620D01*
X9857188Y38195466D01*
X9770996Y38095995D01*
X9735132Y38017461D01*
X9699049Y37980800D01*
X9666728Y37973500D01*
X8695009Y37973500D01*
X8646671Y37991093D01*
X8620951Y38035642D01*
X8629884Y38086300D01*
X8654354Y38111963D01*
X8660706Y38116045D01*
X8684812Y38131536D01*
X8695782Y38144198D01*
X8705728Y38153744D01*
X8717962Y38163500D01*
X8721308Y38166168D01*
X8742806Y38197702D01*
X8748084Y38204558D01*
X8771002Y38231004D01*
X8779480Y38249571D01*
X8785748Y38260687D01*
X8799031Y38280168D01*
X8809206Y38313159D01*
X8812657Y38322219D01*
X8825676Y38350725D01*
X8829098Y38374534D01*
X8831674Y38385996D01*
X8834540Y38395287D01*
X8839700Y38412013D01*
X8839700Y38442884D01*
X8840465Y38453584D01*
X8844407Y38481000D01*
X8840465Y38508418D01*
X8839700Y38519119D01*
X8839700Y38608000D01*
X20022600Y38608000D01*
X20022600Y38101552D01*
X20032579Y38033058D01*
X20084234Y37927396D01*
X20167395Y37844235D01*
X20273057Y37792580D01*
X20341551Y37782600D01*
X21728000Y37782600D01*
X21728000Y38608000D01*
X20022600Y38608000D01*
X8839700Y38608000D01*
X8839700Y38862000D01*
X20022600Y38862000D01*
X21728000Y38862000D01*
X21728000Y39687400D01*
X20341551Y39687400D01*
X20273057Y39677421D01*
X20167395Y39625766D01*
X20084234Y39542605D01*
X20032579Y39436943D01*
X20022600Y39368449D01*
X20022600Y38862000D01*
X8839700Y38862000D01*
X8839700Y51308000D01*
X20022600Y51308000D01*
X20022600Y50801552D01*
X20032579Y50733058D01*
X20084234Y50627396D01*
X20167395Y50544235D01*
X20273057Y50492580D01*
X20341551Y50482600D01*
X21728000Y50482600D01*
X21728000Y51308000D01*
X20022600Y51308000D01*
X8839700Y51308000D01*
X8839700Y51562000D01*
X20022600Y51562000D01*
X21728000Y51562000D01*
X21728000Y52387400D01*
X20341551Y52387400D01*
X20273057Y52377421D01*
X20167395Y52325766D01*
X20084234Y52242605D01*
X20032579Y52136943D01*
X20022600Y52068449D01*
X20022600Y51562000D01*
X8839700Y51562000D01*
X8839700Y53246267D01*
X8857293Y53294605D01*
X8861726Y53299441D01*
X9390962Y53828677D01*
X9935131Y54372847D01*
X9947643Y54382929D01*
X9954812Y54387536D01*
X9985464Y54422913D01*
X9989095Y54426812D01*
X9999897Y54437612D01*
X10007892Y54448447D01*
X10011545Y54453011D01*
X10041002Y54487004D01*
X10045302Y54496423D01*
X10053200Y54509837D01*
X10061230Y54520715D01*
X10075931Y54562734D01*
X10078499Y54569115D01*
X10095676Y54606725D01*
X10097670Y54620597D01*
X10101125Y54634730D01*
X10106799Y54650945D01*
X10106798Y54650945D01*
X10106800Y54650947D01*
X10108328Y54691818D01*
X10109038Y54699664D01*
X10114407Y54737000D01*
X15285593Y54737000D01*
X15300297Y54634730D01*
X15304324Y54606723D01*
X15358996Y54487006D01*
X15445188Y54387535D01*
X15526759Y54335114D01*
X15555909Y54316380D01*
X15682193Y54279300D01*
X15814634Y54279300D01*
X15862972Y54261707D01*
X15867808Y54257274D01*
X16795858Y53329225D01*
X16817598Y53282605D01*
X16817119Y53265351D01*
X16809593Y53213002D01*
X16809593Y53213000D01*
X16815021Y53175251D01*
X16828324Y53082723D01*
X16882996Y52963006D01*
X16969188Y52863535D01*
X17050759Y52811114D01*
X17079909Y52792380D01*
X17206193Y52755300D01*
X17337807Y52755300D01*
X17464091Y52792380D01*
X17545662Y52844803D01*
X17574811Y52863535D01*
X17646889Y52946717D01*
X17661002Y52963004D01*
X17715676Y53082725D01*
X17734407Y53213000D01*
X17715676Y53343275D01*
X17715675Y53343278D01*
X17661003Y53462995D01*
X17574811Y53562466D01*
X17464091Y53633620D01*
X17337807Y53670700D01*
X17206193Y53670700D01*
X17205365Y53670700D01*
X17157027Y53688293D01*
X17152191Y53692726D01*
X16925189Y53919728D01*
X20022100Y53919728D01*
X20032209Y53806023D01*
X20076547Y53651070D01*
X20085524Y53619696D01*
X20175250Y53447924D01*
X20297722Y53297723D01*
X20447923Y53175251D01*
X20619695Y53085525D01*
X20619699Y53085523D01*
X20806023Y53032209D01*
X20919728Y53022100D01*
X20921386Y53022100D01*
X22788614Y53022100D01*
X22790272Y53022100D01*
X22903977Y53032209D01*
X23090301Y53085523D01*
X23262078Y53175252D01*
X23412277Y53297723D01*
X23534748Y53447922D01*
X23624477Y53619699D01*
X23677791Y53806023D01*
X23687900Y53919728D01*
X23687900Y54030272D01*
X23677791Y54143977D01*
X23624477Y54330301D01*
X23624475Y54330305D01*
X23534749Y54502077D01*
X23412277Y54652278D01*
X23262076Y54774750D01*
X23090304Y54864476D01*
X23090301Y54864477D01*
X22903977Y54917791D01*
X22864053Y54921341D01*
X22791916Y54927754D01*
X22791912Y54927755D01*
X22790272Y54927900D01*
X20919728Y54927900D01*
X20918088Y54927755D01*
X20918083Y54927754D01*
X20806023Y54917791D01*
X20619695Y54864476D01*
X20447923Y54774750D01*
X20297722Y54652278D01*
X20175250Y54502077D01*
X20085524Y54330305D01*
X20070930Y54279300D01*
X20032209Y54143977D01*
X20022100Y54030272D01*
X20022100Y53919728D01*
X16925189Y53919728D01*
X16224140Y54620778D01*
X16202400Y54667398D01*
X16202880Y54684655D01*
X16210407Y54737000D01*
X16191676Y54867275D01*
X16191675Y54867278D01*
X16137003Y54986995D01*
X16050811Y55086466D01*
X15940091Y55157620D01*
X15813807Y55194700D01*
X15682193Y55194700D01*
X15555908Y55157620D01*
X15445188Y55086466D01*
X15358996Y54986995D01*
X15304324Y54867278D01*
X15299475Y54833553D01*
X15285593Y54737000D01*
X10114407Y54737000D01*
X10111891Y54754491D01*
X10111179Y54768008D01*
X10111959Y54788823D01*
X10111959Y54788824D01*
X10102317Y54824805D01*
X10100525Y54833542D01*
X10095676Y54867275D01*
X10086815Y54886676D01*
X10082586Y54898444D01*
X10076249Y54922098D01*
X10058373Y54950548D01*
X10053643Y54959317D01*
X10041003Y54986995D01*
X10024655Y55005861D01*
X10017814Y55015098D01*
X10002843Y55038923D01*
X10002842Y55038925D01*
X9980123Y55058476D01*
X9972354Y55066219D01*
X9954812Y55086464D01*
X9930747Y55101930D01*
X9922353Y55108191D01*
X9920920Y55109424D01*
X9898262Y55128923D01*
X9898260Y55128925D01*
X9874140Y55139448D01*
X9863562Y55145107D01*
X9844091Y55157620D01*
X9844088Y55157621D01*
X9813145Y55166708D01*
X9804263Y55169935D01*
X9771799Y55184099D01*
X9749269Y55186638D01*
X9736512Y55189210D01*
X9717810Y55194700D01*
X9717807Y55194700D01*
X9681931Y55194700D01*
X9673511Y55195173D01*
X9634693Y55199547D01*
X9616006Y55196011D01*
X9602025Y55194700D01*
X9586191Y55194700D01*
X9548283Y55183570D01*
X9541081Y55181835D01*
X9499121Y55173895D01*
X9485541Y55166718D01*
X9471599Y55161054D01*
X9459911Y55157622D01*
X9423609Y55134293D01*
X9418096Y55131073D01*
X9377138Y55109425D01*
X9368864Y55101151D01*
X9356353Y55091069D01*
X9349187Y55086464D01*
X9318549Y55051107D01*
X9314892Y55047180D01*
X8079525Y53811812D01*
X8073238Y53806193D01*
X8042692Y53781834D01*
X8011833Y53736571D01*
X7970067Y53706543D01*
X7918771Y53710388D01*
X7881947Y53746305D01*
X7874500Y53778933D01*
X7874500Y55235436D01*
X7892093Y55283774D01*
X7896515Y55288599D01*
X9067644Y56459728D01*
X20022100Y56459728D01*
X20022245Y56458088D01*
X20022246Y56458084D01*
X20032209Y56346024D01*
X20085524Y56159696D01*
X20175250Y55987924D01*
X20297722Y55837723D01*
X20447923Y55715251D01*
X20609727Y55630732D01*
X20619699Y55625523D01*
X20806023Y55572209D01*
X20919728Y55562100D01*
X20921386Y55562100D01*
X22788614Y55562100D01*
X22790272Y55562100D01*
X22903977Y55572209D01*
X23090301Y55625523D01*
X23262078Y55715252D01*
X23412277Y55837723D01*
X23534748Y55987922D01*
X23624477Y56159699D01*
X23677791Y56346023D01*
X23687900Y56459728D01*
X23687900Y56570272D01*
X23677791Y56683977D01*
X23624477Y56870301D01*
X23534748Y57042078D01*
X23523619Y57055727D01*
X23412277Y57192278D01*
X23262076Y57314750D01*
X23090304Y57404476D01*
X23090301Y57404477D01*
X22903977Y57457791D01*
X22864053Y57461341D01*
X22791916Y57467754D01*
X22791912Y57467755D01*
X22790272Y57467900D01*
X20919728Y57467900D01*
X20918088Y57467755D01*
X20918083Y57467754D01*
X20806023Y57457791D01*
X20619695Y57404476D01*
X20447923Y57314750D01*
X20297722Y57192278D01*
X20175250Y57042077D01*
X20085524Y56870305D01*
X20085522Y56870301D01*
X20085523Y56870301D01*
X20032209Y56683977D01*
X20022100Y56570272D01*
X20022100Y56459728D01*
X9067644Y56459728D01*
X10443998Y57836083D01*
X10455383Y57845428D01*
X10470484Y57855516D01*
X10526734Y57939699D01*
X10541500Y58013933D01*
X10541500Y58013934D01*
X10541815Y58015517D01*
X10542945Y58021197D01*
X10542945Y58021199D01*
X10543835Y58025675D01*
X10546486Y58039000D01*
X10542945Y58056803D01*
X10541500Y58071473D01*
X10541500Y60800533D01*
X10542945Y60815204D01*
X10546485Y60833000D01*
X10542945Y60850799D01*
X10542945Y60850803D01*
X10526734Y60932303D01*
X10470484Y61016485D01*
X10455390Y61026570D01*
X10443995Y61035922D01*
X10382140Y61097777D01*
X10360400Y61144397D01*
X10360880Y61161654D01*
X10362872Y61175507D01*
X10368407Y61214000D01*
X10349676Y61344275D01*
X10349675Y61344278D01*
X10295003Y61463995D01*
X10208811Y61563466D01*
X10098091Y61634620D01*
X9971807Y61671700D01*
X9840193Y61671700D01*
X9713908Y61634620D01*
X9603188Y61563466D01*
X9530532Y61479615D01*
X9485582Y61454606D01*
X9435071Y61464341D01*
X9402636Y61504266D01*
X9398500Y61528861D01*
X9398500Y61976000D01*
X12110593Y61976000D01*
X12129324Y61845723D01*
X12183996Y61726006D01*
X12270188Y61626535D01*
X12380271Y61555790D01*
X12380909Y61555380D01*
X12507193Y61518300D01*
X12507194Y61518300D01*
X12513086Y61516570D01*
X12554509Y61486071D01*
X12567100Y61444416D01*
X12567100Y60166316D01*
X12581805Y60035806D01*
X12639702Y59870346D01*
X12731991Y59723468D01*
X12732967Y59721915D01*
X12856914Y59597968D01*
X12856916Y59597967D01*
X12856918Y59597965D01*
X13005346Y59504702D01*
X13170806Y59446805D01*
X13301316Y59432100D01*
X13303433Y59432100D01*
X14636567Y59432100D01*
X14638684Y59432100D01*
X14769194Y59446805D01*
X14934654Y59504702D01*
X15083082Y59597965D01*
X15207035Y59721918D01*
X15300298Y59870346D01*
X15358195Y60035806D01*
X15372900Y60166316D01*
X15372900Y61553684D01*
X15358195Y61684194D01*
X15300298Y61849654D01*
X15207035Y61998082D01*
X15207033Y61998084D01*
X15207032Y61998086D01*
X15083085Y62122033D01*
X15063008Y62134648D01*
X14934654Y62215298D01*
X14769194Y62273195D01*
X14719320Y62278815D01*
X14640789Y62287663D01*
X14640785Y62287664D01*
X14638684Y62287900D01*
X13301316Y62287900D01*
X13299215Y62287664D01*
X13299210Y62287663D01*
X13170806Y62273195D01*
X13027416Y62223021D01*
X12975980Y62223662D01*
X12945747Y62244755D01*
X12875811Y62325466D01*
X12765091Y62396620D01*
X12638807Y62433700D01*
X12507193Y62433700D01*
X12380908Y62396620D01*
X12270188Y62325466D01*
X12183996Y62225995D01*
X12129324Y62106278D01*
X12110593Y61976000D01*
X9398500Y61976000D01*
X9398500Y64135000D01*
X12311988Y64135000D01*
X12332401Y63875630D01*
X12393136Y63622650D01*
X12492702Y63382275D01*
X12628639Y63160449D01*
X12628641Y63160446D01*
X12682060Y63097900D01*
X12797608Y62962609D01*
X12905767Y62870234D01*
X12995446Y62793641D01*
X12995448Y62793640D01*
X13217274Y62657703D01*
X13217279Y62657701D01*
X13457646Y62558138D01*
X13457647Y62558138D01*
X13457649Y62558137D01*
X13710629Y62497402D01*
X13730695Y62495823D01*
X13905059Y62482100D01*
X13906539Y62482100D01*
X14033461Y62482100D01*
X14034941Y62482100D01*
X14229370Y62497402D01*
X14482354Y62558138D01*
X14722721Y62657701D01*
X14722722Y62657703D01*
X14722725Y62657703D01*
X14830251Y62723596D01*
X14944554Y62793641D01*
X15028105Y62865000D01*
X15477125Y62865000D01*
X15496971Y62663497D01*
X15555750Y62469733D01*
X15651196Y62291166D01*
X15779647Y62134648D01*
X15936165Y62006197D01*
X15992660Y61976000D01*
X16114736Y61910749D01*
X16308496Y61851972D01*
X16459497Y61837100D01*
X16461333Y61837100D01*
X16558667Y61837100D01*
X16560503Y61837100D01*
X16711504Y61851972D01*
X16905264Y61910749D01*
X17083834Y62006197D01*
X17240352Y62134648D01*
X17368803Y62291166D01*
X17464251Y62469736D01*
X17523028Y62663496D01*
X17542874Y62865000D01*
X17523028Y63066504D01*
X17464251Y63260264D01*
X17399035Y63382275D01*
X17368803Y63438835D01*
X17240352Y63595353D01*
X17083834Y63723804D01*
X16905267Y63819250D01*
X16711503Y63878029D01*
X16562329Y63892721D01*
X16562312Y63892722D01*
X16560503Y63892900D01*
X16459497Y63892900D01*
X16457688Y63892722D01*
X16457670Y63892721D01*
X16308496Y63878029D01*
X16114732Y63819250D01*
X15936165Y63723804D01*
X15779647Y63595353D01*
X15651196Y63438835D01*
X15555750Y63260268D01*
X15496971Y63066504D01*
X15477125Y62865000D01*
X15028105Y62865000D01*
X15142391Y62962609D01*
X15311359Y63160446D01*
X15447299Y63382279D01*
X15546862Y63622646D01*
X15607598Y63875630D01*
X15628011Y64135000D01*
X15607598Y64394370D01*
X15573753Y64535346D01*
X15546863Y64647351D01*
X15447297Y64887726D01*
X15311360Y65109552D01*
X15311359Y65109554D01*
X15218738Y65218000D01*
X20277600Y65218000D01*
X20277600Y64603914D01*
X20291199Y64535544D01*
X20343007Y64458008D01*
X20420543Y64406200D01*
X20488914Y64392600D01*
X20713000Y64392600D01*
X20713000Y65218000D01*
X20967000Y65218000D01*
X20967000Y64392600D01*
X21191086Y64392600D01*
X21259456Y64406200D01*
X21336992Y64458008D01*
X21388800Y64535544D01*
X21402400Y64603914D01*
X21402400Y65218000D01*
X20967000Y65218000D01*
X20713000Y65218000D01*
X20277600Y65218000D01*
X15218738Y65218000D01*
X15142391Y65307392D01*
X15015751Y65415551D01*
X14944554Y65476359D01*
X14944551Y65476361D01*
X14722725Y65612298D01*
X14482350Y65711864D01*
X14229370Y65772599D01*
X14036418Y65787784D01*
X14036411Y65787785D01*
X14034941Y65787900D01*
X13905059Y65787900D01*
X13903589Y65787785D01*
X13903581Y65787784D01*
X13710629Y65772599D01*
X13457649Y65711864D01*
X13217274Y65612298D01*
X12995448Y65476361D01*
X12797608Y65307392D01*
X12628639Y65109552D01*
X12492702Y64887726D01*
X12393136Y64647351D01*
X12332401Y64394371D01*
X12311988Y64135000D01*
X9398500Y64135000D01*
X9398500Y67797738D01*
X14357100Y67797738D01*
X14357448Y67795201D01*
X14357449Y67795197D01*
X14396854Y67508497D01*
X14396856Y67508487D01*
X14397204Y67505956D01*
X14476666Y67222353D01*
X14477685Y67220006D01*
X14477688Y67219999D01*
X14519824Y67122993D01*
X14594005Y66952211D01*
X14747035Y66700564D01*
X14748653Y66698575D01*
X14748656Y66698571D01*
X14822776Y66607465D01*
X14932906Y66472097D01*
X15148156Y66271069D01*
X15388774Y66101222D01*
X15650278Y65965721D01*
X15927797Y65867091D01*
X15930316Y65866568D01*
X15930318Y65866567D01*
X15962291Y65859923D01*
X16216162Y65807168D01*
X16436449Y65792100D01*
X16437722Y65792100D01*
X16582278Y65792100D01*
X16583551Y65792100D01*
X16803838Y65807168D01*
X17092203Y65867091D01*
X17369722Y65965721D01*
X17631226Y66101222D01*
X17871844Y66271069D01*
X18087094Y66472097D01*
X18272965Y66700564D01*
X18425995Y66952211D01*
X18543334Y67222353D01*
X18622796Y67505956D01*
X18662900Y67797738D01*
X18662900Y68092262D01*
X18622796Y68384044D01*
X18543334Y68667647D01*
X18425995Y68937789D01*
X18272965Y69189436D01*
X18254566Y69212051D01*
X18150729Y69339685D01*
X18087094Y69417903D01*
X17871844Y69618931D01*
X17631226Y69788778D01*
X17628950Y69789958D01*
X17628944Y69789961D01*
X17371994Y69923102D01*
X17371990Y69923104D01*
X17369722Y69924279D01*
X17367314Y69925135D01*
X17367309Y69925137D01*
X17094629Y70022047D01*
X17094626Y70022048D01*
X17092203Y70022909D01*
X17089693Y70023431D01*
X17089681Y70023434D01*
X16806351Y70082310D01*
X16806348Y70082311D01*
X16803838Y70082832D01*
X16801280Y70083007D01*
X16584816Y70097814D01*
X16584800Y70097815D01*
X16583551Y70097900D01*
X16436449Y70097900D01*
X16435200Y70097815D01*
X16435183Y70097814D01*
X16218719Y70083007D01*
X16218717Y70083007D01*
X16216162Y70082832D01*
X16213653Y70082311D01*
X16213648Y70082310D01*
X15930318Y70023434D01*
X15930302Y70023430D01*
X15927797Y70022909D01*
X15925377Y70022050D01*
X15925370Y70022047D01*
X15652690Y69925137D01*
X15652680Y69925133D01*
X15650278Y69924279D01*
X15648014Y69923107D01*
X15648005Y69923102D01*
X15391055Y69789961D01*
X15391043Y69789954D01*
X15388774Y69788778D01*
X15386679Y69787300D01*
X15386672Y69787295D01*
X15150259Y69620416D01*
X15150253Y69620412D01*
X15148156Y69618931D01*
X15146282Y69617182D01*
X15146276Y69617176D01*
X14934781Y69419655D01*
X14934774Y69419649D01*
X14932906Y69417903D01*
X14931293Y69415921D01*
X14931288Y69415915D01*
X14748656Y69191430D01*
X14748647Y69191419D01*
X14747035Y69189436D01*
X14745702Y69187245D01*
X14745697Y69187237D01*
X14595341Y68939987D01*
X14595337Y68939980D01*
X14594005Y68937789D01*
X14592982Y68935435D01*
X14592980Y68935430D01*
X14477688Y68670002D01*
X14477683Y68669991D01*
X14476666Y68667647D01*
X14475974Y68665181D01*
X14475973Y68665175D01*
X14472368Y68652306D01*
X14397204Y68384044D01*
X14396856Y68381517D01*
X14396854Y68381504D01*
X14357449Y68094804D01*
X14357100Y68092262D01*
X14357100Y67797738D01*
X9398500Y67797738D01*
X9398500Y70485000D01*
X9771988Y70485000D01*
X9792401Y70225630D01*
X9853136Y69972650D01*
X9952702Y69732275D01*
X10046535Y69579156D01*
X10088641Y69510446D01*
X10149449Y69439249D01*
X10257608Y69312609D01*
X10292821Y69282535D01*
X10455446Y69143641D01*
X10455448Y69143640D01*
X10677274Y69007703D01*
X10731726Y68985149D01*
X10917646Y68908138D01*
X10917647Y68908138D01*
X10917649Y68908137D01*
X11170629Y68847402D01*
X11190695Y68845823D01*
X11365059Y68832100D01*
X11366539Y68832100D01*
X11493461Y68832100D01*
X11494941Y68832100D01*
X11689370Y68847402D01*
X11822881Y68879455D01*
X11942350Y68908137D01*
X11942350Y68908138D01*
X11942354Y68908138D01*
X12182721Y69007701D01*
X12182722Y69007703D01*
X12182725Y69007703D01*
X12292438Y69074936D01*
X12404554Y69143641D01*
X12602391Y69312609D01*
X12771359Y69510446D01*
X12904068Y69727006D01*
X12907297Y69732275D01*
X12930087Y69787295D01*
X13006862Y69972646D01*
X13067598Y70225630D01*
X13088011Y70485000D01*
X13067598Y70744370D01*
X13006862Y70997354D01*
X12907299Y71237721D01*
X12907297Y71237726D01*
X12771360Y71459552D01*
X12771359Y71459554D01*
X12694766Y71549233D01*
X12602391Y71657392D01*
X12475751Y71765551D01*
X12404554Y71826359D01*
X12404551Y71826361D01*
X12182725Y71962298D01*
X11942350Y72061864D01*
X11689370Y72122599D01*
X11496418Y72137784D01*
X11496411Y72137785D01*
X11494941Y72137900D01*
X11365059Y72137900D01*
X11363589Y72137785D01*
X11363581Y72137784D01*
X11170629Y72122599D01*
X10917649Y72061864D01*
X10677274Y71962298D01*
X10455448Y71826361D01*
X10257608Y71657392D01*
X10088639Y71459552D01*
X9952702Y71237726D01*
X9853136Y70997351D01*
X9792401Y70744371D01*
X9771988Y70485000D01*
X9398500Y70485000D01*
X9398500Y71364435D01*
X9416093Y71412773D01*
X9420515Y71417598D01*
X10409173Y72406257D01*
X10455792Y72427996D01*
X10487178Y72424063D01*
X10630806Y72373805D01*
X10761316Y72359100D01*
X10763433Y72359100D01*
X12096567Y72359100D01*
X12098684Y72359100D01*
X12229194Y72373805D01*
X12394654Y72431702D01*
X12543082Y72524965D01*
X12667035Y72648918D01*
X12760298Y72797346D01*
X12818195Y72962806D01*
X12825203Y73025000D01*
X15477125Y73025000D01*
X15496971Y72823497D01*
X15555750Y72629733D01*
X15651196Y72451166D01*
X15779647Y72294648D01*
X15936165Y72166197D01*
X16114732Y72070751D01*
X16114736Y72070749D01*
X16308496Y72011972D01*
X16459497Y71997100D01*
X16461333Y71997100D01*
X16558667Y71997100D01*
X16560503Y71997100D01*
X16711504Y72011972D01*
X16905264Y72070749D01*
X17083834Y72166197D01*
X17240352Y72294648D01*
X17368803Y72451166D01*
X17464251Y72629736D01*
X17523028Y72823496D01*
X17542874Y73025000D01*
X17523028Y73226504D01*
X17464251Y73420264D01*
X17401852Y73537004D01*
X17368803Y73598835D01*
X17240352Y73755353D01*
X17083834Y73883804D01*
X16905267Y73979250D01*
X16711503Y74038029D01*
X16562329Y74052721D01*
X16562312Y74052722D01*
X16560503Y74052900D01*
X16459497Y74052900D01*
X16457688Y74052722D01*
X16457670Y74052721D01*
X16308496Y74038029D01*
X16114732Y73979250D01*
X15936165Y73883804D01*
X15779647Y73755353D01*
X15651196Y73598835D01*
X15555750Y73420268D01*
X15496971Y73226504D01*
X15477125Y73025000D01*
X12825203Y73025000D01*
X12832900Y73093316D01*
X12832900Y74480684D01*
X12818195Y74611194D01*
X12760298Y74776654D01*
X12752200Y74789542D01*
X12741381Y74839828D01*
X12763179Y74883195D01*
X13716000Y75819000D01*
X15344974Y77447974D01*
X15391594Y77469714D01*
X15398148Y77470000D01*
X15545300Y77470000D01*
X15593638Y77452407D01*
X15619358Y77407858D01*
X15620500Y77394800D01*
X15620500Y76867473D01*
X15619055Y76852803D01*
X15615514Y76835001D01*
X15635266Y76735699D01*
X15681428Y76666611D01*
X15681434Y76666604D01*
X15691515Y76651516D01*
X15706607Y76641432D01*
X15718002Y76632080D01*
X18773473Y73576609D01*
X18795213Y73529989D01*
X18795499Y73523435D01*
X18795500Y72930473D01*
X18794055Y72915803D01*
X18790514Y72898001D01*
X18810266Y72798699D01*
X18856428Y72729611D01*
X18856434Y72729604D01*
X18866515Y72714516D01*
X18881607Y72704432D01*
X18893002Y72695080D01*
X20255074Y71333008D01*
X20276814Y71286388D01*
X20277100Y71279834D01*
X20277100Y70092295D01*
X20259507Y70043957D01*
X20224958Y70023687D01*
X20225676Y70021993D01*
X20060257Y69951906D01*
X19919887Y69853143D01*
X19803479Y69727006D01*
X19716276Y69579173D01*
X19662190Y69416277D01*
X19643653Y69245643D01*
X19661497Y69074940D01*
X19714921Y68911823D01*
X19727725Y68889840D01*
X19727940Y68889289D01*
X19756441Y68840525D01*
X19759529Y68834665D01*
X19769907Y68812666D01*
X19774479Y68800242D01*
X19779968Y68779978D01*
X19782291Y68766944D01*
X19784407Y68743026D01*
X19784700Y68736399D01*
X19784700Y67210367D01*
X19784694Y67210327D01*
X19784699Y67153838D01*
X19784408Y67147220D01*
X19782270Y67122993D01*
X19779949Y67109955D01*
X19774467Y67089703D01*
X19769896Y67077278D01*
X19759633Y67055514D01*
X19756547Y67049653D01*
X19727985Y67000766D01*
X19727706Y67000052D01*
X19714957Y66978162D01*
X19714956Y66978160D01*
X19714956Y66978159D01*
X19661539Y66815061D01*
X19661535Y66815050D01*
X19643692Y66644357D01*
X19662228Y66473731D01*
X19716312Y66310843D01*
X19803512Y66163014D01*
X19861629Y66100040D01*
X19919910Y66036888D01*
X20019385Y65966899D01*
X20060276Y65938128D01*
X20060277Y65938128D01*
X20060278Y65938127D01*
X20218308Y65871171D01*
X20218311Y65871171D01*
X20225688Y65868045D01*
X20225007Y65866439D01*
X20260669Y65845185D01*
X20277599Y65797650D01*
X20277600Y65472000D01*
X21402400Y65472000D01*
X21402400Y65864501D01*
X21419993Y65912839D01*
X21464542Y65938559D01*
X21477600Y65939701D01*
X21701900Y65939701D01*
X21750238Y65922108D01*
X21775958Y65877559D01*
X21777100Y65864501D01*
X21777100Y64618638D01*
X21759507Y64570300D01*
X21758732Y64569392D01*
X21708996Y64511995D01*
X21654324Y64392278D01*
X21635593Y64262000D01*
X21654324Y64131723D01*
X21708996Y64012006D01*
X21795188Y63912535D01*
X21876759Y63860114D01*
X21905909Y63841380D01*
X22032193Y63804300D01*
X22163807Y63804300D01*
X22290091Y63841380D01*
X22390746Y63906067D01*
X22400811Y63912535D01*
X22464831Y63986418D01*
X22487002Y64012004D01*
X22541676Y64131725D01*
X22560407Y64262000D01*
X22554052Y64306199D01*
X22564588Y64356548D01*
X22605023Y64388346D01*
X22628487Y64392100D01*
X22691137Y64392100D01*
X22759654Y64405729D01*
X22837353Y64457647D01*
X22889271Y64535346D01*
X22902900Y64603864D01*
X22902900Y65797706D01*
X22920493Y65846044D01*
X22955042Y65866311D01*
X22954324Y65868007D01*
X23119742Y65938094D01*
X23122026Y65939701D01*
X23260116Y66036859D01*
X23376520Y66162993D01*
X23463724Y66310828D01*
X23517809Y66473722D01*
X23536346Y66644356D01*
X23518502Y66815064D01*
X23465079Y66978176D01*
X23465077Y66978180D01*
X23452395Y66999952D01*
X23452211Y67000428D01*
X23423584Y67049425D01*
X23420496Y67055289D01*
X23410128Y67077278D01*
X23410121Y67077292D01*
X23405554Y67089712D01*
X23400073Y67109963D01*
X23397753Y67122993D01*
X23395589Y67147502D01*
X23395299Y67154107D01*
X23395302Y67182513D01*
X23395304Y67198873D01*
X23395302Y67198877D01*
X23395304Y67210326D01*
X23395299Y67210366D01*
X23395299Y68678907D01*
X23395305Y68678951D01*
X23395303Y68691124D01*
X23395305Y68691127D01*
X23395300Y68736171D01*
X23395591Y68742782D01*
X23395613Y68743026D01*
X23397730Y68767016D01*
X23400047Y68780033D01*
X23405536Y68800310D01*
X23410097Y68812710D01*
X23420342Y68834439D01*
X23423480Y68840385D01*
X23437023Y68863482D01*
X23437543Y68864466D01*
X23446301Y68879455D01*
X23446301Y68879459D01*
X23452086Y68889359D01*
X23452367Y68890081D01*
X23465043Y68911842D01*
X23518463Y69074946D01*
X23536306Y69245645D01*
X23517770Y69416270D01*
X23463687Y69579156D01*
X23376488Y69726983D01*
X23376487Y69726985D01*
X23318368Y69789961D01*
X23260090Y69853111D01*
X23219473Y69881688D01*
X23119722Y69951872D01*
X22954313Y70021955D01*
X22955060Y70023721D01*
X22919822Y70044729D01*
X22902900Y70092255D01*
X22902900Y71286137D01*
X22889271Y71354655D01*
X22837353Y71432354D01*
X22759654Y71484272D01*
X22691137Y71497900D01*
X22691136Y71497900D01*
X22365166Y71497900D01*
X22316828Y71515493D01*
X22311992Y71519926D01*
X20288140Y73543778D01*
X20266400Y73590398D01*
X20266880Y73607655D01*
X20274407Y73660000D01*
X20255676Y73790275D01*
X20255675Y73790278D01*
X20201003Y73909995D01*
X20114811Y74009466D01*
X20004091Y74080620D01*
X19877807Y74117700D01*
X19746193Y74117700D01*
X19619908Y74080620D01*
X19509188Y74009466D01*
X19422996Y73909995D01*
X19384030Y73824669D01*
X19347947Y73788008D01*
X19296740Y73783118D01*
X19254370Y73812288D01*
X19253099Y73814130D01*
X19243571Y73828390D01*
X19243566Y73828396D01*
X19233484Y73843485D01*
X19218393Y73853568D01*
X19206998Y73862920D01*
X16151526Y76918393D01*
X16129786Y76965013D01*
X16129500Y76971567D01*
X16129500Y77394800D01*
X16147093Y77443138D01*
X16191642Y77468858D01*
X16204700Y77470000D01*
X16510000Y77470000D01*
X16510000Y78768658D01*
X16527593Y78816996D01*
X16532025Y78821832D01*
X16792014Y79081823D01*
X16784024Y79052000D01*
X16805162Y78973112D01*
X16862912Y78915362D01*
X16921737Y78899600D01*
X16961863Y78899600D01*
X16971616Y78902214D01*
X16717347Y78647945D01*
X16723749Y78643220D01*
X16733963Y78639646D01*
X16749795Y78631921D01*
X16749922Y78631839D01*
X16787533Y78620796D01*
X16791186Y78619622D01*
X16853841Y78597698D01*
X16864779Y78596672D01*
X16874530Y78594800D01*
X17038662Y78594800D01*
X17038685Y78594801D01*
X17718000Y78594801D01*
X17718000Y78978942D01*
X17719562Y78973112D01*
X17777312Y78915362D01*
X17836137Y78899600D01*
X17876263Y78899600D01*
X17935088Y78915362D01*
X17972000Y78952274D01*
X17972000Y78594801D01*
X18670203Y78594801D01*
X18670211Y78594800D01*
X18813221Y78594800D01*
X18820830Y78596261D01*
X18836157Y78597697D01*
X18914462Y78625098D01*
X18918116Y78626272D01*
X18939835Y78632649D01*
X18949450Y78637340D01*
X18966248Y78643218D01*
X18970924Y78646670D01*
X18970925Y78646671D01*
X18715382Y78902214D01*
X18725137Y78899600D01*
X18765263Y78899600D01*
X18824088Y78915362D01*
X18881838Y78973112D01*
X18902976Y79052000D01*
X18894986Y79081818D01*
X19151283Y78825521D01*
X19158983Y78835953D01*
X19204502Y78966039D01*
X19207235Y78995184D01*
X19207400Y78998704D01*
X19207400Y79255200D01*
X17972000Y79255200D01*
X17972000Y79151727D01*
X17935088Y79188638D01*
X17876263Y79204400D01*
X17836137Y79204400D01*
X17777312Y79188638D01*
X17719562Y79130888D01*
X17718000Y79125059D01*
X17718000Y79434000D01*
X17735593Y79482338D01*
X17780142Y79508058D01*
X17793200Y79509200D01*
X19207399Y79509200D01*
X19207399Y80195001D01*
X20777154Y80195001D01*
X20796901Y79956694D01*
X20855603Y79724884D01*
X20911908Y79596522D01*
X20951658Y79505902D01*
X21082447Y79305715D01*
X21082448Y79305714D01*
X21244401Y79129786D01*
X21433105Y78982912D01*
X21643407Y78869102D01*
X21869573Y78791459D01*
X22105437Y78752100D01*
X22105438Y78752100D01*
X22344563Y78752100D01*
X22580426Y78791459D01*
X22710027Y78835951D01*
X22806593Y78869102D01*
X23016896Y78982913D01*
X23205599Y79129786D01*
X23367553Y79305715D01*
X23498342Y79505902D01*
X23594397Y79724885D01*
X23653098Y79956693D01*
X23672845Y80195000D01*
X23653098Y80433307D01*
X23594397Y80665115D01*
X23498342Y80884098D01*
X23367553Y81084285D01*
X23205599Y81260214D01*
X23205598Y81260215D01*
X23016894Y81407089D01*
X22806592Y81520899D01*
X22580426Y81598542D01*
X22344563Y81637900D01*
X22344562Y81637900D01*
X22105438Y81637900D01*
X22105437Y81637900D01*
X21869573Y81598542D01*
X21643407Y81520899D01*
X21433105Y81407089D01*
X21244401Y81260215D01*
X21082448Y81084287D01*
X20951656Y80884095D01*
X20855603Y80665117D01*
X20796901Y80433307D01*
X20777154Y80195001D01*
X19207399Y80195001D01*
X19207399Y81788000D01*
X17793200Y81788000D01*
X17744862Y81805593D01*
X17719142Y81850142D01*
X17718000Y81863200D01*
X17718000Y81966800D01*
X17735593Y82015138D01*
X17780142Y82040858D01*
X17793200Y82042000D01*
X26656800Y82042000D01*
X26705138Y82024407D01*
G37*
%TD.AperFunction*%
%TA.AperFunction,Conductor*%
G36*
X3821021Y40508366D02*
G01*
X3846112Y40463461D01*
X3838199Y40415997D01*
X3814374Y40371425D01*
X3759887Y40191803D01*
X3741488Y40005000D01*
X3759886Y39818200D01*
X3770131Y39784430D01*
X3767327Y39733066D01*
X3732163Y39695522D01*
X3698169Y39687400D01*
X2402000Y39687400D01*
X2402000Y38862000D01*
X4107400Y38862000D01*
X4107400Y39115271D01*
X4124993Y39163609D01*
X4169542Y39189329D01*
X4218049Y39181591D01*
X4251691Y39163609D01*
X4332576Y39120375D01*
X4512199Y39065887D01*
X4699000Y39047489D01*
X4885801Y39065887D01*
X5065424Y39120375D01*
X5230965Y39208859D01*
X5375593Y39327552D01*
X5424121Y39344617D01*
X5472263Y39326497D01*
X5497496Y39281670D01*
X5498500Y39269421D01*
X5498500Y38116045D01*
X5480907Y38067707D01*
X5476474Y38062871D01*
X5057022Y37643420D01*
X5026641Y37703045D01*
X4937045Y37792641D01*
X4877417Y37823024D01*
X5277059Y38222665D01*
X5230682Y38260725D01*
X5065232Y38349160D01*
X4885703Y38403619D01*
X4698999Y38422009D01*
X4512296Y38403619D01*
X4332771Y38349161D01*
X4218049Y38287841D01*
X4167125Y38280571D01*
X4123443Y38307735D01*
X4107400Y38354162D01*
X4107400Y38608000D01*
X2402000Y38608000D01*
X2402000Y37782600D01*
X3698692Y37782600D01*
X3747030Y37765007D01*
X3772750Y37720458D01*
X3770654Y37685571D01*
X3760381Y37651705D01*
X3741991Y37465000D01*
X3760381Y37278297D01*
X3814840Y37098768D01*
X3839205Y37053185D01*
X3846476Y37002262D01*
X3819312Y36958579D01*
X3770425Y36942576D01*
X3725364Y36959454D01*
X3682076Y36994750D01*
X3510304Y37084476D01*
X3460356Y37098768D01*
X3323977Y37137791D01*
X3284053Y37141341D01*
X3211916Y37147754D01*
X3211912Y37147755D01*
X3210272Y37147900D01*
X1777900Y37147900D01*
X1729562Y37165493D01*
X1703842Y37210042D01*
X1702700Y37222917D01*
X1702004Y37508134D01*
X1701518Y37707217D01*
X1718995Y37755597D01*
X1763480Y37781425D01*
X1776719Y37782600D01*
X2148000Y37782600D01*
X2148000Y39687400D01*
X1771706Y39687400D01*
X1723368Y39704993D01*
X1697648Y39749542D01*
X1696506Y39762417D01*
X1696452Y39784430D01*
X1695325Y40246718D01*
X1712801Y40295097D01*
X1757286Y40320925D01*
X1770525Y40322100D01*
X3208614Y40322100D01*
X3210272Y40322100D01*
X3323977Y40332209D01*
X3510301Y40385523D01*
X3682078Y40475252D01*
X3724358Y40509728D01*
X3772935Y40526638D01*
X3821021Y40508366D01*
G37*
%TD.AperFunction*%
%TA.AperFunction,Conductor*%
G36*
X5476474Y36867130D02*
G01*
X5498214Y36820510D01*
X5498500Y36813956D01*
X5498500Y35241676D01*
X5480907Y35193338D01*
X5436358Y35167618D01*
X5385700Y35176551D01*
X5352635Y35215956D01*
X5351338Y35219846D01*
X5344716Y35241676D01*
X5329625Y35291424D01*
X5241141Y35456965D01*
X5188905Y35520615D01*
X5122063Y35602064D01*
X5022815Y35683513D01*
X4976965Y35721141D01*
X4976963Y35721142D01*
X4976962Y35721143D01*
X4811425Y35809625D01*
X4631802Y35864113D01*
X4444999Y35882512D01*
X4258197Y35864113D01*
X4163917Y35835514D01*
X4112553Y35838319D01*
X4075010Y35873483D01*
X4068853Y35924553D01*
X4069790Y35928163D01*
X4097790Y36026019D01*
X4097790Y36026020D01*
X4097791Y36026023D01*
X4107900Y36139728D01*
X4107900Y36250272D01*
X4097791Y36363977D01*
X4044477Y36550301D01*
X4014318Y36608038D01*
X4007532Y36659028D01*
X4035109Y36702451D01*
X4084146Y36717988D01*
X4128678Y36700985D01*
X4167314Y36669277D01*
X4332767Y36580841D01*
X4512296Y36526382D01*
X4699000Y36507992D01*
X4885703Y36526382D01*
X5065232Y36580841D01*
X5230682Y36669276D01*
X5277059Y36707337D01*
X4877418Y37106978D01*
X4937045Y37137359D01*
X5026641Y37226955D01*
X5057022Y37286582D01*
X5476474Y36867130D01*
G37*
%TD.AperFunction*%
%TA.AperFunction,Conductor*%
G36*
X5458230Y58402407D02*
G01*
X5483950Y58357858D01*
X5483647Y58330129D01*
X5481413Y58318899D01*
X5484954Y58301098D01*
X5486399Y58286427D01*
X5486399Y45441567D01*
X5468806Y45393229D01*
X5424257Y45367509D01*
X5373599Y45376442D01*
X5340534Y45415847D01*
X5339237Y45419738D01*
X5336404Y45429075D01*
X5329625Y45451424D01*
X5241141Y45616965D01*
X5188905Y45680615D01*
X5122063Y45762064D01*
X5022815Y45843513D01*
X4976965Y45881141D01*
X4976963Y45881142D01*
X4976962Y45881143D01*
X4811425Y45969625D01*
X4631802Y46024113D01*
X4445000Y46042512D01*
X4258197Y46024113D01*
X4163917Y45995514D01*
X4112553Y45998319D01*
X4075010Y46033483D01*
X4068853Y46084553D01*
X4069790Y46088163D01*
X4097790Y46186019D01*
X4097790Y46186020D01*
X4097791Y46186023D01*
X4107900Y46299728D01*
X4107900Y46410272D01*
X4097791Y46523977D01*
X4044477Y46710301D01*
X3954748Y46882078D01*
X3832277Y47032278D01*
X3682076Y47154750D01*
X3510304Y47244476D01*
X3510301Y47244477D01*
X3323977Y47297791D01*
X3284053Y47301341D01*
X3211916Y47307754D01*
X3211912Y47307755D01*
X3210272Y47307900D01*
X1753120Y47307900D01*
X1704782Y47325493D01*
X1679062Y47370042D01*
X1677920Y47382917D01*
X1676740Y47866717D01*
X1694216Y47915097D01*
X1738701Y47940925D01*
X1751940Y47942100D01*
X3208614Y47942100D01*
X3210272Y47942100D01*
X3323977Y47952209D01*
X3510301Y48005523D01*
X3682078Y48095252D01*
X3832277Y48217723D01*
X3954748Y48367922D01*
X4044477Y48539699D01*
X4097791Y48726023D01*
X4107900Y48839728D01*
X4107900Y48950272D01*
X4097791Y49063977D01*
X4044477Y49250301D01*
X3954748Y49422078D01*
X3832277Y49572278D01*
X3682076Y49694750D01*
X3510304Y49784476D01*
X3510301Y49784477D01*
X3323977Y49837791D01*
X3284053Y49841341D01*
X3211916Y49847754D01*
X3211912Y49847755D01*
X3210272Y49847900D01*
X1746925Y49847900D01*
X1698587Y49865493D01*
X1672867Y49910042D01*
X1671725Y49922917D01*
X1670544Y50407217D01*
X1688020Y50455597D01*
X1732505Y50481425D01*
X1745744Y50482600D01*
X2148000Y50482600D01*
X2148000Y51308000D01*
X2402000Y51308000D01*
X2402000Y50482600D01*
X3788449Y50482600D01*
X3856942Y50492580D01*
X3962604Y50544235D01*
X4045765Y50627396D01*
X4097420Y50733058D01*
X4107400Y50801552D01*
X4107400Y51308000D01*
X2402000Y51308000D01*
X2148000Y51308000D01*
X2148000Y52387400D01*
X2402000Y52387400D01*
X2402000Y51562000D01*
X4107400Y51562000D01*
X4107400Y52068449D01*
X4097420Y52136943D01*
X4045765Y52242605D01*
X3962604Y52325766D01*
X3856942Y52377421D01*
X3788449Y52387400D01*
X2402000Y52387400D01*
X2148000Y52387400D01*
X1740731Y52387400D01*
X1692393Y52404993D01*
X1666673Y52449542D01*
X1665531Y52462417D01*
X1664350Y52946717D01*
X1681826Y52995097D01*
X1726311Y53020925D01*
X1739550Y53022100D01*
X3208614Y53022100D01*
X3210272Y53022100D01*
X3323977Y53032209D01*
X3510301Y53085523D01*
X3682078Y53175252D01*
X3832277Y53297723D01*
X3954748Y53447922D01*
X4044477Y53619699D01*
X4097791Y53806023D01*
X4107900Y53919728D01*
X4107900Y54030272D01*
X4097791Y54143977D01*
X4044477Y54330301D01*
X4044475Y54330305D01*
X3954749Y54502077D01*
X3832277Y54652278D01*
X3682076Y54774750D01*
X3510304Y54864476D01*
X3510301Y54864477D01*
X3323977Y54917791D01*
X3284053Y54921341D01*
X3211916Y54927754D01*
X3211912Y54927755D01*
X3210272Y54927900D01*
X1734535Y54927900D01*
X1686197Y54945493D01*
X1660477Y54990042D01*
X1659335Y55002917D01*
X1658155Y55486717D01*
X1675631Y55535097D01*
X1720116Y55560925D01*
X1733355Y55562100D01*
X3208614Y55562100D01*
X3210272Y55562100D01*
X3323977Y55572209D01*
X3510301Y55625523D01*
X3682078Y55715252D01*
X3832277Y55837723D01*
X3954748Y55987922D01*
X4044477Y56159699D01*
X4097791Y56346023D01*
X4107900Y56459728D01*
X4107900Y56570272D01*
X4097791Y56683977D01*
X4044477Y56870301D01*
X3954748Y57042078D01*
X3943619Y57055727D01*
X3832277Y57192278D01*
X3682076Y57314750D01*
X3510304Y57404476D01*
X3510301Y57404477D01*
X3323977Y57457791D01*
X3284053Y57461341D01*
X3211916Y57467754D01*
X3211912Y57467755D01*
X3210272Y57467900D01*
X1728339Y57467900D01*
X1680001Y57485493D01*
X1654281Y57530042D01*
X1653139Y57542917D01*
X1651184Y58344617D01*
X1668660Y58392997D01*
X1713145Y58418825D01*
X1726384Y58420000D01*
X5409892Y58420000D01*
X5458230Y58402407D01*
G37*
%TD.AperFunction*%
%TD*%
M02*
