M48
; DRILL file {KiCad 7.0.2-0} date 2023 July 09, Sunday 23:01:52
; FORMAT={-:-/ absolute / metric / decimal}
; #@! TF.CreationDate,2023-07-09T23:01:52-07:00
; #@! TF.GenerationSoftware,Kicad,Pcbnew,7.0.2-0
; #@! TF.FileFunction,Plated,1,2,PTH
FMAT,2
METRIC
; #@! TA.AperFunction,Plated,PTH,ViaDrill
T1C0.305
; #@! TA.AperFunction,Plated,PTH,ComponentDrill
T2C0.305
; #@! TA.AperFunction,Plated,PTH,ComponentDrill
T3C0.762
; #@! TA.AperFunction,Plated,PTH,ComponentDrill
T4C0.800
; #@! TA.AperFunction,Plated,PTH,ComponentDrill
T5C0.900
%
G90
G05
T1
X5.08Y77.343
X5.08Y73.787
X5.08Y70.358
X5.08Y66.802
X6.413Y38.163
X6.985Y36.576
X7.034Y44.143
X7.112Y43.18
X7.112Y39.624
X7.747Y61.214
X8.382Y38.481
X9.271Y46.101
X9.271Y34.29
X9.271Y30.48
X9.271Y27.94
X9.271Y19.05
X9.271Y15.24
X9.652Y58.42
X9.652Y54.737
X9.906Y68.326
X9.906Y62.611
X9.906Y61.214
X10.16Y37.846
X11.557Y34.163
X11.811Y60.071
X11.811Y59.309
X12.065Y31.623
X12.573Y61.976
X14.605Y91.44
X15.367Y31.623
X15.748Y54.737
X15.748Y32.512
X17.272Y53.213
X17.78Y24.511
X18.415Y54.737
X19.05Y76.2
X19.685Y75.565
X19.685Y59.055
X19.812Y73.66
X19.914Y38.71
X19.939Y71.12
X19.939Y70.231
X19.939Y65.659
X19.939Y64.77
X19.939Y44.577
X20.32Y74.93
X20.32Y59.69
X20.955Y74.295
X20.955Y60.325
X21.59Y73.66
X21.59Y60.96
X22.098Y64.262
X22.225Y73.025
X22.225Y62.865
X22.225Y61.595
X24.13Y55.88
X24.765Y56.515
X25.4Y57.15
X26.035Y57.785
X26.67Y58.42
X27.305Y76.835
X27.305Y75.565
X27.305Y74.295
X27.305Y73.025
X27.305Y71.755
X27.305Y70.485
X27.305Y69.215
X27.305Y67.945
X27.305Y66.675
X27.305Y65.405
X27.305Y64.135
X27.305Y62.865
X27.305Y61.595
X27.305Y60.325
X27.305Y59.055
T2
X16.942Y79.052
X17.856Y79.052
X18.745Y79.052
X25.705Y79.052
X26.594Y79.052
X27.508Y79.052
T3
X1.27Y56.515
X1.397Y53.975
X1.397Y51.435
X1.397Y48.895
X1.397Y46.355
X1.397Y43.815
X1.397Y41.275
X1.397Y38.735
X1.397Y36.195
X1.397Y33.655
X1.397Y31.115
X1.397Y28.575
X1.397Y26.035
X1.397Y23.495
X1.397Y20.955
X1.397Y18.415
X1.397Y15.875
X1.397Y13.335
X1.397Y10.795
X1.397Y8.255
X22.733Y56.515
X22.733Y53.975
X22.733Y51.435
X22.733Y48.895
X22.733Y46.355
X22.733Y43.815
X22.733Y41.275
X22.733Y38.735
X22.733Y36.195
X22.733Y33.655
X22.733Y31.115
X22.733Y28.575
X22.733Y26.035
X22.733Y23.495
X22.733Y20.955
X22.733Y18.415
X22.733Y15.875
X22.733Y13.335
X22.733Y10.795
X22.733Y8.255
T4
X4.445Y45.085
X4.445Y42.545
X4.445Y34.925
X4.445Y32.385
X4.445Y29.845
X4.445Y22.225
X4.445Y19.685
X4.445Y17.145
X4.445Y9.525
X4.445Y6.985
X4.699Y40.005
X4.699Y37.465
X4.699Y27.305
X4.699Y24.765
X4.699Y14.605
X4.699Y12.065
X19.431Y27.305
X19.431Y24.765
X19.431Y14.605
X19.431Y12.065
X19.685Y34.925
X19.685Y32.385
X19.685Y29.845
X19.685Y22.225
X19.685Y19.685
X19.685Y17.145
X19.685Y9.525
X19.685Y6.985
T5
X22.225Y80.195
T0
M30
