%TF.GenerationSoftware,KiCad,Pcbnew,7.0.2-0*%
%TF.CreationDate,2023-07-09T23:01:49-07:00*%
%TF.ProjectId,thumbs-down-hw,7468756d-6273-42d6-946f-776e2d68772e,rev?*%
%TF.SameCoordinates,PX80fd3d8PY8977a68*%
%TF.FileFunction,Legend,Bot*%
%TF.FilePolarity,Positive*%
%FSLAX46Y46*%
G04 Gerber Fmt 4.6, Leading zero omitted, Abs format (unit mm)*
G04 Created by KiCad (PCBNEW 7.0.2-0) date 2023-07-09 23:01:49*
%MOMM*%
%LPD*%
G01*
G04 APERTURE LIST*
%ADD10C,0.150000*%
%ADD11C,0.100000*%
%ADD12C,0.120000*%
G04 APERTURE END LIST*
D10*
%TO.C,D1*%
X22052619Y74398095D02*
X21052619Y74398095D01*
X21052619Y74398095D02*
X21052619Y74160000D01*
X21052619Y74160000D02*
X21100238Y74017143D01*
X21100238Y74017143D02*
X21195476Y73921905D01*
X21195476Y73921905D02*
X21290714Y73874286D01*
X21290714Y73874286D02*
X21481190Y73826667D01*
X21481190Y73826667D02*
X21624047Y73826667D01*
X21624047Y73826667D02*
X21814523Y73874286D01*
X21814523Y73874286D02*
X21909761Y73921905D01*
X21909761Y73921905D02*
X22005000Y74017143D01*
X22005000Y74017143D02*
X22052619Y74160000D01*
X22052619Y74160000D02*
X22052619Y74398095D01*
X22052619Y72874286D02*
X22052619Y73445714D01*
X22052619Y73160000D02*
X21052619Y73160000D01*
X21052619Y73160000D02*
X21195476Y73255238D01*
X21195476Y73255238D02*
X21290714Y73350476D01*
X21290714Y73350476D02*
X21338333Y73445714D01*
%TO.C,SW1*%
X8925000Y69278333D02*
X8972619Y69135476D01*
X8972619Y69135476D02*
X8972619Y68897381D01*
X8972619Y68897381D02*
X8925000Y68802143D01*
X8925000Y68802143D02*
X8877380Y68754524D01*
X8877380Y68754524D02*
X8782142Y68706905D01*
X8782142Y68706905D02*
X8686904Y68706905D01*
X8686904Y68706905D02*
X8591666Y68754524D01*
X8591666Y68754524D02*
X8544047Y68802143D01*
X8544047Y68802143D02*
X8496428Y68897381D01*
X8496428Y68897381D02*
X8448809Y69087857D01*
X8448809Y69087857D02*
X8401190Y69183095D01*
X8401190Y69183095D02*
X8353571Y69230714D01*
X8353571Y69230714D02*
X8258333Y69278333D01*
X8258333Y69278333D02*
X8163095Y69278333D01*
X8163095Y69278333D02*
X8067857Y69230714D01*
X8067857Y69230714D02*
X8020238Y69183095D01*
X8020238Y69183095D02*
X7972619Y69087857D01*
X7972619Y69087857D02*
X7972619Y68849762D01*
X7972619Y68849762D02*
X8020238Y68706905D01*
X7972619Y68373571D02*
X8972619Y68135476D01*
X8972619Y68135476D02*
X8258333Y67945000D01*
X8258333Y67945000D02*
X8972619Y67754524D01*
X8972619Y67754524D02*
X7972619Y67516428D01*
X8972619Y66611667D02*
X8972619Y67183095D01*
X8972619Y66897381D02*
X7972619Y66897381D01*
X7972619Y66897381D02*
X8115476Y66992619D01*
X8115476Y66992619D02*
X8210714Y67087857D01*
X8210714Y67087857D02*
X8258333Y67183095D01*
%TO.C,D3*%
X11257619Y95353095D02*
X10257619Y95353095D01*
X10257619Y95353095D02*
X10257619Y95115000D01*
X10257619Y95115000D02*
X10305238Y94972143D01*
X10305238Y94972143D02*
X10400476Y94876905D01*
X10400476Y94876905D02*
X10495714Y94829286D01*
X10495714Y94829286D02*
X10686190Y94781667D01*
X10686190Y94781667D02*
X10829047Y94781667D01*
X10829047Y94781667D02*
X11019523Y94829286D01*
X11019523Y94829286D02*
X11114761Y94876905D01*
X11114761Y94876905D02*
X11210000Y94972143D01*
X11210000Y94972143D02*
X11257619Y95115000D01*
X11257619Y95115000D02*
X11257619Y95353095D01*
X10257619Y94448333D02*
X10257619Y93829286D01*
X10257619Y93829286D02*
X10638571Y94162619D01*
X10638571Y94162619D02*
X10638571Y94019762D01*
X10638571Y94019762D02*
X10686190Y93924524D01*
X10686190Y93924524D02*
X10733809Y93876905D01*
X10733809Y93876905D02*
X10829047Y93829286D01*
X10829047Y93829286D02*
X11067142Y93829286D01*
X11067142Y93829286D02*
X11162380Y93876905D01*
X11162380Y93876905D02*
X11210000Y93924524D01*
X11210000Y93924524D02*
X11257619Y94019762D01*
X11257619Y94019762D02*
X11257619Y94305476D01*
X11257619Y94305476D02*
X11210000Y94400714D01*
X11210000Y94400714D02*
X11162380Y94448333D01*
%TO.C,SW3*%
X35000Y90233333D02*
X82619Y90090476D01*
X82619Y90090476D02*
X82619Y89852381D01*
X82619Y89852381D02*
X35000Y89757143D01*
X35000Y89757143D02*
X-12620Y89709524D01*
X-12620Y89709524D02*
X-107858Y89661905D01*
X-107858Y89661905D02*
X-203096Y89661905D01*
X-203096Y89661905D02*
X-298334Y89709524D01*
X-298334Y89709524D02*
X-345953Y89757143D01*
X-345953Y89757143D02*
X-393572Y89852381D01*
X-393572Y89852381D02*
X-441191Y90042857D01*
X-441191Y90042857D02*
X-488810Y90138095D01*
X-488810Y90138095D02*
X-536429Y90185714D01*
X-536429Y90185714D02*
X-631667Y90233333D01*
X-631667Y90233333D02*
X-726905Y90233333D01*
X-726905Y90233333D02*
X-822143Y90185714D01*
X-822143Y90185714D02*
X-869762Y90138095D01*
X-869762Y90138095D02*
X-917381Y90042857D01*
X-917381Y90042857D02*
X-917381Y89804762D01*
X-917381Y89804762D02*
X-869762Y89661905D01*
X-917381Y89328571D02*
X82619Y89090476D01*
X82619Y89090476D02*
X-631667Y88900000D01*
X-631667Y88900000D02*
X82619Y88709524D01*
X82619Y88709524D02*
X-917381Y88471428D01*
X-917381Y88185714D02*
X-917381Y87566667D01*
X-917381Y87566667D02*
X-536429Y87900000D01*
X-536429Y87900000D02*
X-536429Y87757143D01*
X-536429Y87757143D02*
X-488810Y87661905D01*
X-488810Y87661905D02*
X-441191Y87614286D01*
X-441191Y87614286D02*
X-345953Y87566667D01*
X-345953Y87566667D02*
X-107858Y87566667D01*
X-107858Y87566667D02*
X-12620Y87614286D01*
X-12620Y87614286D02*
X35000Y87661905D01*
X35000Y87661905D02*
X82619Y87757143D01*
X82619Y87757143D02*
X82619Y88042857D01*
X82619Y88042857D02*
X35000Y88138095D01*
X35000Y88138095D02*
X-12620Y88185714D01*
%TO.C,U1*%
X12826904Y32922381D02*
X12826904Y32112858D01*
X12826904Y32112858D02*
X12779285Y32017620D01*
X12779285Y32017620D02*
X12731666Y31970000D01*
X12731666Y31970000D02*
X12636428Y31922381D01*
X12636428Y31922381D02*
X12445952Y31922381D01*
X12445952Y31922381D02*
X12350714Y31970000D01*
X12350714Y31970000D02*
X12303095Y32017620D01*
X12303095Y32017620D02*
X12255476Y32112858D01*
X12255476Y32112858D02*
X12255476Y32922381D01*
X11255476Y31922381D02*
X11826904Y31922381D01*
X11541190Y31922381D02*
X11541190Y32922381D01*
X11541190Y32922381D02*
X11636428Y32779524D01*
X11636428Y32779524D02*
X11731666Y32684286D01*
X11731666Y32684286D02*
X11826904Y32636667D01*
X18403486Y22841616D02*
X18484298Y22814679D01*
X18484298Y22814679D02*
X18565110Y22733867D01*
X18565110Y22733867D02*
X18618985Y22626117D01*
X18618985Y22626117D02*
X18618985Y22518368D01*
X18618985Y22518368D02*
X18592048Y22437555D01*
X18592048Y22437555D02*
X18511235Y22302868D01*
X18511235Y22302868D02*
X18430423Y22222056D01*
X18430423Y22222056D02*
X18295736Y22141244D01*
X18295736Y22141244D02*
X18214924Y22114307D01*
X18214924Y22114307D02*
X18107174Y22114307D01*
X18107174Y22114307D02*
X17999425Y22168181D01*
X17999425Y22168181D02*
X17945550Y22222056D01*
X17945550Y22222056D02*
X17891675Y22329806D01*
X17891675Y22329806D02*
X17891675Y22383681D01*
X17891675Y22383681D02*
X18080237Y22572242D01*
X18080237Y22572242D02*
X18187987Y22464493D01*
X17595364Y22572242D02*
X18161049Y23137928D01*
X18161049Y23137928D02*
X17945550Y23353427D01*
X17945550Y23353427D02*
X17864738Y23380364D01*
X17864738Y23380364D02*
X17810863Y23380364D01*
X17810863Y23380364D02*
X17730051Y23353427D01*
X17730051Y23353427D02*
X17649239Y23272615D01*
X17649239Y23272615D02*
X17622301Y23191803D01*
X17622301Y23191803D02*
X17622301Y23137928D01*
X17622301Y23137928D02*
X17649239Y23057116D01*
X17649239Y23057116D02*
X17864738Y22841616D01*
X17568426Y23622801D02*
X17568426Y23676676D01*
X17568426Y23676676D02*
X17541489Y23757488D01*
X17541489Y23757488D02*
X17406802Y23892175D01*
X17406802Y23892175D02*
X17325990Y23919113D01*
X17325990Y23919113D02*
X17272115Y23919113D01*
X17272115Y23919113D02*
X17191303Y23892175D01*
X17191303Y23892175D02*
X17137428Y23838300D01*
X17137428Y23838300D02*
X17083553Y23730551D01*
X17083553Y23730551D02*
X17083553Y23084053D01*
X17083553Y23084053D02*
X16733367Y23434239D01*
X16733367Y24080737D02*
X16814179Y24053800D01*
X16814179Y24053800D02*
X16868054Y24053800D01*
X16868054Y24053800D02*
X16948866Y24080737D01*
X16948866Y24080737D02*
X16975803Y24107674D01*
X16975803Y24107674D02*
X17002741Y24188487D01*
X17002741Y24188487D02*
X17002741Y24242362D01*
X17002741Y24242362D02*
X16975803Y24323174D01*
X16975803Y24323174D02*
X16868054Y24430923D01*
X16868054Y24430923D02*
X16787242Y24457861D01*
X16787242Y24457861D02*
X16733367Y24457861D01*
X16733367Y24457861D02*
X16652555Y24430923D01*
X16652555Y24430923D02*
X16625617Y24403986D01*
X16625617Y24403986D02*
X16598680Y24323174D01*
X16598680Y24323174D02*
X16598680Y24269299D01*
X16598680Y24269299D02*
X16625617Y24188487D01*
X16625617Y24188487D02*
X16733367Y24080737D01*
X16733367Y24080737D02*
X16760304Y23999925D01*
X16760304Y23999925D02*
X16760304Y23946050D01*
X16760304Y23946050D02*
X16733367Y23865238D01*
X16733367Y23865238D02*
X16625617Y23757488D01*
X16625617Y23757488D02*
X16544805Y23730551D01*
X16544805Y23730551D02*
X16490930Y23730551D01*
X16490930Y23730551D02*
X16410118Y23757488D01*
X16410118Y23757488D02*
X16302368Y23865238D01*
X16302368Y23865238D02*
X16275431Y23946050D01*
X16275431Y23946050D02*
X16275431Y23999925D01*
X16275431Y23999925D02*
X16302368Y24080737D01*
X16302368Y24080737D02*
X16410118Y24188487D01*
X16410118Y24188487D02*
X16490930Y24215424D01*
X16490930Y24215424D02*
X16544805Y24215424D01*
X16544805Y24215424D02*
X16625617Y24188487D01*
X7285111Y28447991D02*
X7365924Y28421054D01*
X7365924Y28421054D02*
X7446736Y28340241D01*
X7446736Y28340241D02*
X7500611Y28232492D01*
X7500611Y28232492D02*
X7500611Y28124742D01*
X7500611Y28124742D02*
X7473673Y28043930D01*
X7473673Y28043930D02*
X7392861Y27909243D01*
X7392861Y27909243D02*
X7312049Y27828431D01*
X7312049Y27828431D02*
X7177362Y27747618D01*
X7177362Y27747618D02*
X7096550Y27720681D01*
X7096550Y27720681D02*
X6988800Y27720681D01*
X6988800Y27720681D02*
X6881050Y27774556D01*
X6881050Y27774556D02*
X6827176Y27828431D01*
X6827176Y27828431D02*
X6773301Y27936180D01*
X6773301Y27936180D02*
X6773301Y27990055D01*
X6773301Y27990055D02*
X6961863Y28178617D01*
X6961863Y28178617D02*
X7069612Y28070867D01*
X6476989Y28178617D02*
X7042675Y28744302D01*
X7042675Y28744302D02*
X6827176Y28959802D01*
X6827176Y28959802D02*
X6746363Y28986739D01*
X6746363Y28986739D02*
X6692489Y28986739D01*
X6692489Y28986739D02*
X6611676Y28959802D01*
X6611676Y28959802D02*
X6530864Y28878989D01*
X6530864Y28878989D02*
X6503927Y28798177D01*
X6503927Y28798177D02*
X6503927Y28744302D01*
X6503927Y28744302D02*
X6530864Y28663490D01*
X6530864Y28663490D02*
X6746363Y28447991D01*
X6234553Y29552424D02*
X6342302Y29444675D01*
X6342302Y29444675D02*
X6369240Y29363863D01*
X6369240Y29363863D02*
X6369240Y29309988D01*
X6369240Y29309988D02*
X6342302Y29175301D01*
X6342302Y29175301D02*
X6261490Y29040614D01*
X6261490Y29040614D02*
X6045991Y28825115D01*
X6045991Y28825115D02*
X5965179Y28798177D01*
X5965179Y28798177D02*
X5911304Y28798177D01*
X5911304Y28798177D02*
X5830492Y28825115D01*
X5830492Y28825115D02*
X5722742Y28932864D01*
X5722742Y28932864D02*
X5695805Y29013676D01*
X5695805Y29013676D02*
X5695805Y29067551D01*
X5695805Y29067551D02*
X5722742Y29148363D01*
X5722742Y29148363D02*
X5857429Y29283050D01*
X5857429Y29283050D02*
X5938241Y29309988D01*
X5938241Y29309988D02*
X5992116Y29309988D01*
X5992116Y29309988D02*
X6072928Y29283050D01*
X6072928Y29283050D02*
X6180678Y29175301D01*
X6180678Y29175301D02*
X6207615Y29094489D01*
X6207615Y29094489D02*
X6207615Y29040614D01*
X6207615Y29040614D02*
X6180678Y28959802D01*
X18403486Y40885616D02*
X18484298Y40858679D01*
X18484298Y40858679D02*
X18565110Y40777867D01*
X18565110Y40777867D02*
X18618985Y40670117D01*
X18618985Y40670117D02*
X18618985Y40562368D01*
X18618985Y40562368D02*
X18592048Y40481555D01*
X18592048Y40481555D02*
X18511235Y40346868D01*
X18511235Y40346868D02*
X18430423Y40266056D01*
X18430423Y40266056D02*
X18295736Y40185244D01*
X18295736Y40185244D02*
X18214924Y40158307D01*
X18214924Y40158307D02*
X18107174Y40158307D01*
X18107174Y40158307D02*
X17999425Y40212181D01*
X17999425Y40212181D02*
X17945550Y40266056D01*
X17945550Y40266056D02*
X17891675Y40373806D01*
X17891675Y40373806D02*
X17891675Y40427681D01*
X17891675Y40427681D02*
X18080237Y40616242D01*
X18080237Y40616242D02*
X18187987Y40508493D01*
X17595364Y40616242D02*
X18161049Y41181928D01*
X18161049Y41181928D02*
X17945550Y41397427D01*
X17945550Y41397427D02*
X17864738Y41424364D01*
X17864738Y41424364D02*
X17810863Y41424364D01*
X17810863Y41424364D02*
X17730051Y41397427D01*
X17730051Y41397427D02*
X17649239Y41316615D01*
X17649239Y41316615D02*
X17622301Y41235803D01*
X17622301Y41235803D02*
X17622301Y41181928D01*
X17622301Y41181928D02*
X17649239Y41101116D01*
X17649239Y41101116D02*
X17864738Y40885616D01*
X17568426Y41666801D02*
X17568426Y41720676D01*
X17568426Y41720676D02*
X17541489Y41801488D01*
X17541489Y41801488D02*
X17406802Y41936175D01*
X17406802Y41936175D02*
X17325990Y41963113D01*
X17325990Y41963113D02*
X17272115Y41963113D01*
X17272115Y41963113D02*
X17191303Y41936175D01*
X17191303Y41936175D02*
X17137428Y41882300D01*
X17137428Y41882300D02*
X17083553Y41774551D01*
X17083553Y41774551D02*
X17083553Y41128053D01*
X17083553Y41128053D02*
X16733367Y41478239D01*
X16194619Y42016987D02*
X16517868Y41693739D01*
X16356243Y41855363D02*
X16921929Y42421049D01*
X16921929Y42421049D02*
X16894991Y42286362D01*
X16894991Y42286362D02*
X16894991Y42178612D01*
X16894991Y42178612D02*
X16921929Y42097800D01*
X18403486Y28185616D02*
X18484298Y28158679D01*
X18484298Y28158679D02*
X18565110Y28077867D01*
X18565110Y28077867D02*
X18618985Y27970117D01*
X18618985Y27970117D02*
X18618985Y27862368D01*
X18618985Y27862368D02*
X18592048Y27781555D01*
X18592048Y27781555D02*
X18511235Y27646868D01*
X18511235Y27646868D02*
X18430423Y27566056D01*
X18430423Y27566056D02*
X18295736Y27485244D01*
X18295736Y27485244D02*
X18214924Y27458307D01*
X18214924Y27458307D02*
X18107174Y27458307D01*
X18107174Y27458307D02*
X17999425Y27512181D01*
X17999425Y27512181D02*
X17945550Y27566056D01*
X17945550Y27566056D02*
X17891675Y27673806D01*
X17891675Y27673806D02*
X17891675Y27727681D01*
X17891675Y27727681D02*
X18080237Y27916242D01*
X18080237Y27916242D02*
X18187987Y27808493D01*
X17595364Y27916242D02*
X18161049Y28481928D01*
X18161049Y28481928D02*
X17945550Y28697427D01*
X17945550Y28697427D02*
X17864738Y28724364D01*
X17864738Y28724364D02*
X17810863Y28724364D01*
X17810863Y28724364D02*
X17730051Y28697427D01*
X17730051Y28697427D02*
X17649239Y28616615D01*
X17649239Y28616615D02*
X17622301Y28535803D01*
X17622301Y28535803D02*
X17622301Y28481928D01*
X17622301Y28481928D02*
X17649239Y28401116D01*
X17649239Y28401116D02*
X17864738Y28185616D01*
X17568426Y28966801D02*
X17568426Y29020676D01*
X17568426Y29020676D02*
X17541489Y29101488D01*
X17541489Y29101488D02*
X17406802Y29236175D01*
X17406802Y29236175D02*
X17325990Y29263113D01*
X17325990Y29263113D02*
X17272115Y29263113D01*
X17272115Y29263113D02*
X17191303Y29236175D01*
X17191303Y29236175D02*
X17137428Y29182300D01*
X17137428Y29182300D02*
X17083553Y29074551D01*
X17083553Y29074551D02*
X17083553Y28428053D01*
X17083553Y28428053D02*
X16733367Y28778239D01*
X17110490Y29532487D02*
X16733367Y29909610D01*
X16733367Y29909610D02*
X16410118Y29101488D01*
X7285111Y8127991D02*
X7365924Y8101054D01*
X7365924Y8101054D02*
X7446736Y8020241D01*
X7446736Y8020241D02*
X7500611Y7912492D01*
X7500611Y7912492D02*
X7500611Y7804742D01*
X7500611Y7804742D02*
X7473673Y7723930D01*
X7473673Y7723930D02*
X7392861Y7589243D01*
X7392861Y7589243D02*
X7312049Y7508431D01*
X7312049Y7508431D02*
X7177362Y7427618D01*
X7177362Y7427618D02*
X7096550Y7400681D01*
X7096550Y7400681D02*
X6988800Y7400681D01*
X6988800Y7400681D02*
X6881050Y7454556D01*
X6881050Y7454556D02*
X6827176Y7508431D01*
X6827176Y7508431D02*
X6773301Y7616180D01*
X6773301Y7616180D02*
X6773301Y7670055D01*
X6773301Y7670055D02*
X6961863Y7858617D01*
X6961863Y7858617D02*
X7069612Y7750867D01*
X6476989Y7858617D02*
X7042675Y8424302D01*
X7042675Y8424302D02*
X6827176Y8639802D01*
X6827176Y8639802D02*
X6746363Y8666739D01*
X6746363Y8666739D02*
X6692489Y8666739D01*
X6692489Y8666739D02*
X6611676Y8639802D01*
X6611676Y8639802D02*
X6530864Y8558989D01*
X6530864Y8558989D02*
X6503927Y8478177D01*
X6503927Y8478177D02*
X6503927Y8424302D01*
X6503927Y8424302D02*
X6530864Y8343490D01*
X6530864Y8343490D02*
X6746363Y8127991D01*
X6369240Y9097737D02*
X6315365Y9151612D01*
X6315365Y9151612D02*
X6234553Y9178550D01*
X6234553Y9178550D02*
X6180678Y9178550D01*
X6180678Y9178550D02*
X6099866Y9151612D01*
X6099866Y9151612D02*
X5965179Y9070800D01*
X5965179Y9070800D02*
X5830492Y8936113D01*
X5830492Y8936113D02*
X5749680Y8801426D01*
X5749680Y8801426D02*
X5722742Y8720614D01*
X5722742Y8720614D02*
X5722742Y8666739D01*
X5722742Y8666739D02*
X5749680Y8585927D01*
X5749680Y8585927D02*
X5803554Y8532052D01*
X5803554Y8532052D02*
X5884367Y8505115D01*
X5884367Y8505115D02*
X5938241Y8505115D01*
X5938241Y8505115D02*
X6019054Y8532052D01*
X6019054Y8532052D02*
X6153741Y8612864D01*
X6153741Y8612864D02*
X6288428Y8747551D01*
X6288428Y8747551D02*
X6369240Y8882238D01*
X6369240Y8882238D02*
X6396177Y8963050D01*
X6396177Y8963050D02*
X6396177Y9016925D01*
X6396177Y9016925D02*
X6369240Y9097737D01*
X18740078Y7648899D02*
X17985831Y7271776D01*
X17985831Y7271776D02*
X18362954Y8026023D01*
X17716457Y8133772D02*
X17608707Y8187647D01*
X17608707Y8187647D02*
X17554832Y8187647D01*
X17554832Y8187647D02*
X17474020Y8160710D01*
X17474020Y8160710D02*
X17393208Y8079897D01*
X17393208Y8079897D02*
X17366271Y7999085D01*
X17366271Y7999085D02*
X17366271Y7945210D01*
X17366271Y7945210D02*
X17393208Y7864398D01*
X17393208Y7864398D02*
X17608707Y7648899D01*
X17608707Y7648899D02*
X18174393Y8214584D01*
X18174393Y8214584D02*
X17985831Y8403146D01*
X17985831Y8403146D02*
X17905019Y8430084D01*
X17905019Y8430084D02*
X17851144Y8430084D01*
X17851144Y8430084D02*
X17770332Y8403146D01*
X17770332Y8403146D02*
X17716457Y8349271D01*
X17716457Y8349271D02*
X17689519Y8268459D01*
X17689519Y8268459D02*
X17689519Y8214584D01*
X17689519Y8214584D02*
X17716457Y8133772D01*
X17716457Y8133772D02*
X17905019Y7945210D01*
X17608707Y8780270D02*
X17150771Y8322334D01*
X17150771Y8322334D02*
X17069959Y8295397D01*
X17069959Y8295397D02*
X17016084Y8295397D01*
X17016084Y8295397D02*
X16935272Y8322334D01*
X16935272Y8322334D02*
X16827523Y8430084D01*
X16827523Y8430084D02*
X16800585Y8510896D01*
X16800585Y8510896D02*
X16800585Y8564771D01*
X16800585Y8564771D02*
X16827523Y8645583D01*
X16827523Y8645583D02*
X17285458Y9103519D01*
X16504274Y8807207D02*
X16396524Y8861082D01*
X16396524Y8861082D02*
X16261837Y8995769D01*
X16261837Y8995769D02*
X16234900Y9076581D01*
X16234900Y9076581D02*
X16234900Y9130456D01*
X16234900Y9130456D02*
X16261837Y9211268D01*
X16261837Y9211268D02*
X16315712Y9265143D01*
X16315712Y9265143D02*
X16396524Y9292080D01*
X16396524Y9292080D02*
X16450399Y9292080D01*
X16450399Y9292080D02*
X16531211Y9265143D01*
X16531211Y9265143D02*
X16665898Y9184331D01*
X16665898Y9184331D02*
X16746711Y9157393D01*
X16746711Y9157393D02*
X16800585Y9157393D01*
X16800585Y9157393D02*
X16881398Y9184331D01*
X16881398Y9184331D02*
X16935272Y9238206D01*
X16935272Y9238206D02*
X16962210Y9319018D01*
X16962210Y9319018D02*
X16962210Y9372893D01*
X16962210Y9372893D02*
X16935272Y9453705D01*
X16935272Y9453705D02*
X16800585Y9588392D01*
X16800585Y9588392D02*
X16692836Y9642267D01*
X7385111Y30957991D02*
X7465924Y30931054D01*
X7465924Y30931054D02*
X7546736Y30850241D01*
X7546736Y30850241D02*
X7600611Y30742492D01*
X7600611Y30742492D02*
X7600611Y30634742D01*
X7600611Y30634742D02*
X7573673Y30553930D01*
X7573673Y30553930D02*
X7492861Y30419243D01*
X7492861Y30419243D02*
X7412049Y30338431D01*
X7412049Y30338431D02*
X7277362Y30257618D01*
X7277362Y30257618D02*
X7196550Y30230681D01*
X7196550Y30230681D02*
X7088800Y30230681D01*
X7088800Y30230681D02*
X6981050Y30284556D01*
X6981050Y30284556D02*
X6927176Y30338431D01*
X6927176Y30338431D02*
X6873301Y30446180D01*
X6873301Y30446180D02*
X6873301Y30500055D01*
X6873301Y30500055D02*
X7061863Y30688617D01*
X7061863Y30688617D02*
X7169612Y30580867D01*
X6576989Y30688617D02*
X7142675Y31254302D01*
X7142675Y31254302D02*
X6927176Y31469802D01*
X6927176Y31469802D02*
X6846363Y31496739D01*
X6846363Y31496739D02*
X6792489Y31496739D01*
X6792489Y31496739D02*
X6711676Y31469802D01*
X6711676Y31469802D02*
X6630864Y31388989D01*
X6630864Y31388989D02*
X6603927Y31308177D01*
X6603927Y31308177D02*
X6603927Y31254302D01*
X6603927Y31254302D02*
X6630864Y31173490D01*
X6630864Y31173490D02*
X6846363Y30957991D01*
X6630864Y31766113D02*
X6253741Y32143237D01*
X6253741Y32143237D02*
X5930492Y31335115D01*
X7185111Y15747991D02*
X7265924Y15721054D01*
X7265924Y15721054D02*
X7346736Y15640241D01*
X7346736Y15640241D02*
X7400611Y15532492D01*
X7400611Y15532492D02*
X7400611Y15424742D01*
X7400611Y15424742D02*
X7373673Y15343930D01*
X7373673Y15343930D02*
X7292861Y15209243D01*
X7292861Y15209243D02*
X7212049Y15128431D01*
X7212049Y15128431D02*
X7077362Y15047618D01*
X7077362Y15047618D02*
X6996550Y15020681D01*
X6996550Y15020681D02*
X6888800Y15020681D01*
X6888800Y15020681D02*
X6781050Y15074556D01*
X6781050Y15074556D02*
X6727176Y15128431D01*
X6727176Y15128431D02*
X6673301Y15236180D01*
X6673301Y15236180D02*
X6673301Y15290055D01*
X6673301Y15290055D02*
X6861863Y15478617D01*
X6861863Y15478617D02*
X6969612Y15370867D01*
X6376989Y15478617D02*
X6942675Y16044302D01*
X6942675Y16044302D02*
X6727176Y16259802D01*
X6727176Y16259802D02*
X6646363Y16286739D01*
X6646363Y16286739D02*
X6592489Y16286739D01*
X6592489Y16286739D02*
X6511676Y16259802D01*
X6511676Y16259802D02*
X6430864Y16178989D01*
X6430864Y16178989D02*
X6403927Y16098177D01*
X6403927Y16098177D02*
X6403927Y16044302D01*
X6403927Y16044302D02*
X6430864Y15963490D01*
X6430864Y15963490D02*
X6646363Y15747991D01*
X6350052Y16529176D02*
X6350052Y16583050D01*
X6350052Y16583050D02*
X6323115Y16663863D01*
X6323115Y16663863D02*
X6188428Y16798550D01*
X6188428Y16798550D02*
X6107615Y16825487D01*
X6107615Y16825487D02*
X6053741Y16825487D01*
X6053741Y16825487D02*
X5972928Y16798550D01*
X5972928Y16798550D02*
X5919054Y16744675D01*
X5919054Y16744675D02*
X5865179Y16636925D01*
X5865179Y16636925D02*
X5865179Y15990428D01*
X5865179Y15990428D02*
X5514993Y16340614D01*
X18571076Y15117901D02*
X18220890Y15468087D01*
X18220890Y15468087D02*
X18193953Y15064026D01*
X18193953Y15064026D02*
X18113140Y15144838D01*
X18113140Y15144838D02*
X18032328Y15171776D01*
X18032328Y15171776D02*
X17978453Y15171776D01*
X17978453Y15171776D02*
X17897641Y15144838D01*
X17897641Y15144838D02*
X17762954Y15010151D01*
X17762954Y15010151D02*
X17736017Y14929339D01*
X17736017Y14929339D02*
X17736017Y14875464D01*
X17736017Y14875464D02*
X17762954Y14794652D01*
X17762954Y14794652D02*
X17924579Y14633028D01*
X17924579Y14633028D02*
X18005391Y14606090D01*
X18005391Y14606090D02*
X18059266Y14606090D01*
X18059266Y15629712D02*
X17305018Y15252588D01*
X17305018Y15252588D02*
X17682142Y16006835D01*
X17547455Y16141522D02*
X17197269Y16491708D01*
X17197269Y16491708D02*
X17170331Y16087647D01*
X17170331Y16087647D02*
X17089519Y16168459D01*
X17089519Y16168459D02*
X17008707Y16195397D01*
X17008707Y16195397D02*
X16954832Y16195397D01*
X16954832Y16195397D02*
X16874020Y16168459D01*
X16874020Y16168459D02*
X16739333Y16033772D01*
X16739333Y16033772D02*
X16712396Y15952960D01*
X16712396Y15952960D02*
X16712396Y15899085D01*
X16712396Y15899085D02*
X16739333Y15818273D01*
X16739333Y15818273D02*
X16900957Y15656649D01*
X16900957Y15656649D02*
X16981770Y15629711D01*
X16981770Y15629711D02*
X17035644Y15629711D01*
X16469959Y15979898D02*
X16038960Y16410896D01*
X16254460Y16895770D02*
X16065898Y17084331D01*
X15688774Y16868832D02*
X15958148Y16599458D01*
X15958148Y16599458D02*
X16523834Y17165144D01*
X16523834Y17165144D02*
X16254460Y17434518D01*
X15446337Y17111269D02*
X16012023Y17676955D01*
X16012023Y17676955D02*
X15123088Y17434518D01*
X15123088Y17434518D02*
X15688774Y18000203D01*
X18872734Y10126243D02*
X18118487Y9749119D01*
X18118487Y9749119D02*
X18495611Y10503366D01*
X17795239Y10126242D02*
X17687489Y10180117D01*
X17687489Y10180117D02*
X17552802Y10314804D01*
X17552802Y10314804D02*
X17525865Y10395616D01*
X17525865Y10395616D02*
X17525865Y10449491D01*
X17525865Y10449491D02*
X17552802Y10530303D01*
X17552802Y10530303D02*
X17606677Y10584178D01*
X17606677Y10584178D02*
X17687489Y10611116D01*
X17687489Y10611116D02*
X17741364Y10611116D01*
X17741364Y10611116D02*
X17822176Y10584178D01*
X17822176Y10584178D02*
X17956863Y10503366D01*
X17956863Y10503366D02*
X18037675Y10476429D01*
X18037675Y10476429D02*
X18091550Y10476429D01*
X18091550Y10476429D02*
X18172362Y10503366D01*
X18172362Y10503366D02*
X18226237Y10557241D01*
X18226237Y10557241D02*
X18253174Y10638053D01*
X18253174Y10638053D02*
X18253174Y10691928D01*
X18253174Y10691928D02*
X18226237Y10772740D01*
X18226237Y10772740D02*
X18091550Y10907427D01*
X18091550Y10907427D02*
X17983800Y10961302D01*
X17364240Y11042114D02*
X17094866Y10772740D01*
X17849113Y11149864D02*
X17364240Y11042114D01*
X17364240Y11042114D02*
X17471990Y11526987D01*
X16771617Y11149864D02*
X16663868Y11203738D01*
X16663868Y11203738D02*
X16529181Y11338425D01*
X16529181Y11338425D02*
X16502243Y11419238D01*
X16502243Y11419238D02*
X16502243Y11473112D01*
X16502243Y11473112D02*
X16529181Y11553925D01*
X16529181Y11553925D02*
X16583056Y11607799D01*
X16583056Y11607799D02*
X16663868Y11634737D01*
X16663868Y11634737D02*
X16717743Y11634737D01*
X16717743Y11634737D02*
X16798555Y11607799D01*
X16798555Y11607799D02*
X16933242Y11526987D01*
X16933242Y11526987D02*
X17014054Y11500050D01*
X17014054Y11500050D02*
X17067929Y11500050D01*
X17067929Y11500050D02*
X17148741Y11526987D01*
X17148741Y11526987D02*
X17202616Y11580862D01*
X17202616Y11580862D02*
X17229553Y11661674D01*
X17229553Y11661674D02*
X17229553Y11715549D01*
X17229553Y11715549D02*
X17202616Y11796361D01*
X17202616Y11796361D02*
X17067929Y11931048D01*
X17067929Y11931048D02*
X16960179Y11984923D01*
X17907049Y13178054D02*
X17987861Y13151116D01*
X17987861Y13151116D02*
X18068673Y13070304D01*
X18068673Y13070304D02*
X18122548Y12962554D01*
X18122548Y12962554D02*
X18122548Y12854805D01*
X18122548Y12854805D02*
X18095610Y12773993D01*
X18095610Y12773993D02*
X18014798Y12639306D01*
X18014798Y12639306D02*
X17933986Y12558493D01*
X17933986Y12558493D02*
X17799299Y12477681D01*
X17799299Y12477681D02*
X17718487Y12450744D01*
X17718487Y12450744D02*
X17610737Y12450744D01*
X17610737Y12450744D02*
X17502988Y12504619D01*
X17502988Y12504619D02*
X17449113Y12558493D01*
X17449113Y12558493D02*
X17395238Y12666243D01*
X17395238Y12666243D02*
X17395238Y12720118D01*
X17395238Y12720118D02*
X17583800Y12908680D01*
X17583800Y12908680D02*
X17691549Y12800930D01*
X17098927Y12908680D02*
X17664612Y13474365D01*
X17664612Y13474365D02*
X16775678Y13231928D01*
X16775678Y13231928D02*
X17341363Y13797614D01*
X16506304Y13501302D02*
X17071989Y14066988D01*
X17071989Y14066988D02*
X16937302Y14201675D01*
X16937302Y14201675D02*
X16829553Y14255550D01*
X16829553Y14255550D02*
X16721803Y14255550D01*
X16721803Y14255550D02*
X16640991Y14228612D01*
X16640991Y14228612D02*
X16506304Y14147800D01*
X16506304Y14147800D02*
X16425492Y14066988D01*
X16425492Y14066988D02*
X16344680Y13932301D01*
X16344680Y13932301D02*
X16317742Y13851489D01*
X16317742Y13851489D02*
X16317742Y13743739D01*
X16317742Y13743739D02*
X16371617Y13635989D01*
X16371617Y13635989D02*
X16506304Y13501302D01*
X7554486Y40878616D02*
X7635298Y40851679D01*
X7635298Y40851679D02*
X7716110Y40770867D01*
X7716110Y40770867D02*
X7769985Y40663117D01*
X7769985Y40663117D02*
X7769985Y40555368D01*
X7769985Y40555368D02*
X7743048Y40474555D01*
X7743048Y40474555D02*
X7662235Y40339868D01*
X7662235Y40339868D02*
X7581423Y40259056D01*
X7581423Y40259056D02*
X7446736Y40178244D01*
X7446736Y40178244D02*
X7365924Y40151307D01*
X7365924Y40151307D02*
X7258174Y40151307D01*
X7258174Y40151307D02*
X7150425Y40205181D01*
X7150425Y40205181D02*
X7096550Y40259056D01*
X7096550Y40259056D02*
X7042675Y40366806D01*
X7042675Y40366806D02*
X7042675Y40420681D01*
X7042675Y40420681D02*
X7231237Y40609242D01*
X7231237Y40609242D02*
X7338987Y40501493D01*
X6746364Y40609242D02*
X7312049Y41174928D01*
X7312049Y41174928D02*
X7096550Y41390427D01*
X7096550Y41390427D02*
X7015738Y41417364D01*
X7015738Y41417364D02*
X6961863Y41417364D01*
X6961863Y41417364D02*
X6881051Y41390427D01*
X6881051Y41390427D02*
X6800239Y41309615D01*
X6800239Y41309615D02*
X6773301Y41228803D01*
X6773301Y41228803D02*
X6773301Y41174928D01*
X6773301Y41174928D02*
X6800239Y41094116D01*
X6800239Y41094116D02*
X7015738Y40878616D01*
X5884367Y41471239D02*
X6207616Y41147990D01*
X6045991Y41309615D02*
X6611677Y41875300D01*
X6611677Y41875300D02*
X6584739Y41740613D01*
X6584739Y41740613D02*
X6584739Y41632864D01*
X6584739Y41632864D02*
X6611677Y41552052D01*
X6099866Y42387111D02*
X6045991Y42440986D01*
X6045991Y42440986D02*
X5965179Y42467923D01*
X5965179Y42467923D02*
X5911304Y42467923D01*
X5911304Y42467923D02*
X5830492Y42440986D01*
X5830492Y42440986D02*
X5695805Y42360174D01*
X5695805Y42360174D02*
X5561118Y42225487D01*
X5561118Y42225487D02*
X5480306Y42090800D01*
X5480306Y42090800D02*
X5453368Y42009987D01*
X5453368Y42009987D02*
X5453368Y41956113D01*
X5453368Y41956113D02*
X5480306Y41875300D01*
X5480306Y41875300D02*
X5534181Y41821426D01*
X5534181Y41821426D02*
X5614993Y41794488D01*
X5614993Y41794488D02*
X5668868Y41794488D01*
X5668868Y41794488D02*
X5749680Y41821426D01*
X5749680Y41821426D02*
X5884367Y41902238D01*
X5884367Y41902238D02*
X6019054Y42036925D01*
X6019054Y42036925D02*
X6099866Y42171612D01*
X6099866Y42171612D02*
X6126803Y42252424D01*
X6126803Y42252424D02*
X6126803Y42306299D01*
X6126803Y42306299D02*
X6099866Y42387111D01*
X7185111Y10657991D02*
X7265924Y10631054D01*
X7265924Y10631054D02*
X7346736Y10550241D01*
X7346736Y10550241D02*
X7400611Y10442492D01*
X7400611Y10442492D02*
X7400611Y10334742D01*
X7400611Y10334742D02*
X7373673Y10253930D01*
X7373673Y10253930D02*
X7292861Y10119243D01*
X7292861Y10119243D02*
X7212049Y10038431D01*
X7212049Y10038431D02*
X7077362Y9957618D01*
X7077362Y9957618D02*
X6996550Y9930681D01*
X6996550Y9930681D02*
X6888800Y9930681D01*
X6888800Y9930681D02*
X6781050Y9984556D01*
X6781050Y9984556D02*
X6727176Y10038431D01*
X6727176Y10038431D02*
X6673301Y10146180D01*
X6673301Y10146180D02*
X6673301Y10200055D01*
X6673301Y10200055D02*
X6861863Y10388617D01*
X6861863Y10388617D02*
X6969612Y10280867D01*
X6376989Y10388617D02*
X6942675Y10954302D01*
X6942675Y10954302D02*
X6727176Y11169802D01*
X6727176Y11169802D02*
X6646363Y11196739D01*
X6646363Y11196739D02*
X6592489Y11196739D01*
X6592489Y11196739D02*
X6511676Y11169802D01*
X6511676Y11169802D02*
X6430864Y11088989D01*
X6430864Y11088989D02*
X6403927Y11008177D01*
X6403927Y11008177D02*
X6403927Y10954302D01*
X6403927Y10954302D02*
X6430864Y10873490D01*
X6430864Y10873490D02*
X6646363Y10657991D01*
X5514993Y11250614D02*
X5838241Y10927365D01*
X5676617Y11088989D02*
X6242302Y11654675D01*
X6242302Y11654675D02*
X6215365Y11519988D01*
X6215365Y11519988D02*
X6215365Y11412238D01*
X6215365Y11412238D02*
X6242302Y11331426D01*
X18403486Y48495616D02*
X18484298Y48468679D01*
X18484298Y48468679D02*
X18565110Y48387867D01*
X18565110Y48387867D02*
X18618985Y48280117D01*
X18618985Y48280117D02*
X18618985Y48172368D01*
X18618985Y48172368D02*
X18592048Y48091555D01*
X18592048Y48091555D02*
X18511235Y47956868D01*
X18511235Y47956868D02*
X18430423Y47876056D01*
X18430423Y47876056D02*
X18295736Y47795244D01*
X18295736Y47795244D02*
X18214924Y47768307D01*
X18214924Y47768307D02*
X18107174Y47768307D01*
X18107174Y47768307D02*
X17999425Y47822181D01*
X17999425Y47822181D02*
X17945550Y47876056D01*
X17945550Y47876056D02*
X17891675Y47983806D01*
X17891675Y47983806D02*
X17891675Y48037681D01*
X17891675Y48037681D02*
X18080237Y48226242D01*
X18080237Y48226242D02*
X18187987Y48118493D01*
X17595364Y48226242D02*
X18161049Y48791928D01*
X18161049Y48791928D02*
X17945550Y49007427D01*
X17945550Y49007427D02*
X17864738Y49034364D01*
X17864738Y49034364D02*
X17810863Y49034364D01*
X17810863Y49034364D02*
X17730051Y49007427D01*
X17730051Y49007427D02*
X17649239Y48926615D01*
X17649239Y48926615D02*
X17622301Y48845803D01*
X17622301Y48845803D02*
X17622301Y48791928D01*
X17622301Y48791928D02*
X17649239Y48711116D01*
X17649239Y48711116D02*
X17864738Y48495616D01*
X16733367Y49088239D02*
X17056616Y48764990D01*
X16894991Y48926615D02*
X17460677Y49492300D01*
X17460677Y49492300D02*
X17433739Y49357613D01*
X17433739Y49357613D02*
X17433739Y49249864D01*
X17433739Y49249864D02*
X17460677Y49169052D01*
X16733367Y49734737D02*
X16814179Y49707800D01*
X16814179Y49707800D02*
X16868054Y49707800D01*
X16868054Y49707800D02*
X16948866Y49734737D01*
X16948866Y49734737D02*
X16975803Y49761674D01*
X16975803Y49761674D02*
X17002741Y49842487D01*
X17002741Y49842487D02*
X17002741Y49896362D01*
X17002741Y49896362D02*
X16975803Y49977174D01*
X16975803Y49977174D02*
X16868054Y50084923D01*
X16868054Y50084923D02*
X16787242Y50111861D01*
X16787242Y50111861D02*
X16733367Y50111861D01*
X16733367Y50111861D02*
X16652555Y50084923D01*
X16652555Y50084923D02*
X16625617Y50057986D01*
X16625617Y50057986D02*
X16598680Y49977174D01*
X16598680Y49977174D02*
X16598680Y49923299D01*
X16598680Y49923299D02*
X16625617Y49842487D01*
X16625617Y49842487D02*
X16733367Y49734737D01*
X16733367Y49734737D02*
X16760304Y49653925D01*
X16760304Y49653925D02*
X16760304Y49600050D01*
X16760304Y49600050D02*
X16733367Y49519238D01*
X16733367Y49519238D02*
X16625617Y49411488D01*
X16625617Y49411488D02*
X16544805Y49384551D01*
X16544805Y49384551D02*
X16490930Y49384551D01*
X16490930Y49384551D02*
X16410118Y49411488D01*
X16410118Y49411488D02*
X16302368Y49519238D01*
X16302368Y49519238D02*
X16275431Y49600050D01*
X16275431Y49600050D02*
X16275431Y49653925D01*
X16275431Y49653925D02*
X16302368Y49734737D01*
X16302368Y49734737D02*
X16410118Y49842487D01*
X16410118Y49842487D02*
X16490930Y49869424D01*
X16490930Y49869424D02*
X16544805Y49869424D01*
X16544805Y49869424D02*
X16625617Y49842487D01*
X7285111Y18287991D02*
X7365924Y18261054D01*
X7365924Y18261054D02*
X7446736Y18180241D01*
X7446736Y18180241D02*
X7500611Y18072492D01*
X7500611Y18072492D02*
X7500611Y17964742D01*
X7500611Y17964742D02*
X7473673Y17883930D01*
X7473673Y17883930D02*
X7392861Y17749243D01*
X7392861Y17749243D02*
X7312049Y17668431D01*
X7312049Y17668431D02*
X7177362Y17587618D01*
X7177362Y17587618D02*
X7096550Y17560681D01*
X7096550Y17560681D02*
X6988800Y17560681D01*
X6988800Y17560681D02*
X6881050Y17614556D01*
X6881050Y17614556D02*
X6827176Y17668431D01*
X6827176Y17668431D02*
X6773301Y17776180D01*
X6773301Y17776180D02*
X6773301Y17830055D01*
X6773301Y17830055D02*
X6961863Y18018617D01*
X6961863Y18018617D02*
X7069612Y17910867D01*
X6476989Y18018617D02*
X7042675Y18584302D01*
X7042675Y18584302D02*
X6827176Y18799802D01*
X6827176Y18799802D02*
X6746363Y18826739D01*
X6746363Y18826739D02*
X6692489Y18826739D01*
X6692489Y18826739D02*
X6611676Y18799802D01*
X6611676Y18799802D02*
X6530864Y18718989D01*
X6530864Y18718989D02*
X6503927Y18638177D01*
X6503927Y18638177D02*
X6503927Y18584302D01*
X6503927Y18584302D02*
X6530864Y18503490D01*
X6530864Y18503490D02*
X6746363Y18287991D01*
X6530864Y19096113D02*
X6180678Y19446299D01*
X6180678Y19446299D02*
X6153741Y19042238D01*
X6153741Y19042238D02*
X6072928Y19123050D01*
X6072928Y19123050D02*
X5992116Y19149988D01*
X5992116Y19149988D02*
X5938241Y19149988D01*
X5938241Y19149988D02*
X5857429Y19123050D01*
X5857429Y19123050D02*
X5722742Y18988363D01*
X5722742Y18988363D02*
X5695805Y18907551D01*
X5695805Y18907551D02*
X5695805Y18853676D01*
X5695805Y18853676D02*
X5722742Y18772864D01*
X5722742Y18772864D02*
X5884367Y18611240D01*
X5884367Y18611240D02*
X5965179Y18584302D01*
X5965179Y18584302D02*
X6019054Y18584302D01*
X18403486Y43415616D02*
X18484298Y43388679D01*
X18484298Y43388679D02*
X18565110Y43307867D01*
X18565110Y43307867D02*
X18618985Y43200117D01*
X18618985Y43200117D02*
X18618985Y43092368D01*
X18618985Y43092368D02*
X18592048Y43011555D01*
X18592048Y43011555D02*
X18511235Y42876868D01*
X18511235Y42876868D02*
X18430423Y42796056D01*
X18430423Y42796056D02*
X18295736Y42715244D01*
X18295736Y42715244D02*
X18214924Y42688307D01*
X18214924Y42688307D02*
X18107174Y42688307D01*
X18107174Y42688307D02*
X17999425Y42742181D01*
X17999425Y42742181D02*
X17945550Y42796056D01*
X17945550Y42796056D02*
X17891675Y42903806D01*
X17891675Y42903806D02*
X17891675Y42957681D01*
X17891675Y42957681D02*
X18080237Y43146242D01*
X18080237Y43146242D02*
X18187987Y43038493D01*
X17595364Y43146242D02*
X18161049Y43711928D01*
X18161049Y43711928D02*
X17945550Y43927427D01*
X17945550Y43927427D02*
X17864738Y43954364D01*
X17864738Y43954364D02*
X17810863Y43954364D01*
X17810863Y43954364D02*
X17730051Y43927427D01*
X17730051Y43927427D02*
X17649239Y43846615D01*
X17649239Y43846615D02*
X17622301Y43765803D01*
X17622301Y43765803D02*
X17622301Y43711928D01*
X17622301Y43711928D02*
X17649239Y43631116D01*
X17649239Y43631116D02*
X17864738Y43415616D01*
X17568426Y44196801D02*
X17568426Y44250676D01*
X17568426Y44250676D02*
X17541489Y44331488D01*
X17541489Y44331488D02*
X17406802Y44466175D01*
X17406802Y44466175D02*
X17325990Y44493113D01*
X17325990Y44493113D02*
X17272115Y44493113D01*
X17272115Y44493113D02*
X17191303Y44466175D01*
X17191303Y44466175D02*
X17137428Y44412300D01*
X17137428Y44412300D02*
X17083553Y44304551D01*
X17083553Y44304551D02*
X17083553Y43658053D01*
X17083553Y43658053D02*
X16733367Y44008239D01*
X16948866Y44924111D02*
X16894991Y44977986D01*
X16894991Y44977986D02*
X16814179Y45004923D01*
X16814179Y45004923D02*
X16760304Y45004923D01*
X16760304Y45004923D02*
X16679492Y44977986D01*
X16679492Y44977986D02*
X16544805Y44897174D01*
X16544805Y44897174D02*
X16410118Y44762487D01*
X16410118Y44762487D02*
X16329306Y44627800D01*
X16329306Y44627800D02*
X16302368Y44546987D01*
X16302368Y44546987D02*
X16302368Y44493113D01*
X16302368Y44493113D02*
X16329306Y44412300D01*
X16329306Y44412300D02*
X16383181Y44358426D01*
X16383181Y44358426D02*
X16463993Y44331488D01*
X16463993Y44331488D02*
X16517868Y44331488D01*
X16517868Y44331488D02*
X16598680Y44358426D01*
X16598680Y44358426D02*
X16733367Y44439238D01*
X16733367Y44439238D02*
X16868054Y44573925D01*
X16868054Y44573925D02*
X16948866Y44708612D01*
X16948866Y44708612D02*
X16975803Y44789424D01*
X16975803Y44789424D02*
X16975803Y44843299D01*
X16975803Y44843299D02*
X16948866Y44924111D01*
X17907049Y38578054D02*
X17987861Y38551116D01*
X17987861Y38551116D02*
X18068673Y38470304D01*
X18068673Y38470304D02*
X18122548Y38362554D01*
X18122548Y38362554D02*
X18122548Y38254805D01*
X18122548Y38254805D02*
X18095610Y38173993D01*
X18095610Y38173993D02*
X18014798Y38039306D01*
X18014798Y38039306D02*
X17933986Y37958493D01*
X17933986Y37958493D02*
X17799299Y37877681D01*
X17799299Y37877681D02*
X17718487Y37850744D01*
X17718487Y37850744D02*
X17610737Y37850744D01*
X17610737Y37850744D02*
X17502988Y37904619D01*
X17502988Y37904619D02*
X17449113Y37958493D01*
X17449113Y37958493D02*
X17395238Y38066243D01*
X17395238Y38066243D02*
X17395238Y38120118D01*
X17395238Y38120118D02*
X17583800Y38308680D01*
X17583800Y38308680D02*
X17691549Y38200930D01*
X17098927Y38308680D02*
X17664612Y38874365D01*
X17664612Y38874365D02*
X16775678Y38631928D01*
X16775678Y38631928D02*
X17341363Y39197614D01*
X16506304Y38901302D02*
X17071989Y39466988D01*
X17071989Y39466988D02*
X16937302Y39601675D01*
X16937302Y39601675D02*
X16829553Y39655550D01*
X16829553Y39655550D02*
X16721803Y39655550D01*
X16721803Y39655550D02*
X16640991Y39628612D01*
X16640991Y39628612D02*
X16506304Y39547800D01*
X16506304Y39547800D02*
X16425492Y39466988D01*
X16425492Y39466988D02*
X16344680Y39332301D01*
X16344680Y39332301D02*
X16317742Y39251489D01*
X16317742Y39251489D02*
X16317742Y39143739D01*
X16317742Y39143739D02*
X16371617Y39035989D01*
X16371617Y39035989D02*
X16506304Y38901302D01*
X18338420Y19742435D02*
X18069046Y20011809D01*
X18230670Y19526936D02*
X18607794Y20281183D01*
X18607794Y20281183D02*
X17853547Y19904060D01*
X17664985Y20092621D02*
X18230670Y20658307D01*
X18230670Y20658307D02*
X18095983Y20792994D01*
X18095983Y20792994D02*
X17988234Y20846868D01*
X17988234Y20846868D02*
X17880484Y20846868D01*
X17880484Y20846868D02*
X17799672Y20819931D01*
X17799672Y20819931D02*
X17664985Y20739119D01*
X17664985Y20739119D02*
X17584173Y20658307D01*
X17584173Y20658307D02*
X17503361Y20523620D01*
X17503361Y20523620D02*
X17476423Y20442807D01*
X17476423Y20442807D02*
X17476423Y20335058D01*
X17476423Y20335058D02*
X17530298Y20227308D01*
X17530298Y20227308D02*
X17664985Y20092621D01*
X16829926Y21035430D02*
X16829926Y20981555D01*
X16829926Y20981555D02*
X16883800Y20873806D01*
X16883800Y20873806D02*
X16937675Y20819931D01*
X16937675Y20819931D02*
X17045425Y20766056D01*
X17045425Y20766056D02*
X17153174Y20766056D01*
X17153174Y20766056D02*
X17233987Y20792994D01*
X17233987Y20792994D02*
X17368674Y20873806D01*
X17368674Y20873806D02*
X17449486Y20954618D01*
X17449486Y20954618D02*
X17530298Y21089305D01*
X17530298Y21089305D02*
X17557235Y21170117D01*
X17557235Y21170117D02*
X17557235Y21277867D01*
X17557235Y21277867D02*
X17503361Y21385617D01*
X17503361Y21385617D02*
X17449486Y21439491D01*
X17449486Y21439491D02*
X17341736Y21493366D01*
X17341736Y21493366D02*
X17287861Y21493366D01*
X16614426Y21035430D02*
X16183428Y21466429D01*
X16749113Y22139864D02*
X15994866Y21762740D01*
X15994866Y21762740D02*
X16371990Y22516987D01*
X15294494Y22463112D02*
X15752430Y22543925D01*
X15617743Y22139864D02*
X16183428Y22705549D01*
X16183428Y22705549D02*
X15967929Y22921048D01*
X15967929Y22921048D02*
X15887117Y22947986D01*
X15887117Y22947986D02*
X15833242Y22947986D01*
X15833242Y22947986D02*
X15752430Y22921048D01*
X15752430Y22921048D02*
X15671617Y22840236D01*
X15671617Y22840236D02*
X15644680Y22759424D01*
X15644680Y22759424D02*
X15644680Y22705549D01*
X15644680Y22705549D02*
X15671617Y22624737D01*
X15671617Y22624737D02*
X15887117Y22409238D01*
X15348369Y23001861D02*
X15159807Y23190422D01*
X14782683Y22974923D02*
X15052057Y22705549D01*
X15052057Y22705549D02*
X15617743Y23271235D01*
X15617743Y23271235D02*
X15348369Y23540609D01*
X14647996Y23702233D02*
X14836558Y23513671D01*
X14540246Y23217360D02*
X15105932Y23783045D01*
X15105932Y23783045D02*
X14836558Y24052419D01*
X18403486Y35795616D02*
X18484298Y35768679D01*
X18484298Y35768679D02*
X18565110Y35687867D01*
X18565110Y35687867D02*
X18618985Y35580117D01*
X18618985Y35580117D02*
X18618985Y35472368D01*
X18618985Y35472368D02*
X18592048Y35391555D01*
X18592048Y35391555D02*
X18511235Y35256868D01*
X18511235Y35256868D02*
X18430423Y35176056D01*
X18430423Y35176056D02*
X18295736Y35095244D01*
X18295736Y35095244D02*
X18214924Y35068307D01*
X18214924Y35068307D02*
X18107174Y35068307D01*
X18107174Y35068307D02*
X17999425Y35122181D01*
X17999425Y35122181D02*
X17945550Y35176056D01*
X17945550Y35176056D02*
X17891675Y35283806D01*
X17891675Y35283806D02*
X17891675Y35337681D01*
X17891675Y35337681D02*
X18080237Y35526242D01*
X18080237Y35526242D02*
X18187987Y35418493D01*
X17595364Y35526242D02*
X18161049Y36091928D01*
X18161049Y36091928D02*
X17945550Y36307427D01*
X17945550Y36307427D02*
X17864738Y36334364D01*
X17864738Y36334364D02*
X17810863Y36334364D01*
X17810863Y36334364D02*
X17730051Y36307427D01*
X17730051Y36307427D02*
X17649239Y36226615D01*
X17649239Y36226615D02*
X17622301Y36145803D01*
X17622301Y36145803D02*
X17622301Y36091928D01*
X17622301Y36091928D02*
X17649239Y36011116D01*
X17649239Y36011116D02*
X17864738Y35795616D01*
X17568426Y36576801D02*
X17568426Y36630676D01*
X17568426Y36630676D02*
X17541489Y36711488D01*
X17541489Y36711488D02*
X17406802Y36846175D01*
X17406802Y36846175D02*
X17325990Y36873113D01*
X17325990Y36873113D02*
X17272115Y36873113D01*
X17272115Y36873113D02*
X17191303Y36846175D01*
X17191303Y36846175D02*
X17137428Y36792300D01*
X17137428Y36792300D02*
X17083553Y36684551D01*
X17083553Y36684551D02*
X17083553Y36038053D01*
X17083553Y36038053D02*
X16733367Y36388239D01*
X17029678Y37115549D02*
X17029678Y37169424D01*
X17029678Y37169424D02*
X17002741Y37250236D01*
X17002741Y37250236D02*
X16868054Y37384923D01*
X16868054Y37384923D02*
X16787242Y37411861D01*
X16787242Y37411861D02*
X16733367Y37411861D01*
X16733367Y37411861D02*
X16652555Y37384923D01*
X16652555Y37384923D02*
X16598680Y37331049D01*
X16598680Y37331049D02*
X16544805Y37223299D01*
X16544805Y37223299D02*
X16544805Y36576801D01*
X16544805Y36576801D02*
X16194619Y36926987D01*
X7554486Y48488616D02*
X7635298Y48461679D01*
X7635298Y48461679D02*
X7716110Y48380867D01*
X7716110Y48380867D02*
X7769985Y48273117D01*
X7769985Y48273117D02*
X7769985Y48165368D01*
X7769985Y48165368D02*
X7743048Y48084555D01*
X7743048Y48084555D02*
X7662235Y47949868D01*
X7662235Y47949868D02*
X7581423Y47869056D01*
X7581423Y47869056D02*
X7446736Y47788244D01*
X7446736Y47788244D02*
X7365924Y47761307D01*
X7365924Y47761307D02*
X7258174Y47761307D01*
X7258174Y47761307D02*
X7150425Y47815181D01*
X7150425Y47815181D02*
X7096550Y47869056D01*
X7096550Y47869056D02*
X7042675Y47976806D01*
X7042675Y47976806D02*
X7042675Y48030681D01*
X7042675Y48030681D02*
X7231237Y48219242D01*
X7231237Y48219242D02*
X7338987Y48111493D01*
X6746364Y48219242D02*
X7312049Y48784928D01*
X7312049Y48784928D02*
X7096550Y49000427D01*
X7096550Y49000427D02*
X7015738Y49027364D01*
X7015738Y49027364D02*
X6961863Y49027364D01*
X6961863Y49027364D02*
X6881051Y49000427D01*
X6881051Y49000427D02*
X6800239Y48919615D01*
X6800239Y48919615D02*
X6773301Y48838803D01*
X6773301Y48838803D02*
X6773301Y48784928D01*
X6773301Y48784928D02*
X6800239Y48704116D01*
X6800239Y48704116D02*
X7015738Y48488616D01*
X5884367Y49081239D02*
X6207616Y48757990D01*
X6045991Y48919615D02*
X6611677Y49485300D01*
X6611677Y49485300D02*
X6584739Y49350613D01*
X6584739Y49350613D02*
X6584739Y49242864D01*
X6584739Y49242864D02*
X6611677Y49162052D01*
X6261490Y49835487D02*
X5911304Y50185673D01*
X5911304Y50185673D02*
X5884367Y49781612D01*
X5884367Y49781612D02*
X5803555Y49862424D01*
X5803555Y49862424D02*
X5722742Y49889362D01*
X5722742Y49889362D02*
X5668868Y49889362D01*
X5668868Y49889362D02*
X5588055Y49862424D01*
X5588055Y49862424D02*
X5453368Y49727737D01*
X5453368Y49727737D02*
X5426431Y49646925D01*
X5426431Y49646925D02*
X5426431Y49593050D01*
X5426431Y49593050D02*
X5453368Y49512238D01*
X5453368Y49512238D02*
X5614993Y49350613D01*
X5614993Y49350613D02*
X5695805Y49323676D01*
X5695805Y49323676D02*
X5749680Y49323676D01*
X7754486Y55988616D02*
X7835298Y55961679D01*
X7835298Y55961679D02*
X7916110Y55880867D01*
X7916110Y55880867D02*
X7969985Y55773117D01*
X7969985Y55773117D02*
X7969985Y55665368D01*
X7969985Y55665368D02*
X7943048Y55584555D01*
X7943048Y55584555D02*
X7862235Y55449868D01*
X7862235Y55449868D02*
X7781423Y55369056D01*
X7781423Y55369056D02*
X7646736Y55288244D01*
X7646736Y55288244D02*
X7565924Y55261307D01*
X7565924Y55261307D02*
X7458174Y55261307D01*
X7458174Y55261307D02*
X7350425Y55315181D01*
X7350425Y55315181D02*
X7296550Y55369056D01*
X7296550Y55369056D02*
X7242675Y55476806D01*
X7242675Y55476806D02*
X7242675Y55530681D01*
X7242675Y55530681D02*
X7431237Y55719242D01*
X7431237Y55719242D02*
X7538987Y55611493D01*
X6946364Y55719242D02*
X7512049Y56284928D01*
X7512049Y56284928D02*
X7296550Y56500427D01*
X7296550Y56500427D02*
X7215738Y56527364D01*
X7215738Y56527364D02*
X7161863Y56527364D01*
X7161863Y56527364D02*
X7081051Y56500427D01*
X7081051Y56500427D02*
X7000239Y56419615D01*
X7000239Y56419615D02*
X6973301Y56338803D01*
X6973301Y56338803D02*
X6973301Y56284928D01*
X6973301Y56284928D02*
X7000239Y56204116D01*
X7000239Y56204116D02*
X7215738Y55988616D01*
X6084367Y56581239D02*
X6407616Y56257990D01*
X6245991Y56419615D02*
X6811677Y56985300D01*
X6811677Y56985300D02*
X6784739Y56850613D01*
X6784739Y56850613D02*
X6784739Y56742864D01*
X6784739Y56742864D02*
X6811677Y56662052D01*
X6138242Y57658736D02*
X6407616Y57389362D01*
X6407616Y57389362D02*
X6165179Y57093050D01*
X6165179Y57093050D02*
X6165179Y57146925D01*
X6165179Y57146925D02*
X6138242Y57227737D01*
X6138242Y57227737D02*
X6003555Y57362424D01*
X6003555Y57362424D02*
X5922742Y57389362D01*
X5922742Y57389362D02*
X5868868Y57389362D01*
X5868868Y57389362D02*
X5788055Y57362424D01*
X5788055Y57362424D02*
X5653368Y57227737D01*
X5653368Y57227737D02*
X5626431Y57146925D01*
X5626431Y57146925D02*
X5626431Y57093050D01*
X5626431Y57093050D02*
X5653368Y57012238D01*
X5653368Y57012238D02*
X5788055Y56877551D01*
X5788055Y56877551D02*
X5868868Y56850613D01*
X5868868Y56850613D02*
X5922742Y56850613D01*
X18303361Y18085617D02*
X17953174Y18435803D01*
X17953174Y18435803D02*
X17926237Y18031742D01*
X17926237Y18031742D02*
X17845425Y18112554D01*
X17845425Y18112554D02*
X17764613Y18139491D01*
X17764613Y18139491D02*
X17710738Y18139491D01*
X17710738Y18139491D02*
X17629926Y18112554D01*
X17629926Y18112554D02*
X17495239Y17977867D01*
X17495239Y17977867D02*
X17468301Y17897055D01*
X17468301Y17897055D02*
X17468301Y17843180D01*
X17468301Y17843180D02*
X17495239Y17762368D01*
X17495239Y17762368D02*
X17656863Y17600743D01*
X17656863Y17600743D02*
X17737675Y17573806D01*
X17737675Y17573806D02*
X17791550Y17573806D01*
X17791550Y18597427D02*
X17037303Y18220304D01*
X17037303Y18220304D02*
X17414426Y18974551D01*
X17279739Y19109238D02*
X16929553Y19459424D01*
X16929553Y19459424D02*
X16902616Y19055363D01*
X16902616Y19055363D02*
X16821804Y19136175D01*
X16821804Y19136175D02*
X16740991Y19163113D01*
X16740991Y19163113D02*
X16687117Y19163113D01*
X16687117Y19163113D02*
X16606304Y19136175D01*
X16606304Y19136175D02*
X16471617Y19001488D01*
X16471617Y19001488D02*
X16444680Y18920676D01*
X16444680Y18920676D02*
X16444680Y18866801D01*
X16444680Y18866801D02*
X16471617Y18785989D01*
X16471617Y18785989D02*
X16633242Y18624365D01*
X16633242Y18624365D02*
X16714054Y18597427D01*
X16714054Y18597427D02*
X16767929Y18597427D01*
X7312049Y13181054D02*
X7392861Y13154116D01*
X7392861Y13154116D02*
X7473673Y13073304D01*
X7473673Y13073304D02*
X7527548Y12965554D01*
X7527548Y12965554D02*
X7527548Y12857805D01*
X7527548Y12857805D02*
X7500610Y12776993D01*
X7500610Y12776993D02*
X7419798Y12642306D01*
X7419798Y12642306D02*
X7338986Y12561493D01*
X7338986Y12561493D02*
X7204299Y12480681D01*
X7204299Y12480681D02*
X7123487Y12453744D01*
X7123487Y12453744D02*
X7015737Y12453744D01*
X7015737Y12453744D02*
X6907988Y12507619D01*
X6907988Y12507619D02*
X6854113Y12561493D01*
X6854113Y12561493D02*
X6800238Y12669243D01*
X6800238Y12669243D02*
X6800238Y12723118D01*
X6800238Y12723118D02*
X6988800Y12911680D01*
X6988800Y12911680D02*
X7096549Y12803930D01*
X6503927Y12911680D02*
X7069612Y13477365D01*
X7069612Y13477365D02*
X6180678Y13234928D01*
X6180678Y13234928D02*
X6746363Y13800614D01*
X5911304Y13504302D02*
X6476989Y14069988D01*
X6476989Y14069988D02*
X6342302Y14204675D01*
X6342302Y14204675D02*
X6234553Y14258550D01*
X6234553Y14258550D02*
X6126803Y14258550D01*
X6126803Y14258550D02*
X6045991Y14231612D01*
X6045991Y14231612D02*
X5911304Y14150800D01*
X5911304Y14150800D02*
X5830492Y14069988D01*
X5830492Y14069988D02*
X5749680Y13935301D01*
X5749680Y13935301D02*
X5722742Y13854489D01*
X5722742Y13854489D02*
X5722742Y13746739D01*
X5722742Y13746739D02*
X5776617Y13638989D01*
X5776617Y13638989D02*
X5911304Y13504302D01*
X17554832Y32972774D02*
X18012768Y33053586D01*
X17878081Y32649525D02*
X18443766Y33215211D01*
X18443766Y33215211D02*
X18228267Y33430710D01*
X18228267Y33430710D02*
X18147455Y33457647D01*
X18147455Y33457647D02*
X18093580Y33457647D01*
X18093580Y33457647D02*
X18012768Y33430710D01*
X18012768Y33430710D02*
X17931956Y33349898D01*
X17931956Y33349898D02*
X17905018Y33269086D01*
X17905018Y33269086D02*
X17905018Y33215211D01*
X17905018Y33215211D02*
X17931956Y33134399D01*
X17931956Y33134399D02*
X18147455Y32918899D01*
X17878081Y33780896D02*
X17420145Y33322960D01*
X17420145Y33322960D02*
X17339333Y33296023D01*
X17339333Y33296023D02*
X17285458Y33296023D01*
X17285458Y33296023D02*
X17204646Y33322960D01*
X17204646Y33322960D02*
X17096896Y33430710D01*
X17096896Y33430710D02*
X17069959Y33511522D01*
X17069959Y33511522D02*
X17069959Y33565397D01*
X17069959Y33565397D02*
X17096896Y33646209D01*
X17096896Y33646209D02*
X17554832Y34104145D01*
X16719773Y33807833D02*
X17285458Y34373519D01*
X17285458Y34373519D02*
X16396524Y34131082D01*
X16396524Y34131082D02*
X16962210Y34696768D01*
X17907049Y51278054D02*
X17987861Y51251116D01*
X17987861Y51251116D02*
X18068673Y51170304D01*
X18068673Y51170304D02*
X18122548Y51062554D01*
X18122548Y51062554D02*
X18122548Y50954805D01*
X18122548Y50954805D02*
X18095610Y50873993D01*
X18095610Y50873993D02*
X18014798Y50739306D01*
X18014798Y50739306D02*
X17933986Y50658493D01*
X17933986Y50658493D02*
X17799299Y50577681D01*
X17799299Y50577681D02*
X17718487Y50550744D01*
X17718487Y50550744D02*
X17610737Y50550744D01*
X17610737Y50550744D02*
X17502988Y50604619D01*
X17502988Y50604619D02*
X17449113Y50658493D01*
X17449113Y50658493D02*
X17395238Y50766243D01*
X17395238Y50766243D02*
X17395238Y50820118D01*
X17395238Y50820118D02*
X17583800Y51008680D01*
X17583800Y51008680D02*
X17691549Y50900930D01*
X17098927Y51008680D02*
X17664612Y51574365D01*
X17664612Y51574365D02*
X16775678Y51331928D01*
X16775678Y51331928D02*
X17341363Y51897614D01*
X16506304Y51601302D02*
X17071989Y52166988D01*
X17071989Y52166988D02*
X16937302Y52301675D01*
X16937302Y52301675D02*
X16829553Y52355550D01*
X16829553Y52355550D02*
X16721803Y52355550D01*
X16721803Y52355550D02*
X16640991Y52328612D01*
X16640991Y52328612D02*
X16506304Y52247800D01*
X16506304Y52247800D02*
X16425492Y52166988D01*
X16425492Y52166988D02*
X16344680Y52032301D01*
X16344680Y52032301D02*
X16317742Y51951489D01*
X16317742Y51951489D02*
X16317742Y51843739D01*
X16317742Y51843739D02*
X16371617Y51735989D01*
X16371617Y51735989D02*
X16506304Y51601302D01*
X7554486Y45958616D02*
X7635298Y45931679D01*
X7635298Y45931679D02*
X7716110Y45850867D01*
X7716110Y45850867D02*
X7769985Y45743117D01*
X7769985Y45743117D02*
X7769985Y45635368D01*
X7769985Y45635368D02*
X7743048Y45554555D01*
X7743048Y45554555D02*
X7662235Y45419868D01*
X7662235Y45419868D02*
X7581423Y45339056D01*
X7581423Y45339056D02*
X7446736Y45258244D01*
X7446736Y45258244D02*
X7365924Y45231307D01*
X7365924Y45231307D02*
X7258174Y45231307D01*
X7258174Y45231307D02*
X7150425Y45285181D01*
X7150425Y45285181D02*
X7096550Y45339056D01*
X7096550Y45339056D02*
X7042675Y45446806D01*
X7042675Y45446806D02*
X7042675Y45500681D01*
X7042675Y45500681D02*
X7231237Y45689242D01*
X7231237Y45689242D02*
X7338987Y45581493D01*
X6746364Y45689242D02*
X7312049Y46254928D01*
X7312049Y46254928D02*
X7096550Y46470427D01*
X7096550Y46470427D02*
X7015738Y46497364D01*
X7015738Y46497364D02*
X6961863Y46497364D01*
X6961863Y46497364D02*
X6881051Y46470427D01*
X6881051Y46470427D02*
X6800239Y46389615D01*
X6800239Y46389615D02*
X6773301Y46308803D01*
X6773301Y46308803D02*
X6773301Y46254928D01*
X6773301Y46254928D02*
X6800239Y46174116D01*
X6800239Y46174116D02*
X7015738Y45958616D01*
X5884367Y46551239D02*
X6207616Y46227990D01*
X6045991Y46389615D02*
X6611677Y46955300D01*
X6611677Y46955300D02*
X6584739Y46820613D01*
X6584739Y46820613D02*
X6584739Y46712864D01*
X6584739Y46712864D02*
X6611677Y46632052D01*
X6180678Y47278549D02*
X6180678Y47332424D01*
X6180678Y47332424D02*
X6153741Y47413236D01*
X6153741Y47413236D02*
X6019054Y47547923D01*
X6019054Y47547923D02*
X5938242Y47574861D01*
X5938242Y47574861D02*
X5884367Y47574861D01*
X5884367Y47574861D02*
X5803555Y47547923D01*
X5803555Y47547923D02*
X5749680Y47494049D01*
X5749680Y47494049D02*
X5695805Y47386299D01*
X5695805Y47386299D02*
X5695805Y46739801D01*
X5695805Y46739801D02*
X5345619Y47089987D01*
X7312049Y38581054D02*
X7392861Y38554116D01*
X7392861Y38554116D02*
X7473673Y38473304D01*
X7473673Y38473304D02*
X7527548Y38365554D01*
X7527548Y38365554D02*
X7527548Y38257805D01*
X7527548Y38257805D02*
X7500610Y38176993D01*
X7500610Y38176993D02*
X7419798Y38042306D01*
X7419798Y38042306D02*
X7338986Y37961493D01*
X7338986Y37961493D02*
X7204299Y37880681D01*
X7204299Y37880681D02*
X7123487Y37853744D01*
X7123487Y37853744D02*
X7015737Y37853744D01*
X7015737Y37853744D02*
X6907988Y37907619D01*
X6907988Y37907619D02*
X6854113Y37961493D01*
X6854113Y37961493D02*
X6800238Y38069243D01*
X6800238Y38069243D02*
X6800238Y38123118D01*
X6800238Y38123118D02*
X6988800Y38311680D01*
X6988800Y38311680D02*
X7096549Y38203930D01*
X6503927Y38311680D02*
X7069612Y38877365D01*
X7069612Y38877365D02*
X6180678Y38634928D01*
X6180678Y38634928D02*
X6746363Y39200614D01*
X5911304Y38904302D02*
X6476989Y39469988D01*
X6476989Y39469988D02*
X6342302Y39604675D01*
X6342302Y39604675D02*
X6234553Y39658550D01*
X6234553Y39658550D02*
X6126803Y39658550D01*
X6126803Y39658550D02*
X6045991Y39631612D01*
X6045991Y39631612D02*
X5911304Y39550800D01*
X5911304Y39550800D02*
X5830492Y39469988D01*
X5830492Y39469988D02*
X5749680Y39335301D01*
X5749680Y39335301D02*
X5722742Y39254489D01*
X5722742Y39254489D02*
X5722742Y39146739D01*
X5722742Y39146739D02*
X5776617Y39038989D01*
X5776617Y39038989D02*
X5911304Y38904302D01*
X7285111Y36067991D02*
X7365924Y36041054D01*
X7365924Y36041054D02*
X7446736Y35960241D01*
X7446736Y35960241D02*
X7500611Y35852492D01*
X7500611Y35852492D02*
X7500611Y35744742D01*
X7500611Y35744742D02*
X7473673Y35663930D01*
X7473673Y35663930D02*
X7392861Y35529243D01*
X7392861Y35529243D02*
X7312049Y35448431D01*
X7312049Y35448431D02*
X7177362Y35367618D01*
X7177362Y35367618D02*
X7096550Y35340681D01*
X7096550Y35340681D02*
X6988800Y35340681D01*
X6988800Y35340681D02*
X6881050Y35394556D01*
X6881050Y35394556D02*
X6827176Y35448431D01*
X6827176Y35448431D02*
X6773301Y35556180D01*
X6773301Y35556180D02*
X6773301Y35610055D01*
X6773301Y35610055D02*
X6961863Y35798617D01*
X6961863Y35798617D02*
X7069612Y35690867D01*
X6476989Y35798617D02*
X7042675Y36364302D01*
X7042675Y36364302D02*
X6827176Y36579802D01*
X6827176Y36579802D02*
X6746363Y36606739D01*
X6746363Y36606739D02*
X6692489Y36606739D01*
X6692489Y36606739D02*
X6611676Y36579802D01*
X6611676Y36579802D02*
X6530864Y36498989D01*
X6530864Y36498989D02*
X6503927Y36418177D01*
X6503927Y36418177D02*
X6503927Y36364302D01*
X6503927Y36364302D02*
X6530864Y36283490D01*
X6530864Y36283490D02*
X6746363Y36067991D01*
X5884367Y36391240D02*
X5776617Y36498989D01*
X5776617Y36498989D02*
X5749680Y36579802D01*
X5749680Y36579802D02*
X5749680Y36633676D01*
X5749680Y36633676D02*
X5776617Y36768363D01*
X5776617Y36768363D02*
X5857429Y36903050D01*
X5857429Y36903050D02*
X6072928Y37118550D01*
X6072928Y37118550D02*
X6153741Y37145487D01*
X6153741Y37145487D02*
X6207615Y37145487D01*
X6207615Y37145487D02*
X6288428Y37118550D01*
X6288428Y37118550D02*
X6396177Y37010800D01*
X6396177Y37010800D02*
X6423115Y36929988D01*
X6423115Y36929988D02*
X6423115Y36876113D01*
X6423115Y36876113D02*
X6396177Y36795301D01*
X6396177Y36795301D02*
X6261490Y36660614D01*
X6261490Y36660614D02*
X6180678Y36633676D01*
X6180678Y36633676D02*
X6126803Y36633676D01*
X6126803Y36633676D02*
X6045991Y36660614D01*
X6045991Y36660614D02*
X5938241Y36768363D01*
X5938241Y36768363D02*
X5911304Y36849176D01*
X5911304Y36849176D02*
X5911304Y36903050D01*
X5911304Y36903050D02*
X5938241Y36983863D01*
X18403486Y30715616D02*
X18484298Y30688679D01*
X18484298Y30688679D02*
X18565110Y30607867D01*
X18565110Y30607867D02*
X18618985Y30500117D01*
X18618985Y30500117D02*
X18618985Y30392368D01*
X18618985Y30392368D02*
X18592048Y30311555D01*
X18592048Y30311555D02*
X18511235Y30176868D01*
X18511235Y30176868D02*
X18430423Y30096056D01*
X18430423Y30096056D02*
X18295736Y30015244D01*
X18295736Y30015244D02*
X18214924Y29988307D01*
X18214924Y29988307D02*
X18107174Y29988307D01*
X18107174Y29988307D02*
X17999425Y30042181D01*
X17999425Y30042181D02*
X17945550Y30096056D01*
X17945550Y30096056D02*
X17891675Y30203806D01*
X17891675Y30203806D02*
X17891675Y30257681D01*
X17891675Y30257681D02*
X18080237Y30446242D01*
X18080237Y30446242D02*
X18187987Y30338493D01*
X17595364Y30446242D02*
X18161049Y31011928D01*
X18161049Y31011928D02*
X17945550Y31227427D01*
X17945550Y31227427D02*
X17864738Y31254364D01*
X17864738Y31254364D02*
X17810863Y31254364D01*
X17810863Y31254364D02*
X17730051Y31227427D01*
X17730051Y31227427D02*
X17649239Y31146615D01*
X17649239Y31146615D02*
X17622301Y31065803D01*
X17622301Y31065803D02*
X17622301Y31011928D01*
X17622301Y31011928D02*
X17649239Y30931116D01*
X17649239Y30931116D02*
X17864738Y30715616D01*
X17568426Y31496801D02*
X17568426Y31550676D01*
X17568426Y31550676D02*
X17541489Y31631488D01*
X17541489Y31631488D02*
X17406802Y31766175D01*
X17406802Y31766175D02*
X17325990Y31793113D01*
X17325990Y31793113D02*
X17272115Y31793113D01*
X17272115Y31793113D02*
X17191303Y31766175D01*
X17191303Y31766175D02*
X17137428Y31712300D01*
X17137428Y31712300D02*
X17083553Y31604551D01*
X17083553Y31604551D02*
X17083553Y30958053D01*
X17083553Y30958053D02*
X16733367Y31308239D01*
X16814179Y32358798D02*
X16921929Y32251049D01*
X16921929Y32251049D02*
X16948866Y32170236D01*
X16948866Y32170236D02*
X16948866Y32116362D01*
X16948866Y32116362D02*
X16921929Y31981674D01*
X16921929Y31981674D02*
X16841116Y31846987D01*
X16841116Y31846987D02*
X16625617Y31631488D01*
X16625617Y31631488D02*
X16544805Y31604551D01*
X16544805Y31604551D02*
X16490930Y31604551D01*
X16490930Y31604551D02*
X16410118Y31631488D01*
X16410118Y31631488D02*
X16302368Y31739238D01*
X16302368Y31739238D02*
X16275431Y31820050D01*
X16275431Y31820050D02*
X16275431Y31873925D01*
X16275431Y31873925D02*
X16302368Y31954737D01*
X16302368Y31954737D02*
X16437055Y32089424D01*
X16437055Y32089424D02*
X16517868Y32116362D01*
X16517868Y32116362D02*
X16571742Y32116362D01*
X16571742Y32116362D02*
X16652555Y32089424D01*
X16652555Y32089424D02*
X16760304Y31981674D01*
X16760304Y31981674D02*
X16787242Y31900862D01*
X16787242Y31900862D02*
X16787242Y31846987D01*
X16787242Y31846987D02*
X16760304Y31766175D01*
X18349610Y24935245D02*
X18080236Y25204619D01*
X18241861Y24719746D02*
X18618984Y25473993D01*
X18618984Y25473993D02*
X17864737Y25096869D01*
X17918612Y26120490D02*
X17999424Y26093553D01*
X17999424Y26093553D02*
X18080237Y26012741D01*
X18080237Y26012741D02*
X18134111Y25904991D01*
X18134111Y25904991D02*
X18134111Y25797241D01*
X18134111Y25797241D02*
X18107174Y25716429D01*
X18107174Y25716429D02*
X18026362Y25581742D01*
X18026362Y25581742D02*
X17945550Y25500930D01*
X17945550Y25500930D02*
X17810863Y25420118D01*
X17810863Y25420118D02*
X17730050Y25393180D01*
X17730050Y25393180D02*
X17622301Y25393180D01*
X17622301Y25393180D02*
X17514551Y25447055D01*
X17514551Y25447055D02*
X17460676Y25500930D01*
X17460676Y25500930D02*
X17406802Y25608680D01*
X17406802Y25608680D02*
X17406802Y25662554D01*
X17406802Y25662554D02*
X17595363Y25851116D01*
X17595363Y25851116D02*
X17703113Y25743367D01*
X17110490Y25851116D02*
X17676176Y26416802D01*
X17676176Y26416802D02*
X16787241Y26174365D01*
X16787241Y26174365D02*
X17352927Y26740050D01*
X16517867Y26443739D02*
X17083553Y27009424D01*
X17083553Y27009424D02*
X16948866Y27144111D01*
X16948866Y27144111D02*
X16841116Y27197986D01*
X16841116Y27197986D02*
X16733367Y27197986D01*
X16733367Y27197986D02*
X16652554Y27171049D01*
X16652554Y27171049D02*
X16517867Y27090236D01*
X16517867Y27090236D02*
X16437055Y27009424D01*
X16437055Y27009424D02*
X16356243Y26874737D01*
X16356243Y26874737D02*
X16329306Y26793925D01*
X16329306Y26793925D02*
X16329306Y26686175D01*
X16329306Y26686175D02*
X16383180Y26578426D01*
X16383180Y26578426D02*
X16517867Y26443739D01*
X7554486Y43388616D02*
X7635298Y43361679D01*
X7635298Y43361679D02*
X7716110Y43280867D01*
X7716110Y43280867D02*
X7769985Y43173117D01*
X7769985Y43173117D02*
X7769985Y43065368D01*
X7769985Y43065368D02*
X7743048Y42984555D01*
X7743048Y42984555D02*
X7662235Y42849868D01*
X7662235Y42849868D02*
X7581423Y42769056D01*
X7581423Y42769056D02*
X7446736Y42688244D01*
X7446736Y42688244D02*
X7365924Y42661307D01*
X7365924Y42661307D02*
X7258174Y42661307D01*
X7258174Y42661307D02*
X7150425Y42715181D01*
X7150425Y42715181D02*
X7096550Y42769056D01*
X7096550Y42769056D02*
X7042675Y42876806D01*
X7042675Y42876806D02*
X7042675Y42930681D01*
X7042675Y42930681D02*
X7231237Y43119242D01*
X7231237Y43119242D02*
X7338987Y43011493D01*
X6746364Y43119242D02*
X7312049Y43684928D01*
X7312049Y43684928D02*
X7096550Y43900427D01*
X7096550Y43900427D02*
X7015738Y43927364D01*
X7015738Y43927364D02*
X6961863Y43927364D01*
X6961863Y43927364D02*
X6881051Y43900427D01*
X6881051Y43900427D02*
X6800239Y43819615D01*
X6800239Y43819615D02*
X6773301Y43738803D01*
X6773301Y43738803D02*
X6773301Y43684928D01*
X6773301Y43684928D02*
X6800239Y43604116D01*
X6800239Y43604116D02*
X7015738Y43388616D01*
X5884367Y43981239D02*
X6207616Y43657990D01*
X6045991Y43819615D02*
X6611677Y44385300D01*
X6611677Y44385300D02*
X6584739Y44250613D01*
X6584739Y44250613D02*
X6584739Y44142864D01*
X6584739Y44142864D02*
X6611677Y44062052D01*
X5345619Y44519987D02*
X5668868Y44196739D01*
X5507243Y44358363D02*
X6072929Y44924049D01*
X6072929Y44924049D02*
X6045991Y44789362D01*
X6045991Y44789362D02*
X6045991Y44681612D01*
X6045991Y44681612D02*
X6072929Y44600800D01*
X7312049Y25881054D02*
X7392861Y25854116D01*
X7392861Y25854116D02*
X7473673Y25773304D01*
X7473673Y25773304D02*
X7527548Y25665554D01*
X7527548Y25665554D02*
X7527548Y25557805D01*
X7527548Y25557805D02*
X7500610Y25476993D01*
X7500610Y25476993D02*
X7419798Y25342306D01*
X7419798Y25342306D02*
X7338986Y25261493D01*
X7338986Y25261493D02*
X7204299Y25180681D01*
X7204299Y25180681D02*
X7123487Y25153744D01*
X7123487Y25153744D02*
X7015737Y25153744D01*
X7015737Y25153744D02*
X6907988Y25207619D01*
X6907988Y25207619D02*
X6854113Y25261493D01*
X6854113Y25261493D02*
X6800238Y25369243D01*
X6800238Y25369243D02*
X6800238Y25423118D01*
X6800238Y25423118D02*
X6988800Y25611680D01*
X6988800Y25611680D02*
X7096549Y25503930D01*
X6503927Y25611680D02*
X7069612Y26177365D01*
X7069612Y26177365D02*
X6180678Y25934928D01*
X6180678Y25934928D02*
X6746363Y26500614D01*
X5911304Y26204302D02*
X6476989Y26769988D01*
X6476989Y26769988D02*
X6342302Y26904675D01*
X6342302Y26904675D02*
X6234553Y26958550D01*
X6234553Y26958550D02*
X6126803Y26958550D01*
X6126803Y26958550D02*
X6045991Y26931612D01*
X6045991Y26931612D02*
X5911304Y26850800D01*
X5911304Y26850800D02*
X5830492Y26769988D01*
X5830492Y26769988D02*
X5749680Y26635301D01*
X5749680Y26635301D02*
X5722742Y26554489D01*
X5722742Y26554489D02*
X5722742Y26446739D01*
X5722742Y26446739D02*
X5776617Y26338989D01*
X5776617Y26338989D02*
X5911304Y26204302D01*
X7654486Y53578616D02*
X7735298Y53551679D01*
X7735298Y53551679D02*
X7816110Y53470867D01*
X7816110Y53470867D02*
X7869985Y53363117D01*
X7869985Y53363117D02*
X7869985Y53255368D01*
X7869985Y53255368D02*
X7843048Y53174555D01*
X7843048Y53174555D02*
X7762235Y53039868D01*
X7762235Y53039868D02*
X7681423Y52959056D01*
X7681423Y52959056D02*
X7546736Y52878244D01*
X7546736Y52878244D02*
X7465924Y52851307D01*
X7465924Y52851307D02*
X7358174Y52851307D01*
X7358174Y52851307D02*
X7250425Y52905181D01*
X7250425Y52905181D02*
X7196550Y52959056D01*
X7196550Y52959056D02*
X7142675Y53066806D01*
X7142675Y53066806D02*
X7142675Y53120681D01*
X7142675Y53120681D02*
X7331237Y53309242D01*
X7331237Y53309242D02*
X7438987Y53201493D01*
X6846364Y53309242D02*
X7412049Y53874928D01*
X7412049Y53874928D02*
X7196550Y54090427D01*
X7196550Y54090427D02*
X7115738Y54117364D01*
X7115738Y54117364D02*
X7061863Y54117364D01*
X7061863Y54117364D02*
X6981051Y54090427D01*
X6981051Y54090427D02*
X6900239Y54009615D01*
X6900239Y54009615D02*
X6873301Y53928803D01*
X6873301Y53928803D02*
X6873301Y53874928D01*
X6873301Y53874928D02*
X6900239Y53794116D01*
X6900239Y53794116D02*
X7115738Y53578616D01*
X5984367Y54171239D02*
X6307616Y53847990D01*
X6145991Y54009615D02*
X6711677Y54575300D01*
X6711677Y54575300D02*
X6684739Y54440613D01*
X6684739Y54440613D02*
X6684739Y54332864D01*
X6684739Y54332864D02*
X6711677Y54252052D01*
X5876617Y55033236D02*
X5499494Y54656113D01*
X6226803Y55114049D02*
X5957429Y54575300D01*
X5957429Y54575300D02*
X5607243Y54925487D01*
X7285111Y33527991D02*
X7365924Y33501054D01*
X7365924Y33501054D02*
X7446736Y33420241D01*
X7446736Y33420241D02*
X7500611Y33312492D01*
X7500611Y33312492D02*
X7500611Y33204742D01*
X7500611Y33204742D02*
X7473673Y33123930D01*
X7473673Y33123930D02*
X7392861Y32989243D01*
X7392861Y32989243D02*
X7312049Y32908431D01*
X7312049Y32908431D02*
X7177362Y32827618D01*
X7177362Y32827618D02*
X7096550Y32800681D01*
X7096550Y32800681D02*
X6988800Y32800681D01*
X6988800Y32800681D02*
X6881050Y32854556D01*
X6881050Y32854556D02*
X6827176Y32908431D01*
X6827176Y32908431D02*
X6773301Y33016180D01*
X6773301Y33016180D02*
X6773301Y33070055D01*
X6773301Y33070055D02*
X6961863Y33258617D01*
X6961863Y33258617D02*
X7069612Y33150867D01*
X6476989Y33258617D02*
X7042675Y33824302D01*
X7042675Y33824302D02*
X6827176Y34039802D01*
X6827176Y34039802D02*
X6746363Y34066739D01*
X6746363Y34066739D02*
X6692489Y34066739D01*
X6692489Y34066739D02*
X6611676Y34039802D01*
X6611676Y34039802D02*
X6530864Y33958989D01*
X6530864Y33958989D02*
X6503927Y33878177D01*
X6503927Y33878177D02*
X6503927Y33824302D01*
X6503927Y33824302D02*
X6530864Y33743490D01*
X6530864Y33743490D02*
X6746363Y33527991D01*
X6153741Y34228363D02*
X6234553Y34201426D01*
X6234553Y34201426D02*
X6288428Y34201426D01*
X6288428Y34201426D02*
X6369240Y34228363D01*
X6369240Y34228363D02*
X6396177Y34255301D01*
X6396177Y34255301D02*
X6423115Y34336113D01*
X6423115Y34336113D02*
X6423115Y34389988D01*
X6423115Y34389988D02*
X6396177Y34470800D01*
X6396177Y34470800D02*
X6288428Y34578550D01*
X6288428Y34578550D02*
X6207615Y34605487D01*
X6207615Y34605487D02*
X6153741Y34605487D01*
X6153741Y34605487D02*
X6072928Y34578550D01*
X6072928Y34578550D02*
X6045991Y34551612D01*
X6045991Y34551612D02*
X6019054Y34470800D01*
X6019054Y34470800D02*
X6019054Y34416925D01*
X6019054Y34416925D02*
X6045991Y34336113D01*
X6045991Y34336113D02*
X6153741Y34228363D01*
X6153741Y34228363D02*
X6180678Y34147551D01*
X6180678Y34147551D02*
X6180678Y34093676D01*
X6180678Y34093676D02*
X6153741Y34012864D01*
X6153741Y34012864D02*
X6045991Y33905115D01*
X6045991Y33905115D02*
X5965179Y33878177D01*
X5965179Y33878177D02*
X5911304Y33878177D01*
X5911304Y33878177D02*
X5830492Y33905115D01*
X5830492Y33905115D02*
X5722742Y34012864D01*
X5722742Y34012864D02*
X5695805Y34093676D01*
X5695805Y34093676D02*
X5695805Y34147551D01*
X5695805Y34147551D02*
X5722742Y34228363D01*
X5722742Y34228363D02*
X5830492Y34336113D01*
X5830492Y34336113D02*
X5911304Y34363050D01*
X5911304Y34363050D02*
X5965179Y34363050D01*
X5965179Y34363050D02*
X6045991Y34336113D01*
X7285111Y20827991D02*
X7365924Y20801054D01*
X7365924Y20801054D02*
X7446736Y20720241D01*
X7446736Y20720241D02*
X7500611Y20612492D01*
X7500611Y20612492D02*
X7500611Y20504742D01*
X7500611Y20504742D02*
X7473673Y20423930D01*
X7473673Y20423930D02*
X7392861Y20289243D01*
X7392861Y20289243D02*
X7312049Y20208431D01*
X7312049Y20208431D02*
X7177362Y20127618D01*
X7177362Y20127618D02*
X7096550Y20100681D01*
X7096550Y20100681D02*
X6988800Y20100681D01*
X6988800Y20100681D02*
X6881050Y20154556D01*
X6881050Y20154556D02*
X6827176Y20208431D01*
X6827176Y20208431D02*
X6773301Y20316180D01*
X6773301Y20316180D02*
X6773301Y20370055D01*
X6773301Y20370055D02*
X6961863Y20558617D01*
X6961863Y20558617D02*
X7069612Y20450867D01*
X6476989Y20558617D02*
X7042675Y21124302D01*
X7042675Y21124302D02*
X6827176Y21339802D01*
X6827176Y21339802D02*
X6746363Y21366739D01*
X6746363Y21366739D02*
X6692489Y21366739D01*
X6692489Y21366739D02*
X6611676Y21339802D01*
X6611676Y21339802D02*
X6530864Y21258989D01*
X6530864Y21258989D02*
X6503927Y21178177D01*
X6503927Y21178177D02*
X6503927Y21124302D01*
X6503927Y21124302D02*
X6530864Y21043490D01*
X6530864Y21043490D02*
X6746363Y20827991D01*
X6045991Y21743863D02*
X5668867Y21366739D01*
X6396177Y21824675D02*
X6126803Y21285927D01*
X6126803Y21285927D02*
X5776617Y21636113D01*
X7312049Y51281054D02*
X7392861Y51254116D01*
X7392861Y51254116D02*
X7473673Y51173304D01*
X7473673Y51173304D02*
X7527548Y51065554D01*
X7527548Y51065554D02*
X7527548Y50957805D01*
X7527548Y50957805D02*
X7500610Y50876993D01*
X7500610Y50876993D02*
X7419798Y50742306D01*
X7419798Y50742306D02*
X7338986Y50661493D01*
X7338986Y50661493D02*
X7204299Y50580681D01*
X7204299Y50580681D02*
X7123487Y50553744D01*
X7123487Y50553744D02*
X7015737Y50553744D01*
X7015737Y50553744D02*
X6907988Y50607619D01*
X6907988Y50607619D02*
X6854113Y50661493D01*
X6854113Y50661493D02*
X6800238Y50769243D01*
X6800238Y50769243D02*
X6800238Y50823118D01*
X6800238Y50823118D02*
X6988800Y51011680D01*
X6988800Y51011680D02*
X7096549Y50903930D01*
X6503927Y51011680D02*
X7069612Y51577365D01*
X7069612Y51577365D02*
X6180678Y51334928D01*
X6180678Y51334928D02*
X6746363Y51900614D01*
X5911304Y51604302D02*
X6476989Y52169988D01*
X6476989Y52169988D02*
X6342302Y52304675D01*
X6342302Y52304675D02*
X6234553Y52358550D01*
X6234553Y52358550D02*
X6126803Y52358550D01*
X6126803Y52358550D02*
X6045991Y52331612D01*
X6045991Y52331612D02*
X5911304Y52250800D01*
X5911304Y52250800D02*
X5830492Y52169988D01*
X5830492Y52169988D02*
X5749680Y52035301D01*
X5749680Y52035301D02*
X5722742Y51954489D01*
X5722742Y51954489D02*
X5722742Y51846739D01*
X5722742Y51846739D02*
X5776617Y51738989D01*
X5776617Y51738989D02*
X5911304Y51604302D01*
X18403486Y45955616D02*
X18484298Y45928679D01*
X18484298Y45928679D02*
X18565110Y45847867D01*
X18565110Y45847867D02*
X18618985Y45740117D01*
X18618985Y45740117D02*
X18618985Y45632368D01*
X18618985Y45632368D02*
X18592048Y45551555D01*
X18592048Y45551555D02*
X18511235Y45416868D01*
X18511235Y45416868D02*
X18430423Y45336056D01*
X18430423Y45336056D02*
X18295736Y45255244D01*
X18295736Y45255244D02*
X18214924Y45228307D01*
X18214924Y45228307D02*
X18107174Y45228307D01*
X18107174Y45228307D02*
X17999425Y45282181D01*
X17999425Y45282181D02*
X17945550Y45336056D01*
X17945550Y45336056D02*
X17891675Y45443806D01*
X17891675Y45443806D02*
X17891675Y45497681D01*
X17891675Y45497681D02*
X18080237Y45686242D01*
X18080237Y45686242D02*
X18187987Y45578493D01*
X17595364Y45686242D02*
X18161049Y46251928D01*
X18161049Y46251928D02*
X17945550Y46467427D01*
X17945550Y46467427D02*
X17864738Y46494364D01*
X17864738Y46494364D02*
X17810863Y46494364D01*
X17810863Y46494364D02*
X17730051Y46467427D01*
X17730051Y46467427D02*
X17649239Y46386615D01*
X17649239Y46386615D02*
X17622301Y46305803D01*
X17622301Y46305803D02*
X17622301Y46251928D01*
X17622301Y46251928D02*
X17649239Y46171116D01*
X17649239Y46171116D02*
X17864738Y45955616D01*
X16733367Y46548239D02*
X17056616Y46224990D01*
X16894991Y46386615D02*
X17460677Y46952300D01*
X17460677Y46952300D02*
X17433739Y46817613D01*
X17433739Y46817613D02*
X17433739Y46709864D01*
X17433739Y46709864D02*
X17460677Y46629052D01*
X16463993Y46817613D02*
X16356243Y46925363D01*
X16356243Y46925363D02*
X16329306Y47006175D01*
X16329306Y47006175D02*
X16329306Y47060050D01*
X16329306Y47060050D02*
X16356243Y47194737D01*
X16356243Y47194737D02*
X16437055Y47329424D01*
X16437055Y47329424D02*
X16652555Y47544923D01*
X16652555Y47544923D02*
X16733367Y47571861D01*
X16733367Y47571861D02*
X16787242Y47571861D01*
X16787242Y47571861D02*
X16868054Y47544923D01*
X16868054Y47544923D02*
X16975803Y47437174D01*
X16975803Y47437174D02*
X17002741Y47356362D01*
X17002741Y47356362D02*
X17002741Y47302487D01*
X17002741Y47302487D02*
X16975803Y47221674D01*
X16975803Y47221674D02*
X16841116Y47086987D01*
X16841116Y47086987D02*
X16760304Y47060050D01*
X16760304Y47060050D02*
X16706429Y47060050D01*
X16706429Y47060050D02*
X16625617Y47086987D01*
X16625617Y47086987D02*
X16517868Y47194737D01*
X16517868Y47194737D02*
X16490930Y47275549D01*
X16490930Y47275549D02*
X16490930Y47329424D01*
X16490930Y47329424D02*
X16517868Y47410236D01*
X18403486Y53575616D02*
X18484298Y53548679D01*
X18484298Y53548679D02*
X18565110Y53467867D01*
X18565110Y53467867D02*
X18618985Y53360117D01*
X18618985Y53360117D02*
X18618985Y53252368D01*
X18618985Y53252368D02*
X18592048Y53171555D01*
X18592048Y53171555D02*
X18511235Y53036868D01*
X18511235Y53036868D02*
X18430423Y52956056D01*
X18430423Y52956056D02*
X18295736Y52875244D01*
X18295736Y52875244D02*
X18214924Y52848307D01*
X18214924Y52848307D02*
X18107174Y52848307D01*
X18107174Y52848307D02*
X17999425Y52902181D01*
X17999425Y52902181D02*
X17945550Y52956056D01*
X17945550Y52956056D02*
X17891675Y53063806D01*
X17891675Y53063806D02*
X17891675Y53117681D01*
X17891675Y53117681D02*
X18080237Y53306242D01*
X18080237Y53306242D02*
X18187987Y53198493D01*
X17595364Y53306242D02*
X18161049Y53871928D01*
X18161049Y53871928D02*
X17945550Y54087427D01*
X17945550Y54087427D02*
X17864738Y54114364D01*
X17864738Y54114364D02*
X17810863Y54114364D01*
X17810863Y54114364D02*
X17730051Y54087427D01*
X17730051Y54087427D02*
X17649239Y54006615D01*
X17649239Y54006615D02*
X17622301Y53925803D01*
X17622301Y53925803D02*
X17622301Y53871928D01*
X17622301Y53871928D02*
X17649239Y53791116D01*
X17649239Y53791116D02*
X17864738Y53575616D01*
X16733367Y54168239D02*
X17056616Y53844990D01*
X16894991Y54006615D02*
X17460677Y54572300D01*
X17460677Y54572300D02*
X17433739Y54437613D01*
X17433739Y54437613D02*
X17433739Y54329864D01*
X17433739Y54329864D02*
X17460677Y54249052D01*
X17110490Y54922487D02*
X16733367Y55299610D01*
X16733367Y55299610D02*
X16410118Y54491488D01*
X7285111Y23367991D02*
X7365924Y23341054D01*
X7365924Y23341054D02*
X7446736Y23260241D01*
X7446736Y23260241D02*
X7500611Y23152492D01*
X7500611Y23152492D02*
X7500611Y23044742D01*
X7500611Y23044742D02*
X7473673Y22963930D01*
X7473673Y22963930D02*
X7392861Y22829243D01*
X7392861Y22829243D02*
X7312049Y22748431D01*
X7312049Y22748431D02*
X7177362Y22667618D01*
X7177362Y22667618D02*
X7096550Y22640681D01*
X7096550Y22640681D02*
X6988800Y22640681D01*
X6988800Y22640681D02*
X6881050Y22694556D01*
X6881050Y22694556D02*
X6827176Y22748431D01*
X6827176Y22748431D02*
X6773301Y22856180D01*
X6773301Y22856180D02*
X6773301Y22910055D01*
X6773301Y22910055D02*
X6961863Y23098617D01*
X6961863Y23098617D02*
X7069612Y22990867D01*
X6476989Y23098617D02*
X7042675Y23664302D01*
X7042675Y23664302D02*
X6827176Y23879802D01*
X6827176Y23879802D02*
X6746363Y23906739D01*
X6746363Y23906739D02*
X6692489Y23906739D01*
X6692489Y23906739D02*
X6611676Y23879802D01*
X6611676Y23879802D02*
X6530864Y23798989D01*
X6530864Y23798989D02*
X6503927Y23718177D01*
X6503927Y23718177D02*
X6503927Y23664302D01*
X6503927Y23664302D02*
X6530864Y23583490D01*
X6530864Y23583490D02*
X6746363Y23367991D01*
X6207615Y24499362D02*
X6476989Y24229988D01*
X6476989Y24229988D02*
X6234553Y23933676D01*
X6234553Y23933676D02*
X6234553Y23987551D01*
X6234553Y23987551D02*
X6207615Y24068363D01*
X6207615Y24068363D02*
X6072928Y24203050D01*
X6072928Y24203050D02*
X5992116Y24229988D01*
X5992116Y24229988D02*
X5938241Y24229988D01*
X5938241Y24229988D02*
X5857429Y24203050D01*
X5857429Y24203050D02*
X5722742Y24068363D01*
X5722742Y24068363D02*
X5695805Y23987551D01*
X5695805Y23987551D02*
X5695805Y23933676D01*
X5695805Y23933676D02*
X5722742Y23852864D01*
X5722742Y23852864D02*
X5857429Y23718177D01*
X5857429Y23718177D02*
X5938241Y23691240D01*
X5938241Y23691240D02*
X5992116Y23691240D01*
X18403486Y55985616D02*
X18484298Y55958679D01*
X18484298Y55958679D02*
X18565110Y55877867D01*
X18565110Y55877867D02*
X18618985Y55770117D01*
X18618985Y55770117D02*
X18618985Y55662368D01*
X18618985Y55662368D02*
X18592048Y55581555D01*
X18592048Y55581555D02*
X18511235Y55446868D01*
X18511235Y55446868D02*
X18430423Y55366056D01*
X18430423Y55366056D02*
X18295736Y55285244D01*
X18295736Y55285244D02*
X18214924Y55258307D01*
X18214924Y55258307D02*
X18107174Y55258307D01*
X18107174Y55258307D02*
X17999425Y55312181D01*
X17999425Y55312181D02*
X17945550Y55366056D01*
X17945550Y55366056D02*
X17891675Y55473806D01*
X17891675Y55473806D02*
X17891675Y55527681D01*
X17891675Y55527681D02*
X18080237Y55716242D01*
X18080237Y55716242D02*
X18187987Y55608493D01*
X17595364Y55716242D02*
X18161049Y56281928D01*
X18161049Y56281928D02*
X17945550Y56497427D01*
X17945550Y56497427D02*
X17864738Y56524364D01*
X17864738Y56524364D02*
X17810863Y56524364D01*
X17810863Y56524364D02*
X17730051Y56497427D01*
X17730051Y56497427D02*
X17649239Y56416615D01*
X17649239Y56416615D02*
X17622301Y56335803D01*
X17622301Y56335803D02*
X17622301Y56281928D01*
X17622301Y56281928D02*
X17649239Y56201116D01*
X17649239Y56201116D02*
X17864738Y55985616D01*
X16733367Y56578239D02*
X17056616Y56254990D01*
X16894991Y56416615D02*
X17460677Y56982300D01*
X17460677Y56982300D02*
X17433739Y56847613D01*
X17433739Y56847613D02*
X17433739Y56739864D01*
X17433739Y56739864D02*
X17460677Y56659052D01*
X16814179Y57628798D02*
X16921929Y57521049D01*
X16921929Y57521049D02*
X16948866Y57440236D01*
X16948866Y57440236D02*
X16948866Y57386362D01*
X16948866Y57386362D02*
X16921929Y57251674D01*
X16921929Y57251674D02*
X16841116Y57116987D01*
X16841116Y57116987D02*
X16625617Y56901488D01*
X16625617Y56901488D02*
X16544805Y56874551D01*
X16544805Y56874551D02*
X16490930Y56874551D01*
X16490930Y56874551D02*
X16410118Y56901488D01*
X16410118Y56901488D02*
X16302368Y57009238D01*
X16302368Y57009238D02*
X16275431Y57090050D01*
X16275431Y57090050D02*
X16275431Y57143925D01*
X16275431Y57143925D02*
X16302368Y57224737D01*
X16302368Y57224737D02*
X16437055Y57359424D01*
X16437055Y57359424D02*
X16517868Y57386362D01*
X16517868Y57386362D02*
X16571742Y57386362D01*
X16571742Y57386362D02*
X16652555Y57359424D01*
X16652555Y57359424D02*
X16760304Y57251674D01*
X16760304Y57251674D02*
X16787242Y57170862D01*
X16787242Y57170862D02*
X16787242Y57116987D01*
X16787242Y57116987D02*
X16760304Y57036175D01*
%TO.C,D1*%
D11*
X20590000Y63745000D02*
X19690000Y63745000D01*
X19690000Y64645000D01*
X20590000Y63745000D01*
G36*
X20590000Y63745000D02*
G01*
X19690000Y63745000D01*
X19690000Y64645000D01*
X20590000Y63745000D01*
G37*
D12*
%TO.C,SW1*%
X9610000Y63845000D02*
X9610000Y68945000D01*
X13810000Y67745000D02*
X13810000Y72845000D01*
X9610000Y63845000D02*
G75*
G03*
X11610000Y61845000I1999999J-1D01*
G01*
X13810000Y67745000D02*
G75*
G03*
X15810000Y65745000I1999999J-1D01*
G01*
%TO.C,D3*%
D11*
X11700000Y84700000D02*
X10800000Y84700000D01*
X10800000Y85600000D01*
X11700000Y84700000D01*
G36*
X11700000Y84700000D02*
G01*
X10800000Y84700000D01*
X10800000Y85600000D01*
X11700000Y84700000D01*
G37*
D12*
%TO.C,SW3*%
X720000Y84800000D02*
X720000Y89900000D01*
X4920000Y88700000D02*
X4920000Y93800000D01*
X720000Y84800000D02*
G75*
G03*
X2720000Y82800000I1999999J-1D01*
G01*
X4920000Y88700000D02*
G75*
G03*
X6920000Y86700000I1999999J-1D01*
G01*
%TO.C,U1*%
X1565000Y55085000D02*
X1565000Y55485000D01*
X1565000Y52485000D02*
X1565000Y52885000D01*
X1565000Y49985000D02*
X1565000Y50385000D01*
X1565000Y47485000D02*
X1565000Y47885000D01*
X1565000Y44885000D02*
X1565000Y45285000D01*
X1565000Y42385000D02*
X1565000Y42785000D01*
X1565000Y39785000D02*
X1565000Y40185000D01*
X1565000Y37285000D02*
X1565000Y37685000D01*
X1565000Y34685000D02*
X1565000Y35085000D01*
X1565000Y32185000D02*
X1565000Y32585000D01*
X1565000Y29685000D02*
X1565000Y30085000D01*
X1565000Y27085000D02*
X1565000Y27485000D01*
X1565000Y24585000D02*
X1565000Y24985000D01*
X1565000Y21985000D02*
X1565000Y22385000D01*
X1565000Y19485000D02*
X1565000Y19885000D01*
X1565000Y16985000D02*
X1565000Y17385000D01*
X1565000Y14385000D02*
X1565000Y14785000D01*
X1565000Y11885000D02*
X1565000Y12285000D01*
X1565000Y9552000D02*
X4572000Y9552000D01*
X1565000Y9285000D02*
X1565000Y9685000D01*
X1565000Y6885000D02*
X1565000Y7185000D01*
X1565000Y6885000D02*
X22565000Y6885000D01*
X4572000Y9552000D02*
X4572000Y6885000D01*
X8365000Y57885000D02*
X1565000Y57885000D01*
X10565000Y57885000D02*
X10965000Y57885000D01*
X13165000Y57885000D02*
X13565000Y57885000D01*
X22565000Y57885000D02*
X15765000Y57885000D01*
X22565000Y55085000D02*
X22565000Y55485000D01*
X22565000Y52485000D02*
X22565000Y52885000D01*
X22565000Y49985000D02*
X22565000Y50385000D01*
X22565000Y47485000D02*
X22565000Y47885000D01*
X22565000Y44885000D02*
X22565000Y45285000D01*
X22565000Y42385000D02*
X22565000Y42785000D01*
X22565000Y39785000D02*
X22565000Y40185000D01*
X22565000Y37285000D02*
X22565000Y37685000D01*
X22565000Y34685000D02*
X22565000Y35085000D01*
X22565000Y32185000D02*
X22565000Y32585000D01*
X22565000Y29685000D02*
X22565000Y30085000D01*
X22565000Y27085000D02*
X22565000Y27485000D01*
X22565000Y24585000D02*
X22565000Y24985000D01*
X22565000Y21985000D02*
X22565000Y22385000D01*
X22565000Y19485000D02*
X22565000Y19885000D01*
X22565000Y16985000D02*
X22565000Y17385000D01*
X22565000Y14385000D02*
X22565000Y14785000D01*
X22565000Y11885000D02*
X22565000Y12285000D01*
X22565000Y9285000D02*
X22565000Y9685000D01*
X22565000Y6885000D02*
X22565000Y7185000D01*
%TD*%
M02*
