%TF.GenerationSoftware,KiCad,Pcbnew,7.0.2-0*%
%TF.CreationDate,2023-07-09T23:01:50-07:00*%
%TF.ProjectId,thumbs-down-hw,7468756d-6273-42d6-946f-776e2d68772e,rev?*%
%TF.SameCoordinates,PX80fd3d8PY8977a68*%
%TF.FileFunction,Profile,NP*%
%FSLAX46Y46*%
G04 Gerber Fmt 4.6, Leading zero omitted, Abs format (unit mm)*
G04 Created by KiCad (PCBNEW 7.0.2-0) date 2023-07-09 23:01:50*
%MOMM*%
%LPD*%
G01*
G04 APERTURE LIST*
%TA.AperFunction,Profile*%
%ADD10C,0.100000*%
%TD*%
G04 APERTURE END LIST*
D10*
X3175000Y97155000D02*
G75*
G03*
X0Y93980000I0J-3175000D01*
G01*
X17780000Y3810000D02*
G75*
G03*
X14605000Y6985000I-3175000J0D01*
G01*
X24315987Y54043013D02*
G75*
G03*
X24130000Y53594000I449013J-449013D01*
G01*
X28008013Y57843987D02*
X24315987Y54043013D01*
X9525000Y6985000D02*
G75*
G03*
X6350000Y3810000I0J-3175000D01*
G01*
X17145000Y96520000D02*
X17145000Y85471000D01*
X28194000Y84201000D02*
G75*
G03*
X27559000Y84836000I-635000J0D01*
G01*
X28008013Y57843987D02*
G75*
G03*
X28194000Y58293000I-449013J449013D01*
G01*
X9525000Y6985000D02*
X14605000Y6985000D01*
X0Y3175000D02*
G75*
G03*
X6350000Y3175000I3175000J0D01*
G01*
X0Y93980000D02*
X0Y3175000D01*
X17780000Y3810000D02*
X17780000Y3175000D01*
X6350000Y3175000D02*
X6350000Y3810000D01*
X24130000Y3175000D02*
X24130000Y53594000D01*
X17145000Y85471000D02*
G75*
G03*
X17780000Y84836000I635000J0D01*
G01*
X17780000Y3175000D02*
G75*
G03*
X24130000Y3175000I3175000J0D01*
G01*
X17145000Y96520000D02*
G75*
G03*
X16510000Y97155000I-635000J0D01*
G01*
X28194000Y84201000D02*
X28194000Y58293000D01*
X17780000Y84836000D02*
X27559000Y84836000D01*
X3175000Y97155000D02*
X16510000Y97155000D01*
%TO.C,D1*%
X22292842Y66245001D02*
X20887158Y66245001D01*
X20090000Y67150548D02*
X20090000Y68739452D01*
X23089999Y68739452D02*
X23089999Y67150547D01*
X20887158Y69644999D02*
X22292842Y69644999D01*
X20887158Y66245000D02*
G75*
G03*
X20670280Y66195515I-2J-499989D01*
G01*
X20021701Y66898289D02*
G75*
G03*
X20670281Y66195517I431700J-252259D01*
G01*
X22509720Y66195516D02*
G75*
G03*
X22292843Y66245001I-216876J-450505D01*
G01*
X22509720Y66195516D02*
G75*
G03*
X23158297Y66898289I216877J450515D01*
G01*
X23089999Y67150547D02*
G75*
G03*
X23158298Y66898289I500009J3D01*
G01*
X20021701Y66898289D02*
G75*
G03*
X20090000Y67150548I-431710J252261D01*
G01*
X23158299Y68991711D02*
G75*
G03*
X23090000Y68739453I431711J-252261D01*
G01*
X20089999Y68739452D02*
G75*
G03*
X20021701Y68991710I-500009J-2D01*
G01*
X20670278Y69694481D02*
G75*
G03*
X20021704Y68991711I-216878J-450511D01*
G01*
X20670281Y69694486D02*
G75*
G03*
X20887157Y69644999I216869J450454D01*
G01*
X23158299Y68991711D02*
G75*
G03*
X22509720Y69694483I-431699J252259D01*
G01*
X22292842Y69644999D02*
G75*
G03*
X22509720Y69694484I158J499301D01*
G01*
%TO.C,D3*%
X13402842Y87200001D02*
X11997158Y87200001D01*
X11200000Y88105548D02*
X11200000Y89694452D01*
X14199999Y89694452D02*
X14199999Y88105547D01*
X11997158Y90599999D02*
X13402842Y90599999D01*
X11997158Y87200000D02*
G75*
G03*
X11780280Y87150515I-2J-499989D01*
G01*
X11131701Y87853289D02*
G75*
G03*
X11780281Y87150517I431700J-252259D01*
G01*
X13619720Y87150516D02*
G75*
G03*
X13402843Y87200001I-216876J-450505D01*
G01*
X13619720Y87150516D02*
G75*
G03*
X14268297Y87853289I216877J450515D01*
G01*
X14199999Y88105547D02*
G75*
G03*
X14268298Y87853289I500009J3D01*
G01*
X11131701Y87853289D02*
G75*
G03*
X11200000Y88105548I-431710J252261D01*
G01*
X14268299Y89946711D02*
G75*
G03*
X14200000Y89694453I431711J-252261D01*
G01*
X11199999Y89694452D02*
G75*
G03*
X11131701Y89946710I-500009J-2D01*
G01*
X11780278Y90649481D02*
G75*
G03*
X11131704Y89946711I-216878J-450511D01*
G01*
X11780281Y90649486D02*
G75*
G03*
X11997157Y90599999I216869J450454D01*
G01*
X14268299Y89946711D02*
G75*
G03*
X13619720Y90649483I-431699J252259D01*
G01*
X13402842Y90599999D02*
G75*
G03*
X13619720Y90649484I158J499301D01*
G01*
%TD*%
M02*
