%TF.GenerationSoftware,KiCad,Pcbnew,7.0.2-0*%
%TF.CreationDate,2023-07-09T23:01:49-07:00*%
%TF.ProjectId,thumbs-down-hw,7468756d-6273-42d6-946f-776e2d68772e,rev?*%
%TF.SameCoordinates,PX80fd3d8PY8977a68*%
%TF.FileFunction,Soldermask,Top*%
%TF.FilePolarity,Negative*%
%FSLAX46Y46*%
G04 Gerber Fmt 4.6, Leading zero omitted, Abs format (unit mm)*
G04 Created by KiCad (PCBNEW 7.0.2-0) date 2023-07-09 23:01:49*
%MOMM*%
%LPD*%
G01*
G04 APERTURE LIST*
G04 Aperture macros list*
%AMRoundRect*
0 Rectangle with rounded corners*
0 $1 Rounding radius*
0 $2 $3 $4 $5 $6 $7 $8 $9 X,Y pos of 4 corners*
0 Add a 4 corners polygon primitive as box body*
4,1,4,$2,$3,$4,$5,$6,$7,$8,$9,$2,$3,0*
0 Add four circle primitives for the rounded corners*
1,1,$1+$1,$2,$3*
1,1,$1+$1,$4,$5*
1,1,$1+$1,$6,$7*
1,1,$1+$1,$8,$9*
0 Add four rect primitives between the rounded corners*
20,1,$1+$1,$2,$3,$4,$5,0*
20,1,$1+$1,$4,$5,$6,$7,0*
20,1,$1+$1,$6,$7,$8,$9,0*
20,1,$1+$1,$8,$9,$2,$3,0*%
%AMFreePoly0*
4,1,6,1.000000,0.000000,0.500000,-0.750000,-0.500000,-0.750000,-0.500000,0.750000,0.500000,0.750000,1.000000,0.000000,1.000000,0.000000,$1*%
%AMFreePoly1*
4,1,6,0.500000,-0.750000,-0.650000,-0.750000,-0.150000,0.000000,-0.650000,0.750000,0.500000,0.750000,0.500000,-0.750000,0.500000,-0.750000,$1*%
G04 Aperture macros list end*
%ADD10RoundRect,0.250000X-0.250000X-0.475000X0.250000X-0.475000X0.250000X0.475000X-0.250000X0.475000X0*%
%ADD11C,2.700000*%
%ADD12C,0.700000*%
%ADD13R,1.050000X1.400000*%
%ADD14RoundRect,0.250000X0.262500X0.450000X-0.262500X0.450000X-0.262500X-0.450000X0.262500X-0.450000X0*%
%ADD15C,1.600000*%
%ADD16C,1.750000*%
%ADD17C,3.000000*%
%ADD18C,4.000000*%
%ADD19RoundRect,1.145000X0.000000X1.395000X0.000000X-1.395000X0.000000X-1.395000X0.000000X1.395000X0*%
%ADD20C,1.204800*%
%ADD21RoundRect,0.304800X-0.905200X2.235200X-0.905200X-2.235200X0.905200X-2.235200X0.905200X2.235200X0*%
%ADD22FreePoly0,0.000000*%
%ADD23FreePoly1,0.000000*%
%ADD24RoundRect,0.317500X0.317500X-1.157500X0.317500X1.157500X-0.317500X1.157500X-0.317500X-1.157500X0*%
%ADD25C,1.524000*%
G04 APERTURE END LIST*
D10*
%TO.C,C6*%
X9210000Y59690000D03*
X11110000Y59690000D03*
%TD*%
D11*
%TO.C,H1*%
X3175000Y3175000D03*
%TD*%
D10*
%TO.C,C5*%
X6670000Y18415000D03*
X8570000Y18415000D03*
%TD*%
%TO.C,C1*%
X6670000Y34925000D03*
X8570000Y34925000D03*
%TD*%
D12*
%TO.C,SW10*%
X3440000Y68580000D03*
X1640000Y68580000D03*
D13*
X3260000Y70380000D03*
X3260000Y66780000D03*
X1820000Y70380000D03*
X1820000Y66780000D03*
%TD*%
D14*
%TO.C,R1*%
X17422500Y22860000D03*
X15597500Y22860000D03*
%TD*%
D11*
%TO.C,H4*%
X12065000Y78740000D03*
%TD*%
D10*
%TO.C,C3*%
X6670000Y28575000D03*
X8570000Y28575000D03*
%TD*%
D15*
%TO.C,A1*%
X4445000Y45085000D03*
X4445000Y42545000D03*
X4699000Y40005000D03*
X4699000Y37465000D03*
X4445000Y34925000D03*
X4445000Y32385000D03*
X4445000Y29845000D03*
X4699000Y27305000D03*
X4699000Y24765000D03*
X4445000Y22225000D03*
X4445000Y19685000D03*
X4445000Y17145000D03*
X4699000Y14605000D03*
X4699000Y12065000D03*
X4445000Y9525000D03*
X4445000Y6985000D03*
X19685000Y6985000D03*
X19685000Y9525000D03*
X19431000Y12065000D03*
X19431000Y14605000D03*
X19685000Y17145000D03*
X19685000Y19685000D03*
X19685000Y22225000D03*
X19431000Y24765000D03*
X19431000Y27305000D03*
X19685000Y29845000D03*
X19685000Y32385000D03*
X19685000Y34925000D03*
%TD*%
D10*
%TO.C,C10*%
X5400000Y65405000D03*
X7300000Y65405000D03*
%TD*%
D11*
%TO.C,H3*%
X3175000Y61595000D03*
%TD*%
D16*
%TO.C,SW1*%
X16510000Y62865000D03*
D17*
X13970000Y64135000D03*
D18*
X16510000Y67945000D03*
D17*
X11430000Y70485000D03*
D16*
X16510000Y73025000D03*
%TD*%
D10*
%TO.C,C4*%
X6670000Y15875000D03*
X8570000Y15875000D03*
%TD*%
D19*
%TO.C,AE1*%
X22225000Y81915000D03*
D20*
X22225000Y80195000D03*
D21*
X26605000Y81915000D03*
X17845000Y81915000D03*
%TD*%
D11*
%TO.C,H2*%
X20955000Y3175000D03*
%TD*%
D16*
%TO.C,SW3*%
X7620000Y83820000D03*
D17*
X5080000Y85090000D03*
D18*
X7620000Y88900000D03*
D17*
X2540000Y91440000D03*
D16*
X7620000Y93980000D03*
%TD*%
D10*
%TO.C,C9*%
X5400000Y72390000D03*
X7300000Y72390000D03*
%TD*%
D22*
%TO.C,JP1*%
X15785000Y33655000D03*
D23*
X17235000Y33655000D03*
%TD*%
D10*
%TO.C,C7*%
X16195000Y59690000D03*
X18095000Y59690000D03*
%TD*%
%TO.C,C2*%
X6670000Y31115000D03*
X8570000Y31115000D03*
%TD*%
%TO.C,R2*%
X15560000Y25400000D03*
X17460000Y25400000D03*
%TD*%
D12*
%TO.C,SW9*%
X3440000Y75565000D03*
X1640000Y75565000D03*
D13*
X3260000Y77365000D03*
X3260000Y73765000D03*
X1820000Y77365000D03*
X1820000Y73765000D03*
%TD*%
D24*
%TO.C,U2*%
X6716000Y41370000D03*
X8716000Y41370000D03*
X10716000Y41370000D03*
X12716000Y41370000D03*
X14716000Y41370000D03*
X16716000Y41370000D03*
X18716000Y41370000D03*
X20716000Y41370000D03*
X20716000Y56420000D03*
X18716000Y56420000D03*
X16716000Y56420000D03*
X14716000Y56420000D03*
X12716000Y56420000D03*
X10716000Y56420000D03*
X8716000Y56420000D03*
X6716000Y56420000D03*
%TD*%
D25*
%TO.C,U1*%
X1397000Y8255000D03*
X1397000Y10795000D03*
X1397000Y13335000D03*
X1397000Y15875000D03*
X1397000Y18415000D03*
X1397000Y20955000D03*
X1397000Y23495000D03*
X1397000Y26035000D03*
X1397000Y28575000D03*
X1397000Y31115000D03*
X1397000Y33655000D03*
X1397000Y36195000D03*
X1397000Y38735000D03*
X1397000Y41275000D03*
X1397000Y43815000D03*
X1397000Y46355000D03*
X1397000Y48895000D03*
X1397000Y51435000D03*
X1397000Y53975000D03*
X1270000Y56515000D03*
X22733000Y56515000D03*
X22733000Y53975000D03*
X22733000Y51435000D03*
X22733000Y48895000D03*
X22733000Y46355000D03*
X22733000Y43815000D03*
X22733000Y41275000D03*
X22733000Y38735000D03*
X22733000Y36195000D03*
X22733000Y33655000D03*
X22733000Y31115000D03*
X22733000Y28575000D03*
X22733000Y26035000D03*
X22733000Y23495000D03*
X22733000Y20955000D03*
X22733000Y18415000D03*
X22733000Y15875000D03*
X22733000Y13335000D03*
X22733000Y10795000D03*
X22733000Y8255000D03*
%TD*%
M02*
