%TF.GenerationSoftware,KiCad,Pcbnew,7.0.2-0*%
%TF.CreationDate,2023-07-09T23:01:49-07:00*%
%TF.ProjectId,thumbs-down-hw,7468756d-6273-42d6-946f-776e2d68772e,rev?*%
%TF.SameCoordinates,PX80fd3d8PY8977a68*%
%TF.FileFunction,Copper,L1,Top*%
%TF.FilePolarity,Positive*%
%FSLAX46Y46*%
G04 Gerber Fmt 4.6, Leading zero omitted, Abs format (unit mm)*
G04 Created by KiCad (PCBNEW 7.0.2-0) date 2023-07-09 23:01:49*
%MOMM*%
%LPD*%
G01*
G04 APERTURE LIST*
G04 Aperture macros list*
%AMRoundRect*
0 Rectangle with rounded corners*
0 $1 Rounding radius*
0 $2 $3 $4 $5 $6 $7 $8 $9 X,Y pos of 4 corners*
0 Add a 4 corners polygon primitive as box body*
4,1,4,$2,$3,$4,$5,$6,$7,$8,$9,$2,$3,0*
0 Add four circle primitives for the rounded corners*
1,1,$1+$1,$2,$3*
1,1,$1+$1,$4,$5*
1,1,$1+$1,$6,$7*
1,1,$1+$1,$8,$9*
0 Add four rect primitives between the rounded corners*
20,1,$1+$1,$2,$3,$4,$5,0*
20,1,$1+$1,$4,$5,$6,$7,0*
20,1,$1+$1,$6,$7,$8,$9,0*
20,1,$1+$1,$8,$9,$2,$3,0*%
%AMFreePoly0*
4,1,6,1.000000,0.000000,0.500000,-0.750000,-0.500000,-0.750000,-0.500000,0.750000,0.500000,0.750000,1.000000,0.000000,1.000000,0.000000,$1*%
%AMFreePoly1*
4,1,6,0.500000,-0.750000,-0.650000,-0.750000,-0.150000,0.000000,-0.650000,0.750000,0.500000,0.750000,0.500000,-0.750000,0.500000,-0.750000,$1*%
G04 Aperture macros list end*
%TA.AperFunction,SMDPad,CuDef*%
%ADD10RoundRect,0.250000X-0.250000X-0.475000X0.250000X-0.475000X0.250000X0.475000X-0.250000X0.475000X0*%
%TD*%
%TA.AperFunction,SMDPad,CuDef*%
%ADD11R,1.050000X1.400000*%
%TD*%
%TA.AperFunction,SMDPad,CuDef*%
%ADD12RoundRect,0.250000X0.262500X0.450000X-0.262500X0.450000X-0.262500X-0.450000X0.262500X-0.450000X0*%
%TD*%
%TA.AperFunction,ComponentPad*%
%ADD13C,1.600000*%
%TD*%
%TA.AperFunction,SMDPad,CuDef*%
%ADD14RoundRect,1.145000X0.000000X1.395000X0.000000X-1.395000X0.000000X-1.395000X0.000000X1.395000X0*%
%TD*%
%TA.AperFunction,ComponentPad*%
%ADD15C,1.204800*%
%TD*%
%TA.AperFunction,SMDPad,CuDef*%
%ADD16RoundRect,0.304800X-0.905200X2.235200X-0.905200X-2.235200X0.905200X-2.235200X0.905200X2.235200X0*%
%TD*%
%TA.AperFunction,SMDPad,CuDef*%
%ADD17RoundRect,0.304800X-0.905200X0.330200X-0.905200X-0.330200X0.905200X-0.330200X0.905200X0.330200X0*%
%TD*%
%TA.AperFunction,ComponentPad*%
%ADD18C,0.609600*%
%TD*%
%TA.AperFunction,SMDPad,CuDef*%
%ADD19FreePoly0,0.000000*%
%TD*%
%TA.AperFunction,SMDPad,CuDef*%
%ADD20FreePoly1,0.000000*%
%TD*%
%TA.AperFunction,SMDPad,CuDef*%
%ADD21RoundRect,0.317500X0.317500X-1.157500X0.317500X1.157500X-0.317500X1.157500X-0.317500X-1.157500X0*%
%TD*%
%TA.AperFunction,ComponentPad*%
%ADD22C,1.524000*%
%TD*%
%TA.AperFunction,ViaPad*%
%ADD23C,0.609600*%
%TD*%
%TA.AperFunction,Conductor*%
%ADD24C,0.203200*%
%TD*%
%TA.AperFunction,Conductor*%
%ADD25C,0.609600*%
%TD*%
%TA.AperFunction,Conductor*%
%ADD26C,0.304800*%
%TD*%
%TA.AperFunction,Conductor*%
%ADD27C,0.152400*%
%TD*%
%TA.AperFunction,Conductor*%
%ADD28C,1.270000*%
%TD*%
%TA.AperFunction,Conductor*%
%ADD29C,2.290000*%
%TD*%
G04 APERTURE END LIST*
D10*
%TO.P,C6,1*%
%TO.N,+3V3*%
X9210000Y59690000D03*
%TO.P,C6,2*%
%TO.N,GND*%
X11110000Y59690000D03*
%TD*%
%TO.P,C5,1*%
%TO.N,/GPIO3*%
X6670000Y18415000D03*
%TO.P,C5,2*%
%TO.N,GND*%
X8570000Y18415000D03*
%TD*%
%TO.P,C1,1*%
%TO.N,/GPIO10*%
X6670000Y34925000D03*
%TO.P,C1,2*%
%TO.N,GND*%
X8570000Y34925000D03*
%TD*%
D11*
%TO.P,SW10,1,1*%
%TO.N,/SW_V*%
X3260000Y70380000D03*
X3260000Y66780000D03*
%TO.P,SW10,2,2*%
%TO.N,/GPIO17*%
X1820000Y70380000D03*
X1820000Y66780000D03*
%TD*%
D12*
%TO.P,R1,1*%
%TO.N,+3V3*%
X17422500Y22860000D03*
%TO.P,R1,2*%
%TO.N,/SW_V*%
X15597500Y22860000D03*
%TD*%
D10*
%TO.P,C3,1*%
%TO.N,/GPIO6*%
X6670000Y28575000D03*
%TO.P,C3,2*%
%TO.N,GND*%
X8570000Y28575000D03*
%TD*%
D13*
%TO.P,A1,1,~{RESET}*%
%TO.N,/GPIO11*%
X4445000Y45085000D03*
%TO.P,A1,2,3V3*%
%TO.N,+3V3*%
X4445000Y42545000D03*
%TO.P,A1,3,AREF*%
%TO.N,unconnected-(A1-AREF-Pad3)*%
X4699000Y40005000D03*
%TO.P,A1,4,GND*%
%TO.N,GND*%
X4699000Y37465000D03*
%TO.P,A1,5,A0*%
%TO.N,unconnected-(A1-A0-Pad5)*%
X4445000Y34925000D03*
%TO.P,A1,6,A1*%
%TO.N,unconnected-(A1-A1-Pad6)*%
X4445000Y32385000D03*
%TO.P,A1,7,A2*%
%TO.N,unconnected-(A1-A2-Pad7)*%
X4445000Y29845000D03*
%TO.P,A1,8,A3*%
%TO.N,unconnected-(A1-A3-Pad8)*%
X4699000Y27305000D03*
%TO.P,A1,9,A4*%
%TO.N,unconnected-(A1-A4-Pad9)*%
X4699000Y24765000D03*
%TO.P,A1,10,A5*%
%TO.N,unconnected-(A1-A5-Pad10)*%
X4445000Y22225000D03*
%TO.P,A1,11,SCK*%
%TO.N,unconnected-(A1-SCK-Pad11)*%
X4445000Y19685000D03*
%TO.P,A1,12,MOSI*%
%TO.N,unconnected-(A1-MOSI-Pad12)*%
X4445000Y17145000D03*
%TO.P,A1,13,MISO*%
%TO.N,unconnected-(A1-MISO-Pad13)*%
X4699000Y14605000D03*
%TO.P,A1,14,RX*%
%TO.N,unconnected-(A1-RX-Pad14)*%
X4699000Y12065000D03*
%TO.P,A1,15,TX*%
%TO.N,unconnected-(A1-TX-Pad15)*%
X4445000Y9525000D03*
%TO.P,A1,16,SPARE*%
%TO.N,unconnected-(A1-SPARE-Pad16)*%
X4445000Y6985000D03*
%TO.P,A1,17,SDA*%
%TO.N,/DISP_SDA*%
X19685000Y6985000D03*
%TO.P,A1,18,SCL*%
%TO.N,/DISP_SCL*%
X19685000Y9525000D03*
%TO.P,A1,19,D0*%
%TO.N,/GPIO3*%
X19431000Y12065000D03*
%TO.P,A1,20,D1*%
%TO.N,/GPIO2*%
X19431000Y14605000D03*
%TO.P,A1,21,D2*%
%TO.N,/GPIO6*%
X19685000Y17145000D03*
%TO.P,A1,22,D3*%
%TO.N,unconnected-(A1-D3-Pad22)*%
X19685000Y19685000D03*
%TO.P,A1,23,D4*%
%TO.N,unconnected-(A1-D4-Pad23)*%
X19685000Y22225000D03*
%TO.P,A1,24,D5*%
%TO.N,unconnected-(A1-D5-Pad24)*%
X19431000Y24765000D03*
%TO.P,A1,25,D6*%
%TO.N,unconnected-(A1-D6-Pad25)*%
X19431000Y27305000D03*
%TO.P,A1,26,USB*%
%TO.N,+5V*%
X19685000Y29845000D03*
%TO.P,A1,27,EN*%
%TO.N,unconnected-(A1-EN-Pad27)*%
X19685000Y32385000D03*
%TO.P,A1,28,VBAT*%
%TO.N,unconnected-(A1-VBAT-Pad28)*%
X19685000Y34925000D03*
%TD*%
D10*
%TO.P,C10,1*%
%TO.N,/GPIO17*%
X5400000Y65405000D03*
%TO.P,C10,2*%
%TO.N,GND*%
X7300000Y65405000D03*
%TD*%
%TO.P,C4,1*%
%TO.N,/GPIO2*%
X6670000Y15875000D03*
%TO.P,C4,2*%
%TO.N,GND*%
X8570000Y15875000D03*
%TD*%
D14*
%TO.P,AE1,1,A*%
%TO.N,/RFM_ANT*%
X22225000Y81915000D03*
D15*
X22225000Y80195000D03*
D16*
%TO.P,AE1,2,Shield*%
%TO.N,GND*%
X26605000Y81915000D03*
X17845000Y81915000D03*
D17*
X26605000Y79382200D03*
X17845000Y79382200D03*
D18*
X27508200Y79052000D03*
X26593800Y79052000D03*
X25704800Y79052000D03*
X18745200Y79052000D03*
X17856200Y79052000D03*
X16941800Y79052000D03*
%TD*%
D10*
%TO.P,C9,1*%
%TO.N,/GPIO16*%
X5400000Y72390000D03*
%TO.P,C9,2*%
%TO.N,GND*%
X7300000Y72390000D03*
%TD*%
D19*
%TO.P,JP1,1,A*%
%TO.N,/GPIO11*%
X15785000Y33655000D03*
D20*
%TO.P,JP1,2,B*%
%TO.N,/PICO_RESET*%
X17235000Y33655000D03*
%TD*%
D10*
%TO.P,C7,1*%
%TO.N,+5V*%
X16195000Y59690000D03*
%TO.P,C7,2*%
%TO.N,GND*%
X18095000Y59690000D03*
%TD*%
%TO.P,C2,1*%
%TO.N,/GPIO7*%
X6670000Y31115000D03*
%TO.P,C2,2*%
%TO.N,GND*%
X8570000Y31115000D03*
%TD*%
%TO.P,R2,1*%
%TO.N,/SW_V*%
X15560000Y25400000D03*
%TO.P,R2,2*%
%TO.N,GND*%
X17460000Y25400000D03*
%TD*%
D11*
%TO.P,SW9,1,1*%
%TO.N,/SW_V*%
X3260000Y77365000D03*
X3260000Y73765000D03*
%TO.P,SW9,2,2*%
%TO.N,/GPIO16*%
X1820000Y77365000D03*
X1820000Y73765000D03*
%TD*%
D21*
%TO.P,U2,1,GND*%
%TO.N,GND*%
X6716000Y41370000D03*
%TO.P,U2,2,MISO*%
%TO.N,/RFM_MISO*%
X8716000Y41370000D03*
%TO.P,U2,3,MOSI*%
%TO.N,/RFM_MOSI*%
X10716000Y41370000D03*
%TO.P,U2,4,SCK*%
%TO.N,/RFM_SCK*%
X12716000Y41370000D03*
%TO.P,U2,5,NSS*%
%TO.N,/RFM_CSn*%
X14716000Y41370000D03*
%TO.P,U2,6,RESET*%
%TO.N,/RFM_RESET*%
X16716000Y41370000D03*
%TO.P,U2,7,DIO5*%
%TO.N,unconnected-(U2-DIO5-Pad7)*%
X18716000Y41370000D03*
%TO.P,U2,8,GND*%
%TO.N,GND*%
X20716000Y41370000D03*
%TO.P,U2,9,ANT*%
%TO.N,/RFM_ANT*%
X20716000Y56420000D03*
%TO.P,U2,10,GND*%
%TO.N,GND*%
X18716000Y56420000D03*
%TO.P,U2,11,DIO3*%
%TO.N,unconnected-(U2-DIO3-Pad11)*%
X16716000Y56420000D03*
%TO.P,U2,12,DIO4*%
%TO.N,unconnected-(U2-DIO4-Pad12)*%
X14716000Y56420000D03*
%TO.P,U2,13,3.3V*%
%TO.N,+3V3*%
X12716000Y56420000D03*
%TO.P,U2,14,DIO0*%
%TO.N,unconnected-(U2-DIO0-Pad14)*%
X10716000Y56420000D03*
%TO.P,U2,15,DIO1*%
%TO.N,unconnected-(U2-DIO1-Pad15)*%
X8716000Y56420000D03*
%TO.P,U2,16,DIO2*%
%TO.N,unconnected-(U2-DIO2-Pad16)*%
X6716000Y56420000D03*
%TD*%
D22*
%TO.P,U1,1,GPIO0*%
%TO.N,/DISP_SDA*%
X1397000Y8255000D03*
%TO.P,U1,2,GPIO1*%
%TO.N,/DISP_SCL*%
X1397000Y10795000D03*
%TO.P,U1,3,GND*%
%TO.N,GND*%
X1397000Y13335000D03*
%TO.P,U1,4,GPIO2*%
%TO.N,/GPIO2*%
X1397000Y15875000D03*
%TO.P,U1,5,GPIO3*%
%TO.N,/GPIO3*%
X1397000Y18415000D03*
%TO.P,U1,6,GPIO4*%
%TO.N,/GPIO4*%
X1397000Y20955000D03*
%TO.P,U1,7,GPIO5*%
%TO.N,/GPIO5*%
X1397000Y23495000D03*
%TO.P,U1,8,GND*%
%TO.N,GND*%
X1397000Y26035000D03*
%TO.P,U1,9,GPIO6*%
%TO.N,/GPIO6*%
X1397000Y28575000D03*
%TO.P,U1,10,GPIO7*%
%TO.N,/GPIO7*%
X1397000Y31115000D03*
%TO.P,U1,11,GPIO8*%
%TO.N,/GPIO8*%
X1397000Y33655000D03*
%TO.P,U1,12,GPIO9*%
%TO.N,/GPIO9*%
X1397000Y36195000D03*
%TO.P,U1,13,GND*%
%TO.N,GND*%
X1397000Y38735000D03*
%TO.P,U1,14,GPIO10*%
%TO.N,/GPIO10*%
X1397000Y41275000D03*
%TO.P,U1,15,GPIO11*%
%TO.N,/GPIO11*%
X1397000Y43815000D03*
%TO.P,U1,16,GPIO12*%
%TO.N,/RFM_MISO*%
X1397000Y46355000D03*
%TO.P,U1,17,GPIO13*%
%TO.N,/RFM_CSn*%
X1397000Y48895000D03*
%TO.P,U1,18,GND*%
%TO.N,GND*%
X1397000Y51435000D03*
%TO.P,U1,19,GPIO14*%
%TO.N,/RFM_SCK*%
X1397000Y53975000D03*
%TO.P,U1,20,GPIO15*%
%TO.N,/RFM_MOSI*%
X1270000Y56515000D03*
%TO.P,U1,21,GPIO16*%
%TO.N,/GPIO16*%
X22733000Y56515000D03*
%TO.P,U1,22,GPIO17*%
%TO.N,/GPIO17*%
X22733000Y53975000D03*
%TO.P,U1,23,GND*%
%TO.N,GND*%
X22733000Y51435000D03*
%TO.P,U1,24,GPIO18*%
%TO.N,/GPIO18*%
X22733000Y48895000D03*
%TO.P,U1,25,GPIO19*%
%TO.N,/GPIO19*%
X22733000Y46355000D03*
%TO.P,U1,26,GPIO20*%
%TO.N,/GPIO20*%
X22733000Y43815000D03*
%TO.P,U1,27,GPIO21*%
%TO.N,/GPIO21*%
X22733000Y41275000D03*
%TO.P,U1,28,GND*%
%TO.N,GND*%
X22733000Y38735000D03*
%TO.P,U1,29,GPIO22*%
%TO.N,/RFM_RESET*%
X22733000Y36195000D03*
%TO.P,U1,30,RUN*%
%TO.N,/PICO_RESET*%
X22733000Y33655000D03*
%TO.P,U1,31,GPIO26_ADC0*%
%TO.N,/GPIO26*%
X22733000Y31115000D03*
%TO.P,U1,32,GPIO27_ADC1*%
%TO.N,/GPIO27*%
X22733000Y28575000D03*
%TO.P,U1,33,AGND*%
%TO.N,GND*%
X22733000Y26035000D03*
%TO.P,U1,34,GPIO28_ADC2*%
%TO.N,/LED_DI_1*%
X22733000Y23495000D03*
%TO.P,U1,35,ADC_VREF*%
%TO.N,unconnected-(U1-ADC_VREF-Pad35)*%
X22733000Y20955000D03*
%TO.P,U1,36,3V3*%
%TO.N,+3V3*%
X22733000Y18415000D03*
%TO.P,U1,37,3V3_EN*%
%TO.N,unconnected-(U1-3V3_EN-Pad37)*%
X22733000Y15875000D03*
%TO.P,U1,38,GND*%
%TO.N,GND*%
X22733000Y13335000D03*
%TO.P,U1,39,VSYS*%
%TO.N,/VSYS*%
X22733000Y10795000D03*
%TO.P,U1,40,VBUS*%
%TO.N,+5V*%
X22733000Y8255000D03*
%TD*%
D23*
%TO.N,GND*%
X9271000Y34290000D03*
%TO.N,/GPIO10*%
X6413500Y38163500D03*
%TO.N,GND*%
X9906000Y62611000D03*
X27305000Y73025000D03*
X9271000Y15240000D03*
X7112000Y39624000D03*
X27305000Y65405000D03*
X11811000Y59309000D03*
X19939000Y44577000D03*
X19685000Y75565000D03*
X19685000Y59055000D03*
X27305000Y66675000D03*
X19939000Y64770000D03*
X24130000Y55880000D03*
X20955000Y74295000D03*
X27305000Y64135000D03*
X27305000Y71755000D03*
X27305000Y67945000D03*
X19913600Y38709600D03*
X22225000Y62865000D03*
X20955000Y60325000D03*
X20320000Y74930000D03*
X19050000Y76200000D03*
X17780000Y24511000D03*
X9271000Y27940000D03*
X21590000Y60960000D03*
X19939000Y65659000D03*
X27305000Y75565000D03*
X27305000Y69215000D03*
X27305000Y61595000D03*
X22225000Y73025000D03*
X27305000Y70485000D03*
X24765000Y56515000D03*
X27305000Y62865000D03*
X9271000Y19050000D03*
X9271000Y30480000D03*
X20320000Y59690000D03*
X27305000Y60325000D03*
X27305000Y74295000D03*
X19939000Y71120000D03*
X9906000Y68326000D03*
X22225000Y61595000D03*
X11811000Y60071000D03*
X6985000Y36576000D03*
X7112000Y43180000D03*
X18415000Y54737000D03*
X21590000Y73660000D03*
X9271000Y46101000D03*
X26035000Y57785000D03*
X27305000Y59055000D03*
X27305000Y76835000D03*
X26670000Y58420000D03*
X19939000Y70231000D03*
X25400000Y57150000D03*
%TO.N,/GPIO11*%
X11557000Y34163000D03*
X15748000Y32512000D03*
%TO.N,+5V*%
X19812000Y73660000D03*
X12065000Y31623000D03*
X15367000Y31623000D03*
X8382000Y38481000D03*
X9652000Y54737000D03*
X14605000Y91440000D03*
%TO.N,/LED_DI_1*%
X15748000Y54737000D03*
X22098000Y64262000D03*
X17272000Y53213000D03*
%TO.N,+3V3*%
X7033598Y44142730D03*
X9652000Y58420000D03*
%TO.N,/SW_V*%
X10160000Y37846000D03*
X12573000Y61976000D03*
X5080000Y77343000D03*
X5080000Y73787000D03*
X7747000Y61214000D03*
X9906000Y61214000D03*
X5080000Y66802000D03*
X5080000Y70358000D03*
%TD*%
D24*
%TO.N,GND*%
X8636000Y34925000D02*
X9271000Y34290000D01*
X8570000Y34925000D02*
X8636000Y34925000D01*
%TO.N,/GPIO6*%
X19685000Y17145000D02*
X17145000Y17145000D01*
X17145000Y17145000D02*
X6670000Y27620000D01*
X6670000Y27620000D02*
X6670000Y28575000D01*
%TO.N,/GPIO7*%
X1397000Y31115000D02*
X6670000Y31115000D01*
%TO.N,/GPIO6*%
X1397000Y28575000D02*
X6670000Y28575000D01*
%TO.N,/DISP_SCL*%
X1397000Y10795000D02*
X18415000Y10795000D01*
X18415000Y10795000D02*
X19685000Y9525000D01*
%TO.N,/DISP_SDA*%
X1397000Y8255000D02*
X18415000Y8255000D01*
X18415000Y8255000D02*
X19685000Y6985000D01*
%TO.N,/GPIO3*%
X20701000Y13335000D02*
X20701000Y15113000D01*
X9271000Y17145000D02*
X7620000Y17145000D01*
X20701000Y15113000D02*
X19939000Y15875000D01*
X19939000Y15875000D02*
X10541000Y15875000D01*
X19431000Y12065000D02*
X20701000Y13335000D01*
X10541000Y15875000D02*
X9271000Y17145000D01*
X6670000Y18095000D02*
X6670000Y18415000D01*
X7620000Y17145000D02*
X6670000Y18095000D01*
%TO.N,/GPIO2*%
X6670000Y15555000D02*
X7620000Y14605000D01*
X6670000Y15875000D02*
X6670000Y15555000D01*
X7620000Y14605000D02*
X19431000Y14605000D01*
%TO.N,/GPIO10*%
X7747000Y36830000D02*
X6413500Y38163500D01*
X6413500Y38163500D02*
X5842000Y38735000D01*
X5842000Y38735000D02*
X4064000Y38735000D01*
X6670000Y34925000D02*
X7747000Y36002000D01*
X7747000Y36002000D02*
X7747000Y36830000D01*
X4064000Y38735000D02*
X1524000Y41275000D01*
X1524000Y41275000D02*
X1397000Y41275000D01*
%TO.N,GND*%
X8636000Y31115000D02*
X9271000Y30480000D01*
D25*
X20320000Y59690000D02*
X20955000Y60325000D01*
X27305000Y65405000D02*
X27305000Y64135000D01*
X25400000Y57150000D02*
X24765000Y56515000D01*
D24*
X16941800Y79052000D02*
X16941800Y78892400D01*
D25*
X21590000Y73660000D02*
X22225000Y73025000D01*
D24*
X22733000Y64643000D02*
X22098000Y65278000D01*
D26*
X1397000Y51435000D02*
X3937000Y51435000D01*
D24*
X8636000Y15875000D02*
X9271000Y15240000D01*
D25*
X18716000Y55038000D02*
X18415000Y54737000D01*
X21590000Y60960000D02*
X22225000Y61595000D01*
X27305000Y60325000D02*
X27305000Y59055000D01*
D24*
X22733000Y63627000D02*
X22733000Y64643000D01*
X19939000Y65659000D02*
X19939000Y64770000D01*
D25*
X20320000Y71120000D02*
X19939000Y71120000D01*
X26593800Y77546200D02*
X26593800Y78721800D01*
X6716000Y40020000D02*
X7112000Y39624000D01*
X26670000Y58420000D02*
X26035000Y57785000D01*
D24*
X11110000Y59690000D02*
X11430000Y59690000D01*
X9271000Y68961000D02*
X9906000Y68326000D01*
D25*
X18716000Y56420000D02*
X18716000Y58086000D01*
X27305000Y73025000D02*
X27305000Y71755000D01*
D24*
X27508200Y79052000D02*
X27508200Y78892400D01*
D25*
X20716000Y41370000D02*
X20716000Y43800000D01*
X18716000Y58086000D02*
X19685000Y59055000D01*
X20716000Y39512000D02*
X19913600Y38709600D01*
D24*
X20320000Y65278000D02*
X19939000Y65659000D01*
D25*
X17856200Y79052000D02*
X17856200Y77393800D01*
X24765000Y56515000D02*
X24130000Y55880000D01*
D24*
X11430000Y59690000D02*
X11811000Y59309000D01*
X22098000Y65278000D02*
X20320000Y65278000D01*
X8570000Y31115000D02*
X8636000Y31115000D01*
X8636000Y18415000D02*
X9271000Y19050000D01*
D25*
X6716000Y41370000D02*
X6716000Y42784000D01*
X27305000Y67945000D02*
X27305000Y66675000D01*
D24*
X8890000Y70612000D02*
X9271000Y70231000D01*
X8570000Y18415000D02*
X8636000Y18415000D01*
X16941800Y78892400D02*
X16662400Y78613000D01*
X22225000Y62865000D02*
X22225000Y63119000D01*
D25*
X27305000Y75565000D02*
X27305000Y74295000D01*
X6716000Y42784000D02*
X7112000Y43180000D01*
D26*
X17460000Y24831000D02*
X17780000Y24511000D01*
D25*
X22225000Y73025000D02*
X20320000Y71120000D01*
D26*
X4699000Y37465000D02*
X6096000Y37465000D01*
D24*
X8570000Y28575000D02*
X8636000Y28575000D01*
X8570000Y15875000D02*
X8636000Y15875000D01*
D25*
X18716000Y56420000D02*
X18716000Y55038000D01*
D24*
X7300000Y65217000D02*
X9906000Y62611000D01*
D26*
X6096000Y37465000D02*
X6985000Y36576000D01*
D25*
X20716000Y43800000D02*
X19939000Y44577000D01*
D26*
X2667000Y37465000D02*
X4699000Y37465000D01*
D25*
X27305000Y76835000D02*
X26593800Y77546200D01*
D24*
X7300000Y72202000D02*
X8890000Y70612000D01*
D26*
X1397000Y38735000D02*
X2667000Y37465000D01*
D25*
X19050000Y76200000D02*
X19685000Y75565000D01*
D24*
X22225000Y63119000D02*
X22733000Y63627000D01*
D25*
X6716000Y41370000D02*
X6716000Y40020000D01*
D24*
X7300000Y72390000D02*
X7300000Y72202000D01*
D25*
X20716000Y41370000D02*
X20716000Y39512000D01*
D26*
X9271000Y46101000D02*
X3937000Y51435000D01*
D25*
X27305000Y70485000D02*
X27305000Y69215000D01*
D24*
X8570000Y34925000D02*
X8570000Y34864000D01*
D26*
X17460000Y25400000D02*
X17460000Y24831000D01*
D24*
X8636000Y28575000D02*
X9271000Y27940000D01*
D25*
X27305000Y62865000D02*
X27305000Y61595000D01*
X17856200Y77393800D02*
X19050000Y76200000D01*
D24*
X7300000Y65405000D02*
X7300000Y64836000D01*
X9271000Y70231000D02*
X9271000Y68961000D01*
X27508200Y78892400D02*
X27787600Y78613000D01*
X7300000Y65405000D02*
X7300000Y65217000D01*
X11430000Y59690000D02*
X11811000Y60071000D01*
D25*
X20320000Y74930000D02*
X20955000Y74295000D01*
D27*
%TO.N,/GPIO11*%
X15785000Y32549000D02*
X15748000Y32512000D01*
D24*
X5827000Y40386000D02*
X5827000Y39893000D01*
X5827000Y39893000D02*
X11557000Y34163000D01*
X1397000Y43815000D02*
X3175000Y43815000D01*
D27*
X15748000Y32512000D02*
X15748000Y33618000D01*
D24*
X5154000Y41059000D02*
X5827000Y40386000D01*
X3175000Y43815000D02*
X4445000Y45085000D01*
X3175000Y43815000D02*
X3175000Y42324418D01*
D27*
X15748000Y33618000D02*
X15785000Y33655000D01*
D24*
X3175000Y42324418D02*
X4440418Y41059000D01*
X4440418Y41059000D02*
X5154000Y41059000D01*
%TO.N,/GPIO16*%
X6985000Y59563000D02*
X7747000Y58801000D01*
X7747000Y55105777D02*
X8674077Y54178700D01*
X2244000Y76941000D02*
X1820000Y77365000D01*
X21285700Y54178700D02*
X22733000Y55626000D01*
X6350000Y71440000D02*
X6350000Y64135000D01*
X7747000Y58801000D02*
X7747000Y55105777D01*
X8674077Y54178700D02*
X21285700Y54178700D01*
X2902000Y72390000D02*
X1820000Y73472000D01*
X1820000Y73765000D02*
X2244000Y74189000D01*
X22733000Y55626000D02*
X22733000Y56515000D01*
X6350000Y64135000D02*
X6985000Y63500000D01*
X6985000Y63500000D02*
X6985000Y59563000D01*
X5400000Y72390000D02*
X6350000Y71440000D01*
X1820000Y73472000D02*
X1820000Y73765000D01*
X2244000Y74189000D02*
X2244000Y76941000D01*
X5400000Y72390000D02*
X2902000Y72390000D01*
%TO.N,/GPIO17*%
X5827000Y59040000D02*
X6350000Y59563000D01*
X5400000Y65405000D02*
X3020000Y65405000D01*
X2244000Y67379000D02*
X2244000Y69956000D01*
X21655370Y53975000D02*
X21451670Y53771300D01*
X1820000Y66780000D02*
X1820000Y66955000D01*
X5827000Y55025777D02*
X5827000Y59040000D01*
X2244000Y69956000D02*
X1820000Y70380000D01*
X6350000Y63246000D02*
X5400000Y64196000D01*
X6350000Y59563000D02*
X6350000Y63246000D01*
X21451670Y53771300D02*
X7081477Y53771300D01*
X5400000Y64196000D02*
X5400000Y65405000D01*
X1820000Y66955000D02*
X2244000Y67379000D01*
X1820000Y66605000D02*
X1820000Y66780000D01*
X7081477Y53771300D02*
X5827000Y55025777D01*
X22733000Y53975000D02*
X21655370Y53975000D01*
X3020000Y65405000D02*
X1820000Y66605000D01*
%TO.N,/GPIO2*%
X6670000Y15875000D02*
X1397000Y15875000D01*
%TO.N,/GPIO3*%
X6670000Y18415000D02*
X1397000Y18415000D01*
D26*
%TO.N,+5V*%
X9652000Y54737000D02*
X9748800Y54640200D01*
D25*
X12319000Y33528000D02*
X12319000Y34544000D01*
X17513200Y18427800D02*
X12065000Y23876000D01*
D26*
X19050000Y63500000D02*
X16195000Y60645000D01*
X13716000Y57775065D02*
X14233935Y58293000D01*
D25*
X12319000Y34544000D02*
X11303000Y35560000D01*
D26*
X14605000Y91440000D02*
X16256000Y89789000D01*
X19050000Y73660000D02*
X19050000Y71755000D01*
X17907000Y31623000D02*
X16891000Y31623000D01*
D25*
X11303000Y35560000D02*
X8382000Y38481000D01*
D26*
X16195000Y59629000D02*
X16195000Y59690000D01*
X13716000Y54991000D02*
X13716000Y57775065D01*
D25*
X21336000Y17272000D02*
X20180200Y18427800D01*
X20180200Y18427800D02*
X17513200Y18427800D01*
D26*
X16256000Y89789000D02*
X16256000Y76454000D01*
D25*
X12065000Y23876000D02*
X12065000Y31623000D01*
X22733000Y8255000D02*
X21336000Y9652000D01*
D26*
X14859000Y58293000D02*
X16195000Y59629000D01*
X13365200Y54640200D02*
X13716000Y54991000D01*
D25*
X12065000Y33274000D02*
X12319000Y33528000D01*
D26*
X16256000Y76454000D02*
X19050000Y73660000D01*
X16891000Y31623000D02*
X15367000Y31623000D01*
D24*
X19812000Y73660000D02*
X19050000Y73660000D01*
D26*
X19050000Y71755000D02*
X19050000Y63500000D01*
D25*
X12065000Y31623000D02*
X12065000Y33274000D01*
D26*
X9748800Y54640200D02*
X13365200Y54640200D01*
D25*
X21336000Y9652000D02*
X21336000Y17272000D01*
D26*
X14233935Y58293000D02*
X14859000Y58293000D01*
X19685000Y29845000D02*
X17907000Y31623000D01*
X16195000Y60645000D02*
X16195000Y59690000D01*
D24*
%TO.N,/LED_DI_1*%
X16764000Y28067000D02*
X19012000Y25819000D01*
X17272000Y53213000D02*
X20320000Y53213000D01*
X21209000Y46736000D02*
X17907000Y43434000D01*
X17145000Y59132223D02*
X15748000Y57735223D01*
X17145000Y59690000D02*
X17145000Y59132223D01*
X20409000Y25819000D02*
X22733000Y23495000D01*
X19012000Y25819000D02*
X20409000Y25819000D01*
X15748000Y57735223D02*
X15748000Y54737000D01*
X20320000Y53213000D02*
X21209000Y52324000D01*
X15748000Y36195000D02*
X14732000Y35179000D01*
X16274777Y43434000D02*
X15766777Y42926000D01*
X20193000Y63881000D02*
X17145000Y60833000D01*
X14732000Y29591000D02*
X16256000Y28067000D01*
X14732000Y35179000D02*
X14732000Y29591000D01*
X21717000Y63881000D02*
X20193000Y63881000D01*
X15748000Y42926000D02*
X15748000Y36195000D01*
X16256000Y28067000D02*
X16764000Y28067000D01*
X17907000Y43434000D02*
X16274777Y43434000D01*
X15766777Y42926000D02*
X15748000Y42926000D01*
X17145000Y60833000D02*
X17145000Y59690000D01*
X22098000Y64262000D02*
X21717000Y63881000D01*
X21209000Y52324000D02*
X21209000Y46736000D01*
D26*
%TO.N,+3V3*%
X6042730Y44142730D02*
X7033598Y44142730D01*
D25*
X12700000Y56436000D02*
X12716000Y56420000D01*
X13843000Y29083000D02*
X13843000Y35306000D01*
D24*
X9210000Y59690000D02*
X9210000Y60259000D01*
D26*
X7033598Y44142730D02*
X7776200Y43400128D01*
D25*
X19164250Y20967800D02*
X16510000Y23622050D01*
D26*
X7776200Y39954735D02*
X8614935Y39116000D01*
X16510000Y24257000D02*
X16510000Y26416000D01*
D25*
X9210000Y59690000D02*
X9210000Y58862000D01*
X16510000Y23622050D02*
X16510000Y24257000D01*
X11303000Y58420000D02*
X9652000Y58420000D01*
X16510000Y26416000D02*
X13843000Y29083000D01*
D26*
X10414000Y38735000D02*
X11176000Y37973000D01*
X7776200Y43400128D02*
X7776200Y39954735D01*
D25*
X9210000Y58862000D02*
X9652000Y58420000D01*
D26*
X8614935Y39116000D02*
X9779000Y39116000D01*
D25*
X22733000Y18415000D02*
X20180200Y20967800D01*
X12716000Y57007000D02*
X12716000Y56420000D01*
X20180200Y20967800D02*
X19164250Y20967800D01*
D26*
X4445000Y42545000D02*
X6042730Y44142730D01*
D25*
X12716000Y57007000D02*
X11303000Y58420000D01*
X13843000Y35306000D02*
X11176000Y37973000D01*
D26*
X10160000Y38735000D02*
X10414000Y38735000D01*
X9779000Y39116000D02*
X10160000Y38735000D01*
D24*
%TO.N,/SW_V*%
X5058000Y73765000D02*
X5080000Y73787000D01*
X15560000Y25842000D02*
X15560000Y25400000D01*
X15597500Y25362500D02*
X15560000Y25400000D01*
X3260000Y70380000D02*
X5058000Y70380000D01*
X3260000Y73765000D02*
X5058000Y73765000D01*
X11811000Y61214000D02*
X9906000Y61214000D01*
X5058000Y66780000D02*
X5080000Y66802000D01*
X15597500Y22860000D02*
X15597500Y25362500D01*
X3260000Y77365000D02*
X5058000Y77365000D01*
X5058000Y70380000D02*
X5080000Y70358000D01*
X3260000Y66780000D02*
X5058000Y66780000D01*
X7747000Y61214000D02*
X9906000Y61214000D01*
X10160000Y37846000D02*
X12954000Y35052000D01*
X12954000Y35052000D02*
X12954000Y28448000D01*
X12573000Y61976000D02*
X11811000Y61214000D01*
X5058000Y77365000D02*
X5080000Y77343000D01*
X12954000Y28448000D02*
X15560000Y25842000D01*
D28*
%TO.N,/RFM_ANT*%
X20716000Y57497000D02*
X21971000Y58752000D01*
X21971000Y58752000D02*
X23696200Y58752000D01*
D29*
X25015200Y66929000D02*
X25015200Y60071000D01*
D28*
X23696200Y58752000D02*
X25015200Y60071000D01*
X20716000Y56420000D02*
X20716000Y57497000D01*
D29*
X22225000Y76263267D02*
X24161634Y74326633D01*
X25015200Y73473067D02*
X25015200Y66929000D01*
D28*
X24407400Y58750200D02*
X25443300Y59784100D01*
D29*
X24161634Y74326633D02*
X25015200Y73473067D01*
X22225000Y80195000D02*
X22225000Y76263267D01*
D28*
X22682200Y58750200D02*
X24407400Y58750200D01*
D27*
%TO.N,/PICO_RESET*%
X22733000Y33655000D02*
X17235000Y33655000D01*
D24*
%TO.N,/RFM_MISO*%
X1397000Y46355000D02*
X7416800Y46355000D01*
X8763000Y41417000D02*
X8716000Y41370000D01*
X8716000Y41370000D02*
X8716000Y45055800D01*
X8716000Y45055800D02*
X7416800Y46355000D01*
%TO.N,/RFM_CSn*%
X14716000Y41370000D02*
X14716000Y40426612D01*
X13532887Y39243499D02*
X10337301Y39243499D01*
X5588000Y48895000D02*
X1397000Y48895000D01*
X14716000Y40426612D02*
X13532887Y39243499D01*
X9702800Y39878000D02*
X9702800Y44780200D01*
X9702800Y44780200D02*
X5588000Y48895000D01*
X10337301Y39243499D02*
X9702800Y39878000D01*
%TO.N,/RFM_SCK*%
X12716000Y42148000D02*
X10541000Y44323000D01*
X12716000Y41370000D02*
X12716000Y42148000D01*
X10541000Y44323000D02*
X10541000Y45720000D01*
X2286000Y53975000D02*
X1397000Y53975000D01*
X10541000Y45720000D02*
X2286000Y53975000D01*
%TO.N,/RFM_MOSI*%
X13716000Y42926000D02*
X13716000Y39928800D01*
X10716000Y40490400D02*
X10716000Y41370000D01*
X13385800Y39598600D02*
X11607800Y39598600D01*
X11176000Y45974000D02*
X11176000Y44577000D01*
X13716000Y39928800D02*
X13385800Y39598600D01*
X11176000Y44577000D02*
X12319000Y43434000D01*
X11607800Y39598600D02*
X10716000Y40490400D01*
X2540000Y54610000D02*
X11176000Y45974000D01*
X1270000Y56515000D02*
X2540000Y55245000D01*
X2540000Y55245000D02*
X2540000Y54610000D01*
X12319000Y43434000D02*
X13208000Y43434000D01*
X13208000Y43434000D02*
X13716000Y42926000D01*
%TO.N,/RFM_RESET*%
X22733000Y36195000D02*
X21005800Y36195000D01*
X16716000Y40484800D02*
X16716000Y41370000D01*
X21005800Y36195000D02*
X16716000Y40484800D01*
%TD*%
%TA.AperFunction,Conductor*%
%TO.N,GND*%
G36*
X20212638Y82024407D02*
G01*
X20238358Y81979858D01*
X20239500Y81966801D01*
X20239500Y80449084D01*
X20239595Y80447751D01*
X20239596Y80447733D01*
X20245666Y80362865D01*
X20245666Y80352137D01*
X20239596Y80267268D01*
X20239596Y80267264D01*
X20239500Y80265916D01*
X20239500Y80264569D01*
X20239500Y80264567D01*
X20239500Y76121263D01*
X20249235Y76053546D01*
X20249808Y76048210D01*
X20254687Y75979983D01*
X20269232Y75913120D01*
X20270184Y75907839D01*
X20279918Y75840144D01*
X20299192Y75774500D01*
X20300519Y75769299D01*
X20315059Y75702461D01*
X20338964Y75638367D01*
X20340659Y75633275D01*
X20359935Y75567629D01*
X20388352Y75505404D01*
X20390406Y75500445D01*
X20414309Y75436359D01*
X20447099Y75376309D01*
X20449501Y75371509D01*
X20477915Y75309290D01*
X20514905Y75251731D01*
X20517643Y75247116D01*
X20550424Y75187083D01*
X20591418Y75132322D01*
X20594481Y75127911D01*
X20631467Y75070358D01*
X20676266Y75018657D01*
X20679624Y75014492D01*
X20720626Y74959720D01*
X20770894Y74909453D01*
X20770894Y74909452D01*
X22707528Y72972818D01*
X23007674Y72672672D01*
X23029414Y72626053D01*
X23029700Y72619499D01*
X23029700Y70096754D01*
X23012107Y70048416D01*
X22967558Y70022696D01*
X22940416Y70022885D01*
X22814661Y70046862D01*
X22793100Y70050973D01*
X22793099Y70050973D01*
X22621523Y70046862D01*
X22585286Y70038135D01*
X22454661Y70006677D01*
X22454659Y70006677D01*
X22454658Y70006676D01*
X22431703Y69995666D01*
X22431067Y69995476D01*
X22379741Y69970748D01*
X22374583Y69968497D01*
X22355436Y69960980D01*
X22344685Y69957664D01*
X22327388Y69953717D01*
X22316259Y69952041D01*
X22295749Y69950509D01*
X22290123Y69950300D01*
X22232693Y69950319D01*
X22232568Y69950299D01*
X20889995Y69950299D01*
X20884372Y69950510D01*
X20878667Y69950938D01*
X20863793Y69952054D01*
X20852686Y69953729D01*
X20835306Y69957696D01*
X20824571Y69961007D01*
X20805570Y69968463D01*
X20800515Y69970663D01*
X20779009Y69980979D01*
X20748885Y69995483D01*
X20748576Y69995577D01*
X20725353Y70006715D01*
X20558482Y70046901D01*
X20386897Y70051012D01*
X20218295Y70018867D01*
X20060257Y69951906D01*
X19919887Y69853143D01*
X19803479Y69727006D01*
X19716276Y69579173D01*
X19662190Y69416277D01*
X19643653Y69245643D01*
X19661497Y69074940D01*
X19714921Y68911823D01*
X19727725Y68889840D01*
X19727940Y68889289D01*
X19756441Y68840525D01*
X19759529Y68834665D01*
X19769907Y68812666D01*
X19774479Y68800242D01*
X19779968Y68779978D01*
X19782291Y68766944D01*
X19784407Y68743026D01*
X19784700Y68736399D01*
X19784700Y67210367D01*
X19784694Y67210327D01*
X19784699Y67153838D01*
X19784408Y67147220D01*
X19782270Y67122993D01*
X19779949Y67109955D01*
X19774467Y67089703D01*
X19769896Y67077278D01*
X19759633Y67055514D01*
X19756547Y67049653D01*
X19727985Y67000766D01*
X19727706Y67000052D01*
X19714957Y66978162D01*
X19714956Y66978160D01*
X19714956Y66978159D01*
X19707231Y66954571D01*
X19661535Y66815050D01*
X19643692Y66644357D01*
X19662228Y66473731D01*
X19716312Y66310843D01*
X19803512Y66163014D01*
X19861629Y66100040D01*
X19919910Y66036888D01*
X20019385Y65966899D01*
X20060276Y65938128D01*
X20060277Y65938128D01*
X20060278Y65938127D01*
X20218308Y65871171D01*
X20386901Y65839026D01*
X20558482Y65843139D01*
X20725341Y65883323D01*
X20748180Y65894279D01*
X20748726Y65894441D01*
X20759157Y65899464D01*
X20759159Y65899464D01*
X20800197Y65919224D01*
X20805304Y65921452D01*
X20824576Y65929015D01*
X20835278Y65932317D01*
X20852702Y65936294D01*
X20863770Y65937962D01*
X20884167Y65939492D01*
X20889769Y65939701D01*
X22290005Y65939701D01*
X22295629Y65939490D01*
X22299403Y65939207D01*
X22316206Y65937947D01*
X22327313Y65936272D01*
X22344693Y65932305D01*
X22355428Y65928994D01*
X22374434Y65921536D01*
X22379468Y65919346D01*
X22400989Y65909023D01*
X22420841Y65899464D01*
X22420842Y65899464D01*
X22431394Y65894383D01*
X22431700Y65894292D01*
X22454647Y65883285D01*
X22621515Y65843100D01*
X22793103Y65838988D01*
X22937751Y65866567D01*
X22940416Y65867075D01*
X22991193Y65858846D01*
X23024801Y65819903D01*
X23029700Y65793206D01*
X23029700Y60302700D01*
X23012107Y60254362D01*
X22967558Y60228642D01*
X22954500Y60227500D01*
X22067270Y60227500D01*
X22057968Y60228078D01*
X22032187Y60231292D01*
X22032184Y60231292D01*
X21942040Y60227564D01*
X21938933Y60227500D01*
X21909971Y60227500D01*
X21908424Y60227372D01*
X21908403Y60227371D01*
X21881119Y60225111D01*
X21878022Y60224918D01*
X21787861Y60221188D01*
X21762418Y60215854D01*
X21753204Y60214511D01*
X21727307Y60212364D01*
X21639857Y60190219D01*
X21636830Y60189519D01*
X21548543Y60171007D01*
X21524325Y60161558D01*
X21515456Y60158717D01*
X21490266Y60152338D01*
X21407634Y60116093D01*
X21404764Y60114905D01*
X21320745Y60082120D01*
X21298418Y60068817D01*
X21290137Y60064554D01*
X21266331Y60054112D01*
X21190820Y60004778D01*
X21188185Y60003133D01*
X21110682Y59956950D01*
X21090843Y59940148D01*
X21083385Y59934587D01*
X21061623Y59920368D01*
X21061620Y59920366D01*
X20995250Y59859269D01*
X20992924Y59857214D01*
X20971991Y59839484D01*
X20971984Y59839479D01*
X20970818Y59838490D01*
X20969732Y59837406D01*
X20969721Y59837394D01*
X20950330Y59818004D01*
X20948090Y59815855D01*
X20881717Y59754754D01*
X20865752Y59734242D01*
X20859584Y59727258D01*
X19740742Y58608416D01*
X19733758Y58602248D01*
X19713246Y58586283D01*
X19652145Y58519910D01*
X19649996Y58517670D01*
X19630606Y58498279D01*
X19630594Y58498268D01*
X19629510Y58497182D01*
X19628521Y58496016D01*
X19628516Y58496009D01*
X19610786Y58475076D01*
X19608731Y58472750D01*
X19547634Y58406380D01*
X19547632Y58406378D01*
X19547632Y58406377D01*
X19533413Y58384615D01*
X19527852Y58377157D01*
X19511050Y58357318D01*
X19464867Y58279815D01*
X19463222Y58277180D01*
X19413888Y58201669D01*
X19403447Y58177866D01*
X19399183Y58169583D01*
X19391982Y58157498D01*
X19389427Y58153502D01*
X19382511Y58143405D01*
X19337392Y58041219D01*
X19301773Y58004106D01*
X19250632Y57998572D01*
X19242321Y58001135D01*
X19134411Y58041383D01*
X19080444Y58047185D01*
X19076433Y58047400D01*
X18843000Y58047400D01*
X18843000Y54792601D01*
X19076431Y54792601D01*
X19080450Y54792817D01*
X19134412Y54798617D01*
X19242320Y54838865D01*
X19293758Y54839274D01*
X19333424Y54806523D01*
X19337388Y54798791D01*
X19349355Y54771690D01*
X19382512Y54696596D01*
X19482318Y54550898D01*
X19495121Y54501077D01*
X19472904Y54454683D01*
X19426063Y54433423D01*
X19420278Y54433200D01*
X16229444Y54433200D01*
X16181106Y54450793D01*
X16155386Y54495342D01*
X16161039Y54539639D01*
X16178125Y54577053D01*
X16191676Y54606725D01*
X16210061Y54734594D01*
X16234353Y54779932D01*
X16282108Y54799050D01*
X16292534Y54798657D01*
X16297477Y54798126D01*
X16297481Y54798124D01*
X16353511Y54792100D01*
X17078488Y54792101D01*
X17134519Y54798124D01*
X17261257Y54845394D01*
X17369543Y54926457D01*
X17450606Y55034743D01*
X17497876Y55161481D01*
X17503900Y55217511D01*
X17503899Y56293000D01*
X17928601Y56293000D01*
X17928601Y55219570D01*
X17928816Y55215550D01*
X17934616Y55161588D01*
X17981836Y55034989D01*
X18062814Y54926815D01*
X18170985Y54845839D01*
X18297590Y54798618D01*
X18351555Y54792816D01*
X18355566Y54792601D01*
X18589000Y54792601D01*
X18589000Y56293000D01*
X17928601Y56293000D01*
X17503899Y56293000D01*
X17503899Y56547000D01*
X17928600Y56547000D01*
X18589000Y56547000D01*
X18589000Y58047400D01*
X18355569Y58047400D01*
X18351549Y58047184D01*
X18297587Y58041384D01*
X18170988Y57994164D01*
X18062814Y57913186D01*
X17981838Y57805015D01*
X17934617Y57678410D01*
X17928815Y57624445D01*
X17928600Y57620434D01*
X17928600Y56547000D01*
X17503899Y56547000D01*
X17503899Y57622488D01*
X17497876Y57678519D01*
X17450606Y57805257D01*
X17421613Y57843987D01*
X17369543Y57913544D01*
X17261258Y57994606D01*
X17177956Y58025675D01*
X17134519Y58041876D01*
X17078489Y58047900D01*
X17076477Y58047900D01*
X16602141Y58047900D01*
X16553803Y58065493D01*
X16528083Y58110042D01*
X16537016Y58160700D01*
X16548967Y58176274D01*
X16922804Y58550111D01*
X17301998Y58929306D01*
X17313383Y58938651D01*
X17328484Y58948739D01*
X17370991Y59012356D01*
X17412474Y59042772D01*
X17463804Y59039407D01*
X17500520Y59004717D01*
X17515394Y58975526D01*
X17605526Y58885394D01*
X17719100Y58827525D01*
X17813329Y58812600D01*
X17968000Y58812600D01*
X17968000Y59563000D01*
X18222000Y59563000D01*
X18222000Y58812600D01*
X18376671Y58812600D01*
X18470899Y58827525D01*
X18584473Y58885394D01*
X18674606Y58975527D01*
X18732475Y59089101D01*
X18747400Y59183330D01*
X18747400Y59563000D01*
X18222000Y59563000D01*
X17968000Y59563000D01*
X17968000Y60567400D01*
X18222000Y60567400D01*
X18222000Y59817000D01*
X18747400Y59817000D01*
X18747400Y60196671D01*
X18732475Y60290900D01*
X18674606Y60404474D01*
X18584473Y60494607D01*
X18470899Y60552476D01*
X18376671Y60567400D01*
X18222000Y60567400D01*
X17968000Y60567400D01*
X17813329Y60567400D01*
X17719100Y60552476D01*
X17605526Y60494607D01*
X17527874Y60416954D01*
X17481254Y60395214D01*
X17431567Y60408528D01*
X17402062Y60450665D01*
X17399500Y60470128D01*
X17399500Y60696435D01*
X17417093Y60744773D01*
X17421526Y60749609D01*
X20276392Y63604474D01*
X20323012Y63626214D01*
X20329566Y63626500D01*
X21684528Y63626500D01*
X21699196Y63625056D01*
X21717000Y63621514D01*
X21816301Y63641266D01*
X21879234Y63683316D01*
X21879234Y63683317D01*
X21889908Y63690448D01*
X21889914Y63690454D01*
X21900484Y63697516D01*
X21910568Y63712610D01*
X21919910Y63723994D01*
X21978192Y63782276D01*
X22024812Y63804014D01*
X22031365Y63804300D01*
X22163807Y63804300D01*
X22290091Y63841380D01*
X22371662Y63893803D01*
X22400811Y63912535D01*
X22400812Y63912536D01*
X22487002Y64012004D01*
X22541676Y64131725D01*
X22560407Y64262000D01*
X22541676Y64392275D01*
X22541675Y64392278D01*
X22487003Y64511995D01*
X22400811Y64611466D01*
X22290091Y64682620D01*
X22163807Y64719700D01*
X22032193Y64719700D01*
X21905908Y64682620D01*
X21795188Y64611466D01*
X21708996Y64511995D01*
X21654324Y64392278D01*
X21635593Y64261999D01*
X21641430Y64221401D01*
X21630894Y64171052D01*
X21590459Y64139254D01*
X21566995Y64135500D01*
X20225472Y64135500D01*
X20210803Y64136945D01*
X20193000Y64140486D01*
X20192999Y64140486D01*
X20167933Y64135500D01*
X20148954Y64131725D01*
X20093698Y64120735D01*
X20030765Y64078684D01*
X20031248Y64079009D01*
X20009517Y64064487D01*
X19999431Y64049392D01*
X19990080Y64038000D01*
X19483674Y63531593D01*
X19437054Y63509853D01*
X19387367Y63523167D01*
X19357862Y63565304D01*
X19355300Y63584767D01*
X19355300Y73286513D01*
X19372893Y73334851D01*
X19417442Y73360571D01*
X19468100Y73351638D01*
X19487332Y73335758D01*
X19509186Y73310537D01*
X19558343Y73278946D01*
X19619909Y73239380D01*
X19746193Y73202300D01*
X19877807Y73202300D01*
X20004091Y73239380D01*
X20085662Y73291803D01*
X20114811Y73310535D01*
X20150427Y73351638D01*
X20201002Y73410004D01*
X20255676Y73529725D01*
X20274407Y73660000D01*
X20255676Y73790275D01*
X20239440Y73825828D01*
X20201003Y73909995D01*
X20114811Y74009466D01*
X20004091Y74080620D01*
X19877807Y74117700D01*
X19746193Y74117700D01*
X19619908Y74080620D01*
X19509188Y74009466D01*
X19449390Y73940454D01*
X19404440Y73915445D01*
X19392558Y73914500D01*
X19258408Y73914500D01*
X19210070Y73932093D01*
X19205234Y73936526D01*
X16583326Y76558435D01*
X16561586Y76605055D01*
X16561300Y76611609D01*
X16561300Y78614149D01*
X16578893Y78662487D01*
X16623442Y78688207D01*
X16674100Y78679274D01*
X16681155Y78674655D01*
X16723749Y78643220D01*
X16733963Y78639646D01*
X16749795Y78631921D01*
X16749922Y78631839D01*
X16787533Y78620796D01*
X16791186Y78619622D01*
X16853841Y78597698D01*
X16864779Y78596672D01*
X16874530Y78594800D01*
X17038662Y78594800D01*
X17038685Y78594801D01*
X17718000Y78594801D01*
X17718000Y78978942D01*
X17719562Y78973112D01*
X17777312Y78915362D01*
X17836137Y78899600D01*
X17876263Y78899600D01*
X17935088Y78915362D01*
X17972000Y78952274D01*
X17972000Y78594801D01*
X18670203Y78594801D01*
X18670211Y78594800D01*
X18813221Y78594800D01*
X18820830Y78596261D01*
X18836157Y78597697D01*
X18914462Y78625098D01*
X18918116Y78626272D01*
X18939835Y78632649D01*
X18949450Y78637340D01*
X18966248Y78643218D01*
X18970924Y78646670D01*
X18970925Y78646671D01*
X18715382Y78902214D01*
X18725137Y78899600D01*
X18765263Y78899600D01*
X18824088Y78915362D01*
X18881838Y78973112D01*
X18902976Y79052000D01*
X18894986Y79081818D01*
X19151283Y78825521D01*
X19158983Y78835953D01*
X19204502Y78966039D01*
X19207235Y78995184D01*
X19207400Y78998704D01*
X19207400Y79255200D01*
X17972000Y79255200D01*
X17972000Y79151727D01*
X17935088Y79188638D01*
X17876263Y79204400D01*
X17836137Y79204400D01*
X17777312Y79188638D01*
X17719562Y79130888D01*
X17718000Y79125059D01*
X17718000Y79434000D01*
X17735593Y79482338D01*
X17780142Y79508058D01*
X17793200Y79509200D01*
X19207399Y79509200D01*
X19207399Y81788000D01*
X17793200Y81788000D01*
X17744862Y81805593D01*
X17719142Y81850142D01*
X17718000Y81863200D01*
X17718000Y81966800D01*
X17735593Y82015138D01*
X17780142Y82040858D01*
X17793200Y82042000D01*
X20164300Y82042000D01*
X20212638Y82024407D01*
G37*
%TD.AperFunction*%
%TA.AperFunction,Conductor*%
G36*
X26705138Y82024407D02*
G01*
X26730858Y81979858D01*
X26732000Y81966800D01*
X26732000Y81863200D01*
X26714407Y81814862D01*
X26669858Y81789142D01*
X26656800Y81788000D01*
X25242600Y81788000D01*
X25242600Y79509200D01*
X26656800Y79509200D01*
X26705138Y79491607D01*
X26730858Y79447058D01*
X26732000Y79434000D01*
X26732000Y79125059D01*
X26730438Y79130888D01*
X26672688Y79188638D01*
X26613863Y79204400D01*
X26573737Y79204400D01*
X26514912Y79188638D01*
X26478000Y79151726D01*
X26478000Y79255200D01*
X25242601Y79255200D01*
X25242601Y78998690D01*
X25242764Y78995192D01*
X25245497Y78966040D01*
X25291017Y78835951D01*
X25298713Y78825522D01*
X25298716Y78825522D01*
X25555014Y79081820D01*
X25547024Y79052000D01*
X25568162Y78973112D01*
X25625912Y78915362D01*
X25684737Y78899600D01*
X25724863Y78899600D01*
X25734616Y78902214D01*
X25479073Y78646671D01*
X25483754Y78643216D01*
X25500555Y78637337D01*
X25510165Y78632649D01*
X25531890Y78626270D01*
X25535540Y78625096D01*
X25613838Y78597698D01*
X25629193Y78596258D01*
X25636788Y78594800D01*
X25801662Y78594800D01*
X25801685Y78594801D01*
X26478000Y78594801D01*
X26478000Y78952274D01*
X26514912Y78915362D01*
X26573737Y78899600D01*
X26613863Y78899600D01*
X26672688Y78915362D01*
X26730438Y78973112D01*
X26732000Y78978942D01*
X26732000Y78594801D01*
X27433203Y78594801D01*
X27433211Y78594800D01*
X27575469Y78594800D01*
X27585230Y78596673D01*
X27596156Y78597697D01*
X27658812Y78619622D01*
X27662465Y78620796D01*
X27700079Y78631840D01*
X27700204Y78631920D01*
X27716040Y78639647D01*
X27726248Y78643219D01*
X27768844Y78674655D01*
X27818184Y78689203D01*
X27865332Y78668633D01*
X27888227Y78622569D01*
X27888700Y78614149D01*
X27888700Y58297931D01*
X27888057Y58288115D01*
X27878758Y58217483D01*
X27873677Y58198521D01*
X27848317Y58137296D01*
X27838501Y58120294D01*
X27795100Y58063734D01*
X27788679Y58056415D01*
X27757941Y58025675D01*
X27757939Y58025673D01*
X27752089Y58019823D01*
X27749008Y58015517D01*
X24098562Y54257349D01*
X24047776Y54206563D01*
X23960784Y54086828D01*
X23893589Y53954952D01*
X23847852Y53814184D01*
X23824700Y53668004D01*
X23824700Y49859200D01*
X23807107Y49810862D01*
X23762558Y49785142D01*
X23749500Y49784000D01*
X22958916Y49784000D01*
X22943282Y49785643D01*
X22829160Y49809900D01*
X22636840Y49809900D01*
X22522717Y49785643D01*
X22507084Y49784000D01*
X21538700Y49784000D01*
X21490362Y49801593D01*
X21464642Y49846142D01*
X21463500Y49859200D01*
X21463500Y51435001D01*
X21813563Y51435001D01*
X21833654Y51243837D01*
X21893052Y51061033D01*
X21989159Y50894569D01*
X22000436Y50882044D01*
X22000437Y50882043D01*
X22386760Y51268367D01*
X22448813Y51173388D01*
X22549157Y51095287D01*
X22566824Y51089222D01*
X22182386Y50704784D01*
X22273281Y50638744D01*
X22448877Y50560564D01*
X22636894Y50520600D01*
X22829106Y50520600D01*
X23017122Y50560564D01*
X23192721Y50638746D01*
X23283611Y50704783D01*
X23283612Y50704784D01*
X22897556Y51090840D01*
X22970251Y51130180D01*
X23056371Y51223731D01*
X23076952Y51270653D01*
X23465561Y50882043D01*
X23465562Y50882043D01*
X23476839Y50894568D01*
X23572947Y51061033D01*
X23632345Y51243837D01*
X23652436Y51435001D01*
X23632345Y51626164D01*
X23572947Y51808968D01*
X23476840Y51975432D01*
X23465562Y51987958D01*
X23465561Y51987959D01*
X23079238Y51601636D01*
X23017187Y51696612D01*
X22916843Y51774713D01*
X22899174Y51780779D01*
X23283612Y52165218D01*
X23192718Y52231257D01*
X23017122Y52309437D01*
X22829106Y52349400D01*
X22636894Y52349400D01*
X22448879Y52309437D01*
X22273278Y52231255D01*
X22182387Y52165219D01*
X22182386Y52165218D01*
X22568443Y51779161D01*
X22495749Y51739820D01*
X22409629Y51646269D01*
X22389048Y51599349D01*
X22000437Y51987959D01*
X21989159Y51975432D01*
X21893052Y51808968D01*
X21833654Y51626164D01*
X21813563Y51435001D01*
X21463500Y51435001D01*
X21463500Y52291528D01*
X21464945Y52306199D01*
X21465589Y52309437D01*
X21468486Y52324000D01*
X21448734Y52423301D01*
X21406684Y52486234D01*
X21402571Y52492390D01*
X21402566Y52492396D01*
X21392484Y52507485D01*
X21377393Y52517568D01*
X21365998Y52526920D01*
X20522920Y53369998D01*
X20513567Y53381394D01*
X20501254Y53399822D01*
X20489028Y53449787D01*
X20511780Y53495922D01*
X20558863Y53516639D01*
X20563781Y53516800D01*
X21419198Y53516800D01*
X21433866Y53515356D01*
X21451670Y53511814D01*
X21550971Y53531566D01*
X21613904Y53573616D01*
X21613905Y53573618D01*
X21624577Y53580748D01*
X21624580Y53580752D01*
X21635154Y53587816D01*
X21645238Y53602911D01*
X21654583Y53614297D01*
X21738762Y53698475D01*
X21785384Y53720214D01*
X21791937Y53720500D01*
X21799073Y53720500D01*
X21847411Y53702907D01*
X21870592Y53668538D01*
X21892592Y53600829D01*
X21978094Y53452734D01*
X21988753Y53434273D01*
X22117440Y53291351D01*
X22117443Y53291349D01*
X22273026Y53178311D01*
X22273029Y53178310D01*
X22273030Y53178309D01*
X22448723Y53100085D01*
X22636840Y53060100D01*
X22636841Y53060100D01*
X22829159Y53060100D01*
X22829160Y53060100D01*
X23017277Y53100085D01*
X23192970Y53178309D01*
X23348560Y53291351D01*
X23477247Y53434273D01*
X23573407Y53600827D01*
X23632837Y53783734D01*
X23652940Y53975000D01*
X23632837Y54166266D01*
X23632837Y54166268D01*
X23573407Y54349172D01*
X23573407Y54349173D01*
X23477247Y54515727D01*
X23348560Y54658649D01*
X23318841Y54680241D01*
X23192973Y54771690D01*
X23133601Y54798124D01*
X23017277Y54849915D01*
X22829160Y54889900D01*
X22636840Y54889900D01*
X22529550Y54867096D01*
X22478612Y54874254D01*
X22444192Y54912482D01*
X22442397Y54963890D01*
X22460740Y54993824D01*
X22890001Y55423085D01*
X22901386Y55432430D01*
X22916484Y55442516D01*
X22923550Y55453091D01*
X22930681Y55463765D01*
X22930684Y55463766D01*
X22972734Y55526699D01*
X22972734Y55526700D01*
X22972734Y55526703D01*
X22973814Y55530260D01*
X22974179Y55533964D01*
X22975581Y55541016D01*
X22985554Y55591155D01*
X23012239Y55635130D01*
X23028717Y55645179D01*
X23192970Y55718309D01*
X23348560Y55831351D01*
X23477247Y55974273D01*
X23573407Y56140827D01*
X23632837Y56323734D01*
X23652940Y56515000D01*
X23632837Y56706266D01*
X23632837Y56706268D01*
X23573407Y56889172D01*
X23573407Y56889173D01*
X23477247Y57055727D01*
X23393099Y57149184D01*
X23373831Y57196876D01*
X23389727Y57245798D01*
X23433350Y57273057D01*
X23448985Y57274700D01*
X23614363Y57274700D01*
X23623662Y57274123D01*
X23626528Y57273766D01*
X23635016Y57272708D01*
X23681635Y57274637D01*
X23684742Y57274700D01*
X24310372Y57274700D01*
X24319744Y57274114D01*
X24321743Y57273863D01*
X24344787Y57270968D01*
X24434501Y57274592D01*
X24435680Y57274639D01*
X24438714Y57274700D01*
X24466868Y57274700D01*
X24468429Y57274700D01*
X24496591Y57277035D01*
X24499674Y57277225D01*
X24589115Y57280836D01*
X24615306Y57286302D01*
X24624444Y57287629D01*
X24651092Y57289836D01*
X24737827Y57311802D01*
X24740909Y57312513D01*
X24828485Y57330786D01*
X24853417Y57340488D01*
X24862196Y57343296D01*
X24888136Y57349864D01*
X24970076Y57385807D01*
X24972998Y57387016D01*
X25056370Y57419454D01*
X25056372Y57419455D01*
X25079352Y57433119D01*
X25087575Y57437348D01*
X25112067Y57448089D01*
X25187004Y57497049D01*
X25189643Y57498694D01*
X25266552Y57544420D01*
X25286974Y57561684D01*
X25294376Y57567198D01*
X25316777Y57581832D01*
X25382643Y57642468D01*
X25384942Y57644496D01*
X25406532Y57662744D01*
X25427592Y57683765D01*
X25429738Y57685822D01*
X25496681Y57747446D01*
X25512191Y57767374D01*
X25518389Y57774386D01*
X26288630Y58543140D01*
X26296676Y58550105D01*
X26318747Y58566626D01*
X26519574Y58767453D01*
X26546895Y58803952D01*
X26549727Y58807503D01*
X26647417Y58922619D01*
X26772790Y59132559D01*
X26790782Y59178541D01*
X26794797Y59187150D01*
X26825888Y59244087D01*
X26925140Y59510191D01*
X26985511Y59787712D01*
X27000700Y60000084D01*
X27000700Y66999916D01*
X27000700Y73543983D01*
X27000700Y73615073D01*
X26990961Y73682808D01*
X26990390Y73688131D01*
X26985511Y73756353D01*
X26970971Y73823192D01*
X26970017Y73828476D01*
X26960281Y73896194D01*
X26941005Y73961842D01*
X26939683Y73967024D01*
X26925140Y74033876D01*
X26901236Y74097964D01*
X26899540Y74103059D01*
X26880267Y74168700D01*
X26851846Y74230931D01*
X26849791Y74235892D01*
X26825888Y74299979D01*
X26825888Y74299980D01*
X26793088Y74360048D01*
X26790718Y74364784D01*
X26762284Y74427046D01*
X26762283Y74427047D01*
X26762282Y74427050D01*
X26725301Y74484593D01*
X26722562Y74489209D01*
X26689778Y74549248D01*
X26689776Y74549251D01*
X26648765Y74604035D01*
X26645717Y74608427D01*
X26608733Y74665975D01*
X26563939Y74717670D01*
X26560571Y74721849D01*
X26547626Y74739141D01*
X26519574Y74776614D01*
X26318747Y74977441D01*
X25515449Y75780739D01*
X25504873Y75791315D01*
X25504870Y75791317D01*
X24232526Y77063663D01*
X24210786Y77110283D01*
X24210500Y77116837D01*
X24210500Y80264569D01*
X24210500Y80265916D01*
X24204332Y80352147D01*
X24204332Y80362856D01*
X24210500Y80449084D01*
X24210500Y81966800D01*
X24228093Y82015138D01*
X24272642Y82040858D01*
X24285700Y82042000D01*
X26656800Y82042000D01*
X26705138Y82024407D01*
G37*
%TD.AperFunction*%
%TD*%
M02*
