%TF.GenerationSoftware,KiCad,Pcbnew,7.0.2-0*%
%TF.CreationDate,2023-07-09T23:01:49-07:00*%
%TF.ProjectId,thumbs-down-hw,7468756d-6273-42d6-946f-776e2d68772e,rev?*%
%TF.SameCoordinates,PX80fd3d8PY8977a68*%
%TF.FileFunction,Paste,Top*%
%TF.FilePolarity,Positive*%
%FSLAX46Y46*%
G04 Gerber Fmt 4.6, Leading zero omitted, Abs format (unit mm)*
G04 Created by KiCad (PCBNEW 7.0.2-0) date 2023-07-09 23:01:49*
%MOMM*%
%LPD*%
G01*
G04 APERTURE LIST*
G04 Aperture macros list*
%AMRoundRect*
0 Rectangle with rounded corners*
0 $1 Rounding radius*
0 $2 $3 $4 $5 $6 $7 $8 $9 X,Y pos of 4 corners*
0 Add a 4 corners polygon primitive as box body*
4,1,4,$2,$3,$4,$5,$6,$7,$8,$9,$2,$3,0*
0 Add four circle primitives for the rounded corners*
1,1,$1+$1,$2,$3*
1,1,$1+$1,$4,$5*
1,1,$1+$1,$6,$7*
1,1,$1+$1,$8,$9*
0 Add four rect primitives between the rounded corners*
20,1,$1+$1,$2,$3,$4,$5,0*
20,1,$1+$1,$4,$5,$6,$7,0*
20,1,$1+$1,$6,$7,$8,$9,0*
20,1,$1+$1,$8,$9,$2,$3,0*%
G04 Aperture macros list end*
%ADD10RoundRect,0.250000X-0.250000X-0.475000X0.250000X-0.475000X0.250000X0.475000X-0.250000X0.475000X0*%
%ADD11R,1.050000X1.400000*%
%ADD12RoundRect,0.250000X0.262500X0.450000X-0.262500X0.450000X-0.262500X-0.450000X0.262500X-0.450000X0*%
%ADD13RoundRect,1.145000X0.000000X1.395000X0.000000X-1.395000X0.000000X-1.395000X0.000000X1.395000X0*%
%ADD14RoundRect,0.304800X-0.905200X2.235200X-0.905200X-2.235200X0.905200X-2.235200X0.905200X2.235200X0*%
%ADD15RoundRect,0.317500X0.317500X-1.157500X0.317500X1.157500X-0.317500X1.157500X-0.317500X-1.157500X0*%
G04 APERTURE END LIST*
D10*
%TO.C,C6*%
X9210000Y59690000D03*
X11110000Y59690000D03*
%TD*%
%TO.C,C5*%
X6670000Y18415000D03*
X8570000Y18415000D03*
%TD*%
%TO.C,C1*%
X6670000Y34925000D03*
X8570000Y34925000D03*
%TD*%
D11*
%TO.C,SW10*%
X3260000Y70380000D03*
X3260000Y66780000D03*
X1820000Y70380000D03*
X1820000Y66780000D03*
%TD*%
D12*
%TO.C,R1*%
X17422500Y22860000D03*
X15597500Y22860000D03*
%TD*%
D10*
%TO.C,C3*%
X6670000Y28575000D03*
X8570000Y28575000D03*
%TD*%
%TO.C,C10*%
X5400000Y65405000D03*
X7300000Y65405000D03*
%TD*%
%TO.C,C4*%
X6670000Y15875000D03*
X8570000Y15875000D03*
%TD*%
D13*
%TO.C,AE1*%
X22225000Y81915000D03*
D14*
X26605000Y81915000D03*
X17845000Y81915000D03*
%TD*%
D10*
%TO.C,C9*%
X5400000Y72390000D03*
X7300000Y72390000D03*
%TD*%
%TO.C,C7*%
X16195000Y59690000D03*
X18095000Y59690000D03*
%TD*%
%TO.C,C2*%
X6670000Y31115000D03*
X8570000Y31115000D03*
%TD*%
%TO.C,R2*%
X15560000Y25400000D03*
X17460000Y25400000D03*
%TD*%
D11*
%TO.C,SW9*%
X3260000Y77365000D03*
X3260000Y73765000D03*
X1820000Y77365000D03*
X1820000Y73765000D03*
%TD*%
D15*
%TO.C,U2*%
X6716000Y41370000D03*
X8716000Y41370000D03*
X10716000Y41370000D03*
X12716000Y41370000D03*
X14716000Y41370000D03*
X16716000Y41370000D03*
X18716000Y41370000D03*
X20716000Y41370000D03*
X20716000Y56420000D03*
X18716000Y56420000D03*
X16716000Y56420000D03*
X14716000Y56420000D03*
X12716000Y56420000D03*
X10716000Y56420000D03*
X8716000Y56420000D03*
X6716000Y56420000D03*
%TD*%
M02*
